%TF.GenerationSoftware,KiCad,Pcbnew,8.0.3*%
%TF.CreationDate,2024-07-13T20:36:06+02:00*%
%TF.ProjectId,Led Nixie,4c656420-4e69-4786-9965-2e6b69636164,rev?*%
%TF.SameCoordinates,Original*%
%TF.FileFunction,Legend,Bot*%
%TF.FilePolarity,Positive*%
%FSLAX46Y46*%
G04 Gerber Fmt 4.6, Leading zero omitted, Abs format (unit mm)*
G04 Created by KiCad (PCBNEW 8.0.3) date 2024-07-13 20:36:06*
%MOMM*%
%LPD*%
G01*
G04 APERTURE LIST*
%ADD10C,0.300000*%
%ADD11C,0.150000*%
%ADD12C,0.120000*%
G04 APERTURE END LIST*
D10*
X110231203Y-38200828D02*
X110945489Y-38200828D01*
X110945489Y-38200828D02*
X110945489Y-36700828D01*
X109731203Y-37415114D02*
X109231203Y-37415114D01*
X109016917Y-38200828D02*
X109731203Y-38200828D01*
X109731203Y-38200828D02*
X109731203Y-36700828D01*
X109731203Y-36700828D02*
X109016917Y-36700828D01*
X108374060Y-38200828D02*
X108374060Y-36700828D01*
X108374060Y-36700828D02*
X108016917Y-36700828D01*
X108016917Y-36700828D02*
X107802631Y-36772257D01*
X107802631Y-36772257D02*
X107659774Y-36915114D01*
X107659774Y-36915114D02*
X107588345Y-37057971D01*
X107588345Y-37057971D02*
X107516917Y-37343685D01*
X107516917Y-37343685D02*
X107516917Y-37557971D01*
X107516917Y-37557971D02*
X107588345Y-37843685D01*
X107588345Y-37843685D02*
X107659774Y-37986542D01*
X107659774Y-37986542D02*
X107802631Y-38129400D01*
X107802631Y-38129400D02*
X108016917Y-38200828D01*
X108016917Y-38200828D02*
X108374060Y-38200828D01*
X106874060Y-37629400D02*
X105731203Y-37629400D01*
X105016917Y-38200828D02*
X105016917Y-36700828D01*
X105016917Y-36700828D02*
X104159774Y-38200828D01*
X104159774Y-38200828D02*
X104159774Y-36700828D01*
X103445488Y-38200828D02*
X103445488Y-37200828D01*
X103445488Y-36700828D02*
X103516916Y-36772257D01*
X103516916Y-36772257D02*
X103445488Y-36843685D01*
X103445488Y-36843685D02*
X103374059Y-36772257D01*
X103374059Y-36772257D02*
X103445488Y-36700828D01*
X103445488Y-36700828D02*
X103445488Y-36843685D01*
X102874059Y-38200828D02*
X102088345Y-37200828D01*
X102874059Y-37200828D02*
X102088345Y-38200828D01*
X101516916Y-38200828D02*
X101516916Y-37200828D01*
X101516916Y-36700828D02*
X101588344Y-36772257D01*
X101588344Y-36772257D02*
X101516916Y-36843685D01*
X101516916Y-36843685D02*
X101445487Y-36772257D01*
X101445487Y-36772257D02*
X101516916Y-36700828D01*
X101516916Y-36700828D02*
X101516916Y-36843685D01*
X100231201Y-38129400D02*
X100374058Y-38200828D01*
X100374058Y-38200828D02*
X100659773Y-38200828D01*
X100659773Y-38200828D02*
X100802630Y-38129400D01*
X100802630Y-38129400D02*
X100874058Y-37986542D01*
X100874058Y-37986542D02*
X100874058Y-37415114D01*
X100874058Y-37415114D02*
X100802630Y-37272257D01*
X100802630Y-37272257D02*
X100659773Y-37200828D01*
X100659773Y-37200828D02*
X100374058Y-37200828D01*
X100374058Y-37200828D02*
X100231201Y-37272257D01*
X100231201Y-37272257D02*
X100159773Y-37415114D01*
X100159773Y-37415114D02*
X100159773Y-37557971D01*
X100159773Y-37557971D02*
X100874058Y-37700828D01*
D11*
X110391792Y-39569819D02*
X110725125Y-39093628D01*
X110963220Y-39569819D02*
X110963220Y-38569819D01*
X110963220Y-38569819D02*
X110582268Y-38569819D01*
X110582268Y-38569819D02*
X110487030Y-38617438D01*
X110487030Y-38617438D02*
X110439411Y-38665057D01*
X110439411Y-38665057D02*
X110391792Y-38760295D01*
X110391792Y-38760295D02*
X110391792Y-38903152D01*
X110391792Y-38903152D02*
X110439411Y-38998390D01*
X110439411Y-38998390D02*
X110487030Y-39046009D01*
X110487030Y-39046009D02*
X110582268Y-39093628D01*
X110582268Y-39093628D02*
X110963220Y-39093628D01*
X109582268Y-39522200D02*
X109677506Y-39569819D01*
X109677506Y-39569819D02*
X109867982Y-39569819D01*
X109867982Y-39569819D02*
X109963220Y-39522200D01*
X109963220Y-39522200D02*
X110010839Y-39426961D01*
X110010839Y-39426961D02*
X110010839Y-39046009D01*
X110010839Y-39046009D02*
X109963220Y-38950771D01*
X109963220Y-38950771D02*
X109867982Y-38903152D01*
X109867982Y-38903152D02*
X109677506Y-38903152D01*
X109677506Y-38903152D02*
X109582268Y-38950771D01*
X109582268Y-38950771D02*
X109534649Y-39046009D01*
X109534649Y-39046009D02*
X109534649Y-39141247D01*
X109534649Y-39141247D02*
X110010839Y-39236485D01*
X109201315Y-38903152D02*
X108963220Y-39569819D01*
X108963220Y-39569819D02*
X108725125Y-38903152D01*
X108344172Y-39474580D02*
X108296553Y-39522200D01*
X108296553Y-39522200D02*
X108344172Y-39569819D01*
X108344172Y-39569819D02*
X108391791Y-39522200D01*
X108391791Y-39522200D02*
X108344172Y-39474580D01*
X108344172Y-39474580D02*
X108344172Y-39569819D01*
X107915601Y-39284104D02*
X107439411Y-39284104D01*
X108010839Y-39569819D02*
X107677506Y-38569819D01*
X107677506Y-38569819D02*
X107344173Y-39569819D01*
X106248934Y-39188866D02*
X105487030Y-39188866D01*
X104058458Y-38569819D02*
X103963220Y-38569819D01*
X103963220Y-38569819D02*
X103867982Y-38617438D01*
X103867982Y-38617438D02*
X103820363Y-38665057D01*
X103820363Y-38665057D02*
X103772744Y-38760295D01*
X103772744Y-38760295D02*
X103725125Y-38950771D01*
X103725125Y-38950771D02*
X103725125Y-39188866D01*
X103725125Y-39188866D02*
X103772744Y-39379342D01*
X103772744Y-39379342D02*
X103820363Y-39474580D01*
X103820363Y-39474580D02*
X103867982Y-39522200D01*
X103867982Y-39522200D02*
X103963220Y-39569819D01*
X103963220Y-39569819D02*
X104058458Y-39569819D01*
X104058458Y-39569819D02*
X104153696Y-39522200D01*
X104153696Y-39522200D02*
X104201315Y-39474580D01*
X104201315Y-39474580D02*
X104248934Y-39379342D01*
X104248934Y-39379342D02*
X104296553Y-39188866D01*
X104296553Y-39188866D02*
X104296553Y-38950771D01*
X104296553Y-38950771D02*
X104248934Y-38760295D01*
X104248934Y-38760295D02*
X104201315Y-38665057D01*
X104201315Y-38665057D02*
X104153696Y-38617438D01*
X104153696Y-38617438D02*
X104058458Y-38569819D01*
X102867982Y-38569819D02*
X103058458Y-38569819D01*
X103058458Y-38569819D02*
X103153696Y-38617438D01*
X103153696Y-38617438D02*
X103201315Y-38665057D01*
X103201315Y-38665057D02*
X103296553Y-38807914D01*
X103296553Y-38807914D02*
X103344172Y-38998390D01*
X103344172Y-38998390D02*
X103344172Y-39379342D01*
X103344172Y-39379342D02*
X103296553Y-39474580D01*
X103296553Y-39474580D02*
X103248934Y-39522200D01*
X103248934Y-39522200D02*
X103153696Y-39569819D01*
X103153696Y-39569819D02*
X102963220Y-39569819D01*
X102963220Y-39569819D02*
X102867982Y-39522200D01*
X102867982Y-39522200D02*
X102820363Y-39474580D01*
X102820363Y-39474580D02*
X102772744Y-39379342D01*
X102772744Y-39379342D02*
X102772744Y-39141247D01*
X102772744Y-39141247D02*
X102820363Y-39046009D01*
X102820363Y-39046009D02*
X102867982Y-38998390D01*
X102867982Y-38998390D02*
X102963220Y-38950771D01*
X102963220Y-38950771D02*
X103153696Y-38950771D01*
X103153696Y-38950771D02*
X103248934Y-38998390D01*
X103248934Y-38998390D02*
X103296553Y-39046009D01*
X103296553Y-39046009D02*
X103344172Y-39141247D01*
X101629887Y-38522200D02*
X102487029Y-39807914D01*
X101344172Y-38665057D02*
X101296553Y-38617438D01*
X101296553Y-38617438D02*
X101201315Y-38569819D01*
X101201315Y-38569819D02*
X100963220Y-38569819D01*
X100963220Y-38569819D02*
X100867982Y-38617438D01*
X100867982Y-38617438D02*
X100820363Y-38665057D01*
X100820363Y-38665057D02*
X100772744Y-38760295D01*
X100772744Y-38760295D02*
X100772744Y-38855533D01*
X100772744Y-38855533D02*
X100820363Y-38998390D01*
X100820363Y-38998390D02*
X101391791Y-39569819D01*
X101391791Y-39569819D02*
X100772744Y-39569819D01*
X99915601Y-38903152D02*
X99915601Y-39569819D01*
X100153696Y-38522200D02*
X100391791Y-39236485D01*
X100391791Y-39236485D02*
X99772744Y-39236485D01*
X101999999Y-50569819D02*
X101999999Y-51284104D01*
X101999999Y-51284104D02*
X102028570Y-51426961D01*
X102028570Y-51426961D02*
X102085713Y-51522200D01*
X102085713Y-51522200D02*
X102171427Y-51569819D01*
X102171427Y-51569819D02*
X102228570Y-51569819D01*
X101428570Y-51569819D02*
X101714284Y-51569819D01*
X101714284Y-51569819D02*
X101714284Y-50569819D01*
X100885713Y-51474580D02*
X100914285Y-51522200D01*
X100914285Y-51522200D02*
X100999999Y-51569819D01*
X100999999Y-51569819D02*
X101057142Y-51569819D01*
X101057142Y-51569819D02*
X101142856Y-51522200D01*
X101142856Y-51522200D02*
X101199999Y-51426961D01*
X101199999Y-51426961D02*
X101228570Y-51331723D01*
X101228570Y-51331723D02*
X101257142Y-51141247D01*
X101257142Y-51141247D02*
X101257142Y-50998390D01*
X101257142Y-50998390D02*
X101228570Y-50807914D01*
X101228570Y-50807914D02*
X101199999Y-50712676D01*
X101199999Y-50712676D02*
X101142856Y-50617438D01*
X101142856Y-50617438D02*
X101057142Y-50569819D01*
X101057142Y-50569819D02*
X100999999Y-50569819D01*
X100999999Y-50569819D02*
X100914285Y-50617438D01*
X100914285Y-50617438D02*
X100885713Y-50665057D01*
X100457142Y-50569819D02*
X100457142Y-51284104D01*
X100457142Y-51284104D02*
X100485713Y-51426961D01*
X100485713Y-51426961D02*
X100542856Y-51522200D01*
X100542856Y-51522200D02*
X100628570Y-51569819D01*
X100628570Y-51569819D02*
X100685713Y-51569819D01*
X99885713Y-51569819D02*
X100171427Y-51569819D01*
X100171427Y-51569819D02*
X100171427Y-50569819D01*
X99342856Y-51474580D02*
X99371428Y-51522200D01*
X99371428Y-51522200D02*
X99457142Y-51569819D01*
X99457142Y-51569819D02*
X99514285Y-51569819D01*
X99514285Y-51569819D02*
X99599999Y-51522200D01*
X99599999Y-51522200D02*
X99657142Y-51426961D01*
X99657142Y-51426961D02*
X99685713Y-51331723D01*
X99685713Y-51331723D02*
X99714285Y-51141247D01*
X99714285Y-51141247D02*
X99714285Y-50998390D01*
X99714285Y-50998390D02*
X99685713Y-50807914D01*
X99685713Y-50807914D02*
X99657142Y-50712676D01*
X99657142Y-50712676D02*
X99599999Y-50617438D01*
X99599999Y-50617438D02*
X99514285Y-50569819D01*
X99514285Y-50569819D02*
X99457142Y-50569819D01*
X99457142Y-50569819D02*
X99371428Y-50617438D01*
X99371428Y-50617438D02*
X99342856Y-50665057D01*
X98914285Y-50569819D02*
X98914285Y-51284104D01*
X98914285Y-51284104D02*
X98942856Y-51426961D01*
X98942856Y-51426961D02*
X98999999Y-51522200D01*
X98999999Y-51522200D02*
X99085713Y-51569819D01*
X99085713Y-51569819D02*
X99142856Y-51569819D01*
X98342856Y-51569819D02*
X98628570Y-51569819D01*
X98628570Y-51569819D02*
X98628570Y-50569819D01*
X97799999Y-51474580D02*
X97828571Y-51522200D01*
X97828571Y-51522200D02*
X97914285Y-51569819D01*
X97914285Y-51569819D02*
X97971428Y-51569819D01*
X97971428Y-51569819D02*
X98057142Y-51522200D01*
X98057142Y-51522200D02*
X98114285Y-51426961D01*
X98114285Y-51426961D02*
X98142856Y-51331723D01*
X98142856Y-51331723D02*
X98171428Y-51141247D01*
X98171428Y-51141247D02*
X98171428Y-50998390D01*
X98171428Y-50998390D02*
X98142856Y-50807914D01*
X98142856Y-50807914D02*
X98114285Y-50712676D01*
X98114285Y-50712676D02*
X98057142Y-50617438D01*
X98057142Y-50617438D02*
X97971428Y-50569819D01*
X97971428Y-50569819D02*
X97914285Y-50569819D01*
X97914285Y-50569819D02*
X97828571Y-50617438D01*
X97828571Y-50617438D02*
X97799999Y-50665057D01*
X110701316Y-40403152D02*
X110701316Y-41212676D01*
X110701316Y-41212676D02*
X110729887Y-41307914D01*
X110729887Y-41307914D02*
X110758458Y-41355533D01*
X110758458Y-41355533D02*
X110815601Y-41403152D01*
X110815601Y-41403152D02*
X110901316Y-41403152D01*
X110901316Y-41403152D02*
X110958458Y-41355533D01*
X110701316Y-41022200D02*
X110758458Y-41069819D01*
X110758458Y-41069819D02*
X110872744Y-41069819D01*
X110872744Y-41069819D02*
X110929887Y-41022200D01*
X110929887Y-41022200D02*
X110958458Y-40974580D01*
X110958458Y-40974580D02*
X110987030Y-40879342D01*
X110987030Y-40879342D02*
X110987030Y-40593628D01*
X110987030Y-40593628D02*
X110958458Y-40498390D01*
X110958458Y-40498390D02*
X110929887Y-40450771D01*
X110929887Y-40450771D02*
X110872744Y-40403152D01*
X110872744Y-40403152D02*
X110758458Y-40403152D01*
X110758458Y-40403152D02*
X110701316Y-40450771D01*
X110415601Y-41069819D02*
X110415601Y-40403152D01*
X110415601Y-40069819D02*
X110444173Y-40117438D01*
X110444173Y-40117438D02*
X110415601Y-40165057D01*
X110415601Y-40165057D02*
X110387030Y-40117438D01*
X110387030Y-40117438D02*
X110415601Y-40069819D01*
X110415601Y-40069819D02*
X110415601Y-40165057D01*
X110215602Y-40403152D02*
X109987030Y-40403152D01*
X110129887Y-40069819D02*
X110129887Y-40926961D01*
X110129887Y-40926961D02*
X110101316Y-41022200D01*
X110101316Y-41022200D02*
X110044173Y-41069819D01*
X110044173Y-41069819D02*
X109987030Y-41069819D01*
X109787030Y-41069819D02*
X109787030Y-40069819D01*
X109529888Y-41069819D02*
X109529888Y-40546009D01*
X109529888Y-40546009D02*
X109558459Y-40450771D01*
X109558459Y-40450771D02*
X109615602Y-40403152D01*
X109615602Y-40403152D02*
X109701316Y-40403152D01*
X109701316Y-40403152D02*
X109758459Y-40450771D01*
X109758459Y-40450771D02*
X109787030Y-40498390D01*
X108987031Y-40403152D02*
X108987031Y-41069819D01*
X109244173Y-40403152D02*
X109244173Y-40926961D01*
X109244173Y-40926961D02*
X109215602Y-41022200D01*
X109215602Y-41022200D02*
X109158459Y-41069819D01*
X109158459Y-41069819D02*
X109072745Y-41069819D01*
X109072745Y-41069819D02*
X109015602Y-41022200D01*
X109015602Y-41022200D02*
X108987031Y-40974580D01*
X108701316Y-41069819D02*
X108701316Y-40069819D01*
X108701316Y-40450771D02*
X108644174Y-40403152D01*
X108644174Y-40403152D02*
X108529888Y-40403152D01*
X108529888Y-40403152D02*
X108472745Y-40450771D01*
X108472745Y-40450771D02*
X108444174Y-40498390D01*
X108444174Y-40498390D02*
X108415602Y-40593628D01*
X108415602Y-40593628D02*
X108415602Y-40879342D01*
X108415602Y-40879342D02*
X108444174Y-40974580D01*
X108444174Y-40974580D02*
X108472745Y-41022200D01*
X108472745Y-41022200D02*
X108529888Y-41069819D01*
X108529888Y-41069819D02*
X108644174Y-41069819D01*
X108644174Y-41069819D02*
X108701316Y-41022200D01*
X108158459Y-40974580D02*
X108129888Y-41022200D01*
X108129888Y-41022200D02*
X108158459Y-41069819D01*
X108158459Y-41069819D02*
X108187031Y-41022200D01*
X108187031Y-41022200D02*
X108158459Y-40974580D01*
X108158459Y-40974580D02*
X108158459Y-41069819D01*
X107615603Y-41022200D02*
X107672745Y-41069819D01*
X107672745Y-41069819D02*
X107787031Y-41069819D01*
X107787031Y-41069819D02*
X107844174Y-41022200D01*
X107844174Y-41022200D02*
X107872745Y-40974580D01*
X107872745Y-40974580D02*
X107901317Y-40879342D01*
X107901317Y-40879342D02*
X107901317Y-40593628D01*
X107901317Y-40593628D02*
X107872745Y-40498390D01*
X107872745Y-40498390D02*
X107844174Y-40450771D01*
X107844174Y-40450771D02*
X107787031Y-40403152D01*
X107787031Y-40403152D02*
X107672745Y-40403152D01*
X107672745Y-40403152D02*
X107615603Y-40450771D01*
X107272745Y-41069819D02*
X107329888Y-41022200D01*
X107329888Y-41022200D02*
X107358459Y-40974580D01*
X107358459Y-40974580D02*
X107387031Y-40879342D01*
X107387031Y-40879342D02*
X107387031Y-40593628D01*
X107387031Y-40593628D02*
X107358459Y-40498390D01*
X107358459Y-40498390D02*
X107329888Y-40450771D01*
X107329888Y-40450771D02*
X107272745Y-40403152D01*
X107272745Y-40403152D02*
X107187031Y-40403152D01*
X107187031Y-40403152D02*
X107129888Y-40450771D01*
X107129888Y-40450771D02*
X107101317Y-40498390D01*
X107101317Y-40498390D02*
X107072745Y-40593628D01*
X107072745Y-40593628D02*
X107072745Y-40879342D01*
X107072745Y-40879342D02*
X107101317Y-40974580D01*
X107101317Y-40974580D02*
X107129888Y-41022200D01*
X107129888Y-41022200D02*
X107187031Y-41069819D01*
X107187031Y-41069819D02*
X107272745Y-41069819D01*
X106815602Y-41069819D02*
X106815602Y-40403152D01*
X106815602Y-40498390D02*
X106787031Y-40450771D01*
X106787031Y-40450771D02*
X106729888Y-40403152D01*
X106729888Y-40403152D02*
X106644174Y-40403152D01*
X106644174Y-40403152D02*
X106587031Y-40450771D01*
X106587031Y-40450771D02*
X106558460Y-40546009D01*
X106558460Y-40546009D02*
X106558460Y-41069819D01*
X106558460Y-40546009D02*
X106529888Y-40450771D01*
X106529888Y-40450771D02*
X106472745Y-40403152D01*
X106472745Y-40403152D02*
X106387031Y-40403152D01*
X106387031Y-40403152D02*
X106329888Y-40450771D01*
X106329888Y-40450771D02*
X106301317Y-40546009D01*
X106301317Y-40546009D02*
X106301317Y-41069819D01*
X105587031Y-40022200D02*
X106101317Y-41307914D01*
X105129889Y-41069819D02*
X105129889Y-40069819D01*
X105129889Y-41022200D02*
X105187031Y-41069819D01*
X105187031Y-41069819D02*
X105301317Y-41069819D01*
X105301317Y-41069819D02*
X105358460Y-41022200D01*
X105358460Y-41022200D02*
X105387031Y-40974580D01*
X105387031Y-40974580D02*
X105415603Y-40879342D01*
X105415603Y-40879342D02*
X105415603Y-40593628D01*
X105415603Y-40593628D02*
X105387031Y-40498390D01*
X105387031Y-40498390D02*
X105358460Y-40450771D01*
X105358460Y-40450771D02*
X105301317Y-40403152D01*
X105301317Y-40403152D02*
X105187031Y-40403152D01*
X105187031Y-40403152D02*
X105129889Y-40450771D01*
X104901317Y-40069819D02*
X104529889Y-40069819D01*
X104529889Y-40069819D02*
X104729889Y-40450771D01*
X104729889Y-40450771D02*
X104644174Y-40450771D01*
X104644174Y-40450771D02*
X104587032Y-40498390D01*
X104587032Y-40498390D02*
X104558460Y-40546009D01*
X104558460Y-40546009D02*
X104529889Y-40641247D01*
X104529889Y-40641247D02*
X104529889Y-40879342D01*
X104529889Y-40879342D02*
X104558460Y-40974580D01*
X104558460Y-40974580D02*
X104587032Y-41022200D01*
X104587032Y-41022200D02*
X104644174Y-41069819D01*
X104644174Y-41069819D02*
X104815603Y-41069819D01*
X104815603Y-41069819D02*
X104872746Y-41022200D01*
X104872746Y-41022200D02*
X104901317Y-40974580D01*
X104272745Y-41069819D02*
X104272745Y-40403152D01*
X104272745Y-40498390D02*
X104244174Y-40450771D01*
X104244174Y-40450771D02*
X104187031Y-40403152D01*
X104187031Y-40403152D02*
X104101317Y-40403152D01*
X104101317Y-40403152D02*
X104044174Y-40450771D01*
X104044174Y-40450771D02*
X104015603Y-40546009D01*
X104015603Y-40546009D02*
X104015603Y-41069819D01*
X104015603Y-40546009D02*
X103987031Y-40450771D01*
X103987031Y-40450771D02*
X103929888Y-40403152D01*
X103929888Y-40403152D02*
X103844174Y-40403152D01*
X103844174Y-40403152D02*
X103787031Y-40450771D01*
X103787031Y-40450771D02*
X103758460Y-40546009D01*
X103758460Y-40546009D02*
X103758460Y-41069819D01*
X103387031Y-41069819D02*
X103444174Y-41022200D01*
X103444174Y-41022200D02*
X103472745Y-40974580D01*
X103472745Y-40974580D02*
X103501317Y-40879342D01*
X103501317Y-40879342D02*
X103501317Y-40593628D01*
X103501317Y-40593628D02*
X103472745Y-40498390D01*
X103472745Y-40498390D02*
X103444174Y-40450771D01*
X103444174Y-40450771D02*
X103387031Y-40403152D01*
X103387031Y-40403152D02*
X103301317Y-40403152D01*
X103301317Y-40403152D02*
X103244174Y-40450771D01*
X103244174Y-40450771D02*
X103215603Y-40498390D01*
X103215603Y-40498390D02*
X103187031Y-40593628D01*
X103187031Y-40593628D02*
X103187031Y-40879342D01*
X103187031Y-40879342D02*
X103215603Y-40974580D01*
X103215603Y-40974580D02*
X103244174Y-41022200D01*
X103244174Y-41022200D02*
X103301317Y-41069819D01*
X103301317Y-41069819D02*
X103387031Y-41069819D01*
X102844174Y-41069819D02*
X102901317Y-41022200D01*
X102901317Y-41022200D02*
X102929888Y-40926961D01*
X102929888Y-40926961D02*
X102929888Y-40069819D01*
X102615602Y-41069819D02*
X102615602Y-40403152D01*
X102615602Y-40069819D02*
X102644174Y-40117438D01*
X102644174Y-40117438D02*
X102615602Y-40165057D01*
X102615602Y-40165057D02*
X102587031Y-40117438D01*
X102587031Y-40117438D02*
X102615602Y-40069819D01*
X102615602Y-40069819D02*
X102615602Y-40165057D01*
X102415603Y-40403152D02*
X102187031Y-40403152D01*
X102329888Y-40069819D02*
X102329888Y-40926961D01*
X102329888Y-40926961D02*
X102301317Y-41022200D01*
X102301317Y-41022200D02*
X102244174Y-41069819D01*
X102244174Y-41069819D02*
X102187031Y-41069819D01*
X101758460Y-41022200D02*
X101815603Y-41069819D01*
X101815603Y-41069819D02*
X101929889Y-41069819D01*
X101929889Y-41069819D02*
X101987031Y-41022200D01*
X101987031Y-41022200D02*
X102015603Y-40926961D01*
X102015603Y-40926961D02*
X102015603Y-40546009D01*
X102015603Y-40546009D02*
X101987031Y-40450771D01*
X101987031Y-40450771D02*
X101929889Y-40403152D01*
X101929889Y-40403152D02*
X101815603Y-40403152D01*
X101815603Y-40403152D02*
X101758460Y-40450771D01*
X101758460Y-40450771D02*
X101729889Y-40546009D01*
X101729889Y-40546009D02*
X101729889Y-40641247D01*
X101729889Y-40641247D02*
X102015603Y-40736485D01*
X101044174Y-40022200D02*
X101558460Y-41307914D01*
X100558460Y-41069819D02*
X100844174Y-41069819D01*
X100844174Y-41069819D02*
X100844174Y-40069819D01*
X100358460Y-40546009D02*
X100158460Y-40546009D01*
X100072746Y-41069819D02*
X100358460Y-41069819D01*
X100358460Y-41069819D02*
X100358460Y-40069819D01*
X100358460Y-40069819D02*
X100072746Y-40069819D01*
X99815603Y-41069819D02*
X99815603Y-40069819D01*
X99815603Y-40069819D02*
X99672746Y-40069819D01*
X99672746Y-40069819D02*
X99587032Y-40117438D01*
X99587032Y-40117438D02*
X99529889Y-40212676D01*
X99529889Y-40212676D02*
X99501318Y-40307914D01*
X99501318Y-40307914D02*
X99472746Y-40498390D01*
X99472746Y-40498390D02*
X99472746Y-40641247D01*
X99472746Y-40641247D02*
X99501318Y-40831723D01*
X99501318Y-40831723D02*
X99529889Y-40926961D01*
X99529889Y-40926961D02*
X99587032Y-41022200D01*
X99587032Y-41022200D02*
X99672746Y-41069819D01*
X99672746Y-41069819D02*
X99815603Y-41069819D01*
X99215603Y-40688866D02*
X98758461Y-40688866D01*
X98472746Y-41069819D02*
X98472746Y-40069819D01*
X98472746Y-40069819D02*
X98129889Y-41069819D01*
X98129889Y-41069819D02*
X98129889Y-40069819D01*
X97844175Y-41069819D02*
X97844175Y-40403152D01*
X97844175Y-40069819D02*
X97872747Y-40117438D01*
X97872747Y-40117438D02*
X97844175Y-40165057D01*
X97844175Y-40165057D02*
X97815604Y-40117438D01*
X97815604Y-40117438D02*
X97844175Y-40069819D01*
X97844175Y-40069819D02*
X97844175Y-40165057D01*
X97615604Y-41069819D02*
X97301319Y-40403152D01*
X97615604Y-40403152D02*
X97301319Y-41069819D01*
X97072747Y-41069819D02*
X97072747Y-40403152D01*
X97072747Y-40069819D02*
X97101319Y-40117438D01*
X97101319Y-40117438D02*
X97072747Y-40165057D01*
X97072747Y-40165057D02*
X97044176Y-40117438D01*
X97044176Y-40117438D02*
X97072747Y-40069819D01*
X97072747Y-40069819D02*
X97072747Y-40165057D01*
X96558462Y-41022200D02*
X96615605Y-41069819D01*
X96615605Y-41069819D02*
X96729891Y-41069819D01*
X96729891Y-41069819D02*
X96787033Y-41022200D01*
X96787033Y-41022200D02*
X96815605Y-40926961D01*
X96815605Y-40926961D02*
X96815605Y-40546009D01*
X96815605Y-40546009D02*
X96787033Y-40450771D01*
X96787033Y-40450771D02*
X96729891Y-40403152D01*
X96729891Y-40403152D02*
X96615605Y-40403152D01*
X96615605Y-40403152D02*
X96558462Y-40450771D01*
X96558462Y-40450771D02*
X96529891Y-40546009D01*
X96529891Y-40546009D02*
X96529891Y-40641247D01*
X96529891Y-40641247D02*
X96815605Y-40736485D01*
X112654819Y-50066666D02*
X113369104Y-50066666D01*
X113369104Y-50066666D02*
X113511961Y-50019047D01*
X113511961Y-50019047D02*
X113607200Y-49923809D01*
X113607200Y-49923809D02*
X113654819Y-49780952D01*
X113654819Y-49780952D02*
X113654819Y-49685714D01*
X112750057Y-50495238D02*
X112702438Y-50542857D01*
X112702438Y-50542857D02*
X112654819Y-50638095D01*
X112654819Y-50638095D02*
X112654819Y-50876190D01*
X112654819Y-50876190D02*
X112702438Y-50971428D01*
X112702438Y-50971428D02*
X112750057Y-51019047D01*
X112750057Y-51019047D02*
X112845295Y-51066666D01*
X112845295Y-51066666D02*
X112940533Y-51066666D01*
X112940533Y-51066666D02*
X113083390Y-51019047D01*
X113083390Y-51019047D02*
X113654819Y-50447619D01*
X113654819Y-50447619D02*
X113654819Y-51066666D01*
X86154819Y-50166666D02*
X86869104Y-50166666D01*
X86869104Y-50166666D02*
X87011961Y-50119047D01*
X87011961Y-50119047D02*
X87107200Y-50023809D01*
X87107200Y-50023809D02*
X87154819Y-49880952D01*
X87154819Y-49880952D02*
X87154819Y-49785714D01*
X86154819Y-50547619D02*
X86154819Y-51166666D01*
X86154819Y-51166666D02*
X86535771Y-50833333D01*
X86535771Y-50833333D02*
X86535771Y-50976190D01*
X86535771Y-50976190D02*
X86583390Y-51071428D01*
X86583390Y-51071428D02*
X86631009Y-51119047D01*
X86631009Y-51119047D02*
X86726247Y-51166666D01*
X86726247Y-51166666D02*
X86964342Y-51166666D01*
X86964342Y-51166666D02*
X87059580Y-51119047D01*
X87059580Y-51119047D02*
X87107200Y-51071428D01*
X87107200Y-51071428D02*
X87154819Y-50976190D01*
X87154819Y-50976190D02*
X87154819Y-50690476D01*
X87154819Y-50690476D02*
X87107200Y-50595238D01*
X87107200Y-50595238D02*
X87059580Y-50547619D01*
X91633333Y-28454819D02*
X91633333Y-29169104D01*
X91633333Y-29169104D02*
X91680952Y-29311961D01*
X91680952Y-29311961D02*
X91776190Y-29407200D01*
X91776190Y-29407200D02*
X91919047Y-29454819D01*
X91919047Y-29454819D02*
X92014285Y-29454819D01*
X90728571Y-28788152D02*
X90728571Y-29454819D01*
X90966666Y-28407200D02*
X91204761Y-29121485D01*
X91204761Y-29121485D02*
X90585714Y-29121485D01*
X94294819Y-28666666D02*
X95009104Y-28666666D01*
X95009104Y-28666666D02*
X95151961Y-28619047D01*
X95151961Y-28619047D02*
X95247200Y-28523809D01*
X95247200Y-28523809D02*
X95294819Y-28380952D01*
X95294819Y-28380952D02*
X95294819Y-28285714D01*
X95294819Y-29666666D02*
X95294819Y-29095238D01*
X95294819Y-29380952D02*
X94294819Y-29380952D01*
X94294819Y-29380952D02*
X94437676Y-29285714D01*
X94437676Y-29285714D02*
X94532914Y-29190476D01*
X94532914Y-29190476D02*
X94580533Y-29095238D01*
X108933333Y-28454819D02*
X108933333Y-29169104D01*
X108933333Y-29169104D02*
X108980952Y-29311961D01*
X108980952Y-29311961D02*
X109076190Y-29407200D01*
X109076190Y-29407200D02*
X109219047Y-29454819D01*
X109219047Y-29454819D02*
X109314285Y-29454819D01*
X107980952Y-28454819D02*
X108457142Y-28454819D01*
X108457142Y-28454819D02*
X108504761Y-28931009D01*
X108504761Y-28931009D02*
X108457142Y-28883390D01*
X108457142Y-28883390D02*
X108361904Y-28835771D01*
X108361904Y-28835771D02*
X108123809Y-28835771D01*
X108123809Y-28835771D02*
X108028571Y-28883390D01*
X108028571Y-28883390D02*
X107980952Y-28931009D01*
X107980952Y-28931009D02*
X107933333Y-29026247D01*
X107933333Y-29026247D02*
X107933333Y-29264342D01*
X107933333Y-29264342D02*
X107980952Y-29359580D01*
X107980952Y-29359580D02*
X108028571Y-29407200D01*
X108028571Y-29407200D02*
X108123809Y-29454819D01*
X108123809Y-29454819D02*
X108361904Y-29454819D01*
X108361904Y-29454819D02*
X108457142Y-29407200D01*
X108457142Y-29407200D02*
X108504761Y-29359580D01*
D12*
%TO.C,J2*%
X105940000Y-49940000D02*
X107000000Y-49940000D01*
X105940000Y-51000000D02*
X105940000Y-49940000D01*
X108000000Y-52060000D02*
X108000000Y-49940000D01*
X112060000Y-49940000D02*
X108000000Y-49940000D01*
X112060000Y-52060000D02*
X108000000Y-52060000D01*
X112060000Y-52060000D02*
X112060000Y-49940000D01*
%TO.C,J3*%
X87940000Y-49940000D02*
X89000000Y-49940000D01*
X87940000Y-51000000D02*
X87940000Y-49940000D01*
X90000000Y-52060000D02*
X90000000Y-49940000D01*
X94060000Y-49940000D02*
X90000000Y-49940000D01*
X94060000Y-52060000D02*
X90000000Y-52060000D01*
X94060000Y-52060000D02*
X94060000Y-49940000D01*
%TO.C,J4*%
X87940000Y-30000000D02*
X90060000Y-30000000D01*
X87940000Y-30060000D02*
X87940000Y-30000000D01*
X87940000Y-30060000D02*
X90060000Y-30060000D01*
X89000000Y-27940000D02*
X90060000Y-27940000D01*
X90060000Y-27940000D02*
X90060000Y-29000000D01*
X90060000Y-30060000D02*
X90060000Y-30000000D01*
%TO.C,J1*%
X95840000Y-27940000D02*
X96900000Y-27940000D01*
X95840000Y-29000000D02*
X95840000Y-27940000D01*
X97900000Y-30060000D02*
X97900000Y-27940000D01*
X103960000Y-27940000D02*
X97900000Y-27940000D01*
X103960000Y-30060000D02*
X97900000Y-30060000D01*
X103960000Y-30060000D02*
X103960000Y-27940000D01*
%TO.C,J5*%
X109940000Y-30000000D02*
X112060000Y-30000000D01*
X109940000Y-30060000D02*
X109940000Y-30000000D01*
X109940000Y-30060000D02*
X112060000Y-30060000D01*
X111000000Y-27940000D02*
X112060000Y-27940000D01*
X112060000Y-27940000D02*
X112060000Y-29000000D01*
X112060000Y-30060000D02*
X112060000Y-30000000D01*
%TD*%
M02*
