%TF.GenerationSoftware,KiCad,Pcbnew,8.0.3*%
%TF.CreationDate,2024-07-13T20:36:06+02:00*%
%TF.ProjectId,Led Nixie,4c656420-4e69-4786-9965-2e6b69636164,rev?*%
%TF.SameCoordinates,Original*%
%TF.FileFunction,Copper,L2,Bot*%
%TF.FilePolarity,Positive*%
%FSLAX46Y46*%
G04 Gerber Fmt 4.6, Leading zero omitted, Abs format (unit mm)*
G04 Created by KiCad (PCBNEW 8.0.3) date 2024-07-13 20:36:06*
%MOMM*%
%LPD*%
G01*
G04 APERTURE LIST*
%TA.AperFunction,ComponentPad*%
%ADD10R,1.350000X1.350000*%
%TD*%
%TA.AperFunction,ComponentPad*%
%ADD11O,1.350000X1.350000*%
%TD*%
%TA.AperFunction,ViaPad*%
%ADD12C,0.600000*%
%TD*%
G04 APERTURE END LIST*
D10*
%TO.P,J2,1,Pin_1*%
%TO.N,Net-(D9-A)*%
X107000000Y-51000000D03*
D11*
%TO.P,J2,2,Pin_2*%
%TO.N,Net-(D11-A)*%
X109000001Y-51000000D03*
%TO.P,J2,3,Pin_3*%
%TO.N,Net-(D13-A)*%
X111000000Y-51000000D03*
%TD*%
D10*
%TO.P,J3,1,Pin_1*%
%TO.N,Net-(D15-A)*%
X89000000Y-51000000D03*
D11*
%TO.P,J3,2,Pin_2*%
%TO.N,Net-(D17-A)*%
X91000001Y-51000000D03*
%TO.P,J3,3,Pin_3*%
%TO.N,Net-(D19-A)*%
X93000000Y-51000000D03*
%TD*%
D10*
%TO.P,J4,1,Pin_1*%
%TO.N,GND*%
X89000000Y-29000000D03*
%TD*%
%TO.P,J1,1,Pin_1*%
%TO.N,Net-(D1-A)*%
X96900000Y-29000000D03*
D11*
%TO.P,J1,2,Pin_2*%
%TO.N,Net-(D3-A)*%
X98900001Y-29000000D03*
%TO.P,J1,3,Pin_3*%
%TO.N,Net-(D5-A)*%
X100900000Y-29000000D03*
%TO.P,J1,4,Pin_4*%
%TO.N,Net-(D7-A)*%
X102900000Y-29000000D03*
%TD*%
D10*
%TO.P,J5,1,Pin_1*%
%TO.N,GND*%
X111000000Y-29000000D03*
%TD*%
D12*
%TO.N,GND*%
X94400000Y-37000000D03*
X94400000Y-49000000D03*
X94400000Y-41000000D03*
X94400000Y-33000000D03*
X94400000Y-45000000D03*
%TD*%
%TA.AperFunction,Conductor*%
%TO.N,GND*%
G36*
X95700297Y-28020185D02*
G01*
X95746052Y-28072989D01*
X95755996Y-28142147D01*
X95749440Y-28167834D01*
X95730908Y-28217518D01*
X95724501Y-28277116D01*
X95724500Y-28277135D01*
X95724500Y-29722870D01*
X95724501Y-29722876D01*
X95730908Y-29782483D01*
X95781202Y-29917328D01*
X95781206Y-29917335D01*
X95867452Y-30032544D01*
X95867455Y-30032547D01*
X95982664Y-30118793D01*
X95982671Y-30118797D01*
X96117517Y-30169091D01*
X96117516Y-30169091D01*
X96124444Y-30169835D01*
X96177127Y-30175500D01*
X97622872Y-30175499D01*
X97682483Y-30169091D01*
X97817331Y-30118796D01*
X97932546Y-30032546D01*
X97994787Y-29949402D01*
X98050718Y-29907534D01*
X98120409Y-29902550D01*
X98177589Y-29932079D01*
X98188566Y-29942086D01*
X98188568Y-29942087D01*
X98188569Y-29942088D01*
X98250309Y-29980316D01*
X98373787Y-30056770D01*
X98373793Y-30056773D01*
X98396665Y-30065633D01*
X98576932Y-30135470D01*
X98791075Y-30175500D01*
X98791077Y-30175500D01*
X99008925Y-30175500D01*
X99008927Y-30175500D01*
X99223070Y-30135470D01*
X99426211Y-30056772D01*
X99611433Y-29942088D01*
X99772428Y-29795322D01*
X99801047Y-29757423D01*
X99857152Y-29715789D01*
X99926864Y-29711096D01*
X99988047Y-29744837D01*
X99998952Y-29757421D01*
X100027573Y-29795322D01*
X100188568Y-29942088D01*
X100188570Y-29942089D01*
X100188576Y-29942093D01*
X100373786Y-30056770D01*
X100373792Y-30056773D01*
X100396664Y-30065633D01*
X100576931Y-30135470D01*
X100791074Y-30175500D01*
X100791076Y-30175500D01*
X101008924Y-30175500D01*
X101008926Y-30175500D01*
X101223069Y-30135470D01*
X101426210Y-30056772D01*
X101611432Y-29942088D01*
X101772427Y-29795322D01*
X101801047Y-29757422D01*
X101857153Y-29715787D01*
X101926865Y-29711094D01*
X101988048Y-29744836D01*
X101998946Y-29757414D01*
X102027573Y-29795322D01*
X102188568Y-29942088D01*
X102188570Y-29942089D01*
X102188576Y-29942093D01*
X102373786Y-30056770D01*
X102373792Y-30056773D01*
X102396664Y-30065633D01*
X102576931Y-30135470D01*
X102791074Y-30175500D01*
X102791076Y-30175500D01*
X103008924Y-30175500D01*
X103008926Y-30175500D01*
X103223069Y-30135470D01*
X103426210Y-30056772D01*
X103611432Y-29942088D01*
X103772427Y-29795322D01*
X103903712Y-29621472D01*
X104000817Y-29426459D01*
X104060435Y-29216923D01*
X104080536Y-29000000D01*
X104060435Y-28783077D01*
X104000817Y-28573541D01*
X103903712Y-28378528D01*
X103772427Y-28204678D01*
X103772426Y-28204677D01*
X103768972Y-28200103D01*
X103770913Y-28198636D01*
X103744878Y-28145266D01*
X103753058Y-28075877D01*
X103797453Y-28021925D01*
X103863970Y-28000540D01*
X103867127Y-28000500D01*
X109733791Y-28000500D01*
X109800830Y-28020185D01*
X109846585Y-28072989D01*
X109856529Y-28142147D01*
X109849973Y-28167834D01*
X109831402Y-28217623D01*
X109831401Y-28217627D01*
X109825000Y-28277155D01*
X109825000Y-28750000D01*
X110684314Y-28750000D01*
X110679920Y-28754394D01*
X110627259Y-28845606D01*
X110600000Y-28947339D01*
X110600000Y-29052661D01*
X110627259Y-29154394D01*
X110679920Y-29245606D01*
X110684314Y-29250000D01*
X109825000Y-29250000D01*
X109825000Y-29722844D01*
X109831401Y-29782372D01*
X109831403Y-29782379D01*
X109881645Y-29917086D01*
X109881649Y-29917093D01*
X109967809Y-30032187D01*
X109967812Y-30032190D01*
X110082906Y-30118350D01*
X110082913Y-30118354D01*
X110217620Y-30168596D01*
X110217627Y-30168598D01*
X110277155Y-30174999D01*
X110277172Y-30175000D01*
X110750000Y-30175000D01*
X110750000Y-29315686D01*
X110754394Y-29320080D01*
X110845606Y-29372741D01*
X110947339Y-29400000D01*
X111052661Y-29400000D01*
X111154394Y-29372741D01*
X111245606Y-29320080D01*
X111250000Y-29315686D01*
X111250000Y-30175000D01*
X111722828Y-30175000D01*
X111722844Y-30174999D01*
X111782372Y-30168598D01*
X111782376Y-30168597D01*
X111832166Y-30150027D01*
X111901858Y-30145043D01*
X111963181Y-30178528D01*
X111996666Y-30239851D01*
X111999500Y-30266209D01*
X111999500Y-50039687D01*
X111979815Y-50106726D01*
X111927011Y-50152481D01*
X111857853Y-50162425D01*
X111794297Y-50133400D01*
X111791963Y-50131325D01*
X111755997Y-50098538D01*
X111711432Y-50057912D01*
X111711425Y-50057908D01*
X111711423Y-50057906D01*
X111526213Y-49943229D01*
X111526207Y-49943226D01*
X111441113Y-49910260D01*
X111323069Y-49864530D01*
X111108926Y-49824500D01*
X110891074Y-49824500D01*
X110676931Y-49864530D01*
X110633896Y-49881202D01*
X110473792Y-49943226D01*
X110473786Y-49943229D01*
X110288576Y-50057906D01*
X110288566Y-50057913D01*
X110127573Y-50204676D01*
X110098953Y-50242576D01*
X110042844Y-50284211D01*
X109973132Y-50288902D01*
X109911950Y-50255159D01*
X109901047Y-50242576D01*
X109872428Y-50204678D01*
X109815170Y-50152481D01*
X109738585Y-50082664D01*
X109711433Y-50057912D01*
X109711429Y-50057909D01*
X109711424Y-50057906D01*
X109526214Y-49943229D01*
X109526208Y-49943226D01*
X109441114Y-49910260D01*
X109323070Y-49864530D01*
X109108927Y-49824500D01*
X108891075Y-49824500D01*
X108676932Y-49864530D01*
X108633897Y-49881202D01*
X108473793Y-49943226D01*
X108473787Y-49943229D01*
X108288566Y-50057913D01*
X108277586Y-50067923D01*
X108214780Y-50098538D01*
X108145393Y-50090338D01*
X108094785Y-50050595D01*
X108032546Y-49967454D01*
X107999499Y-49942715D01*
X107917335Y-49881206D01*
X107917328Y-49881202D01*
X107782482Y-49830908D01*
X107782483Y-49830908D01*
X107722883Y-49824501D01*
X107722881Y-49824500D01*
X107722873Y-49824500D01*
X107722864Y-49824500D01*
X106277129Y-49824500D01*
X106277123Y-49824501D01*
X106217516Y-49830908D01*
X106082671Y-49881202D01*
X106082664Y-49881206D01*
X105967455Y-49967452D01*
X105967452Y-49967455D01*
X105881206Y-50082664D01*
X105881202Y-50082671D01*
X105830908Y-50217517D01*
X105824501Y-50277116D01*
X105824500Y-50277135D01*
X105824500Y-51722870D01*
X105824501Y-51722876D01*
X105830908Y-51782481D01*
X105849440Y-51832166D01*
X105854424Y-51901858D01*
X105820939Y-51963181D01*
X105759616Y-51996666D01*
X105733258Y-51999500D01*
X93967127Y-51999500D01*
X93900088Y-51979815D01*
X93854333Y-51927011D01*
X93844389Y-51857853D01*
X93870373Y-51800955D01*
X93868972Y-51799897D01*
X93872427Y-51795322D01*
X94003712Y-51621472D01*
X94100817Y-51426459D01*
X94160435Y-51216923D01*
X94180536Y-51000000D01*
X94160435Y-50783077D01*
X94100817Y-50573541D01*
X94003712Y-50378528D01*
X93872427Y-50204678D01*
X93815169Y-50152481D01*
X93738584Y-50082664D01*
X93711432Y-50057912D01*
X93711428Y-50057909D01*
X93711423Y-50057906D01*
X93526213Y-49943229D01*
X93526207Y-49943226D01*
X93441113Y-49910260D01*
X93323069Y-49864530D01*
X93108926Y-49824500D01*
X92891074Y-49824500D01*
X92676931Y-49864530D01*
X92633896Y-49881202D01*
X92473792Y-49943226D01*
X92473786Y-49943229D01*
X92288576Y-50057906D01*
X92288566Y-50057913D01*
X92127573Y-50204676D01*
X92098953Y-50242576D01*
X92042844Y-50284211D01*
X91973132Y-50288902D01*
X91911950Y-50255159D01*
X91901047Y-50242576D01*
X91872428Y-50204678D01*
X91815170Y-50152481D01*
X91738585Y-50082664D01*
X91711433Y-50057912D01*
X91711429Y-50057909D01*
X91711424Y-50057906D01*
X91526214Y-49943229D01*
X91526208Y-49943226D01*
X91441114Y-49910260D01*
X91323070Y-49864530D01*
X91108927Y-49824500D01*
X90891075Y-49824500D01*
X90676932Y-49864530D01*
X90633897Y-49881202D01*
X90473793Y-49943226D01*
X90473787Y-49943229D01*
X90288566Y-50057913D01*
X90277586Y-50067923D01*
X90214780Y-50098538D01*
X90145393Y-50090338D01*
X90094785Y-50050595D01*
X90032546Y-49967454D01*
X89999499Y-49942715D01*
X89917335Y-49881206D01*
X89917328Y-49881202D01*
X89782482Y-49830908D01*
X89782483Y-49830908D01*
X89722883Y-49824501D01*
X89722881Y-49824500D01*
X89722873Y-49824500D01*
X89722864Y-49824500D01*
X88277129Y-49824500D01*
X88277123Y-49824501D01*
X88217514Y-49830909D01*
X88167832Y-49849439D01*
X88098140Y-49854423D01*
X88036817Y-49820937D01*
X88003333Y-49759613D01*
X88000500Y-49733257D01*
X88000500Y-30266209D01*
X88020185Y-30199170D01*
X88072989Y-30153415D01*
X88142147Y-30143471D01*
X88167834Y-30150027D01*
X88217623Y-30168597D01*
X88217627Y-30168598D01*
X88277155Y-30174999D01*
X88277172Y-30175000D01*
X88750000Y-30175000D01*
X88750000Y-29315686D01*
X88754394Y-29320080D01*
X88845606Y-29372741D01*
X88947339Y-29400000D01*
X89052661Y-29400000D01*
X89154394Y-29372741D01*
X89245606Y-29320080D01*
X89250000Y-29315686D01*
X89250000Y-30175000D01*
X89722828Y-30175000D01*
X89722844Y-30174999D01*
X89782372Y-30168598D01*
X89782379Y-30168596D01*
X89917086Y-30118354D01*
X89917093Y-30118350D01*
X90032187Y-30032190D01*
X90032190Y-30032187D01*
X90118350Y-29917093D01*
X90118354Y-29917086D01*
X90168596Y-29782379D01*
X90168598Y-29782372D01*
X90174999Y-29722844D01*
X90175000Y-29722827D01*
X90175000Y-29250000D01*
X89315686Y-29250000D01*
X89320080Y-29245606D01*
X89372741Y-29154394D01*
X89400000Y-29052661D01*
X89400000Y-28947339D01*
X89372741Y-28845606D01*
X89320080Y-28754394D01*
X89315686Y-28750000D01*
X90175000Y-28750000D01*
X90175000Y-28277172D01*
X90174999Y-28277155D01*
X90168598Y-28217627D01*
X90168597Y-28217623D01*
X90150027Y-28167834D01*
X90145043Y-28098142D01*
X90178528Y-28036819D01*
X90239851Y-28003334D01*
X90266209Y-28000500D01*
X95633258Y-28000500D01*
X95700297Y-28020185D01*
G37*
%TD.AperFunction*%
%TD*%
M02*
