%TF.GenerationSoftware,KiCad,Pcbnew,8.0.3*%
%TF.CreationDate,2024-07-13T20:36:06+02:00*%
%TF.ProjectId,Led Nixie,4c656420-4e69-4786-9965-2e6b69636164,rev?*%
%TF.SameCoordinates,Original*%
%TF.FileFunction,Soldermask,Top*%
%TF.FilePolarity,Negative*%
%FSLAX46Y46*%
G04 Gerber Fmt 4.6, Leading zero omitted, Abs format (unit mm)*
G04 Created by KiCad (PCBNEW 8.0.3) date 2024-07-13 20:36:06*
%MOMM*%
%LPD*%
G01*
G04 APERTURE LIST*
G04 Aperture macros list*
%AMRoundRect*
0 Rectangle with rounded corners*
0 $1 Rounding radius*
0 $2 $3 $4 $5 $6 $7 $8 $9 X,Y pos of 4 corners*
0 Add a 4 corners polygon primitive as box body*
4,1,4,$2,$3,$4,$5,$6,$7,$8,$9,$2,$3,0*
0 Add four circle primitives for the rounded corners*
1,1,$1+$1,$2,$3*
1,1,$1+$1,$4,$5*
1,1,$1+$1,$6,$7*
1,1,$1+$1,$8,$9*
0 Add four rect primitives between the rounded corners*
20,1,$1+$1,$2,$3,$4,$5,0*
20,1,$1+$1,$4,$5,$6,$7,0*
20,1,$1+$1,$6,$7,$8,$9,0*
20,1,$1+$1,$8,$9,$2,$3,0*%
G04 Aperture macros list end*
%ADD10RoundRect,0.250000X-0.375000X-0.625000X0.375000X-0.625000X0.375000X0.625000X-0.375000X0.625000X0*%
%ADD11R,1.350000X1.350000*%
%ADD12O,1.350000X1.350000*%
G04 APERTURE END LIST*
D10*
%TO.C,D12*%
X96200000Y-41000000D03*
X99000000Y-41000000D03*
%TD*%
%TO.C,D10*%
X90200000Y-39000000D03*
X93000000Y-39000000D03*
%TD*%
%TO.C,D6*%
X90200000Y-35000000D03*
X93000000Y-35000000D03*
%TD*%
%TO.C,D4*%
X96250000Y-33000000D03*
X99050000Y-33000000D03*
%TD*%
%TO.C,D7*%
X100950000Y-37000000D03*
X103750000Y-37000000D03*
%TD*%
%TO.C,D16*%
X96200000Y-45000000D03*
X99000000Y-45000000D03*
%TD*%
%TO.C,D2*%
X90200000Y-31000000D03*
X93000000Y-31000000D03*
%TD*%
%TO.C,D15*%
X100950000Y-45000000D03*
X103750000Y-45000000D03*
%TD*%
%TO.C,D18*%
X90200000Y-47000000D03*
X93000000Y-47000000D03*
%TD*%
%TO.C,D5*%
X107000000Y-35000000D03*
X109800000Y-35000000D03*
%TD*%
%TO.C,D13*%
X107000000Y-43000000D03*
X109800000Y-43000000D03*
%TD*%
%TO.C,D8*%
X96200000Y-37000000D03*
X99000000Y-37000000D03*
%TD*%
%TO.C,D3*%
X100950000Y-33000000D03*
X103750000Y-33000000D03*
%TD*%
%TO.C,D14*%
X90200000Y-43000000D03*
X93000000Y-43000000D03*
%TD*%
%TO.C,D19*%
X100950000Y-49000000D03*
X103750000Y-49000000D03*
%TD*%
%TO.C,D17*%
X107000000Y-47000000D03*
X109800000Y-47000000D03*
%TD*%
%TO.C,D11*%
X100950000Y-41000000D03*
X103750000Y-41000000D03*
%TD*%
%TO.C,D20*%
X96250000Y-49000000D03*
X99050000Y-49000000D03*
%TD*%
%TO.C,D1*%
X107000000Y-31000000D03*
X109800000Y-31000000D03*
%TD*%
%TO.C,D9*%
X107000000Y-39000000D03*
X109800000Y-39000000D03*
%TD*%
D11*
%TO.C,J2*%
X107000000Y-51000000D03*
D12*
X109000001Y-51000000D03*
X111000000Y-51000000D03*
%TD*%
D11*
%TO.C,J3*%
X89000000Y-51000000D03*
D12*
X91000001Y-51000000D03*
X93000000Y-51000000D03*
%TD*%
D11*
%TO.C,J4*%
X89000000Y-29000000D03*
%TD*%
%TO.C,J1*%
X96900000Y-29000000D03*
D12*
X98900001Y-29000000D03*
X100900000Y-29000000D03*
X102900000Y-29000000D03*
%TD*%
D11*
%TO.C,J5*%
X111000000Y-29000000D03*
%TD*%
M02*
