%TF.GenerationSoftware,KiCad,Pcbnew,8.0.3*%
%TF.CreationDate,2024-07-13T20:36:06+02:00*%
%TF.ProjectId,Led Nixie,4c656420-4e69-4786-9965-2e6b69636164,rev?*%
%TF.SameCoordinates,Original*%
%TF.FileFunction,Legend,Top*%
%TF.FilePolarity,Positive*%
%FSLAX46Y46*%
G04 Gerber Fmt 4.6, Leading zero omitted, Abs format (unit mm)*
G04 Created by KiCad (PCBNEW 8.0.3) date 2024-07-13 20:36:06*
%MOMM*%
%LPD*%
G01*
G04 APERTURE LIST*
%ADD10C,0.120000*%
G04 APERTURE END LIST*
D10*
%TO.C,D12*%
X95315000Y-39865000D02*
X95315000Y-42135000D01*
X95315000Y-42135000D02*
X99200000Y-42135000D01*
X99200000Y-39865000D02*
X95315000Y-39865000D01*
%TO.C,D10*%
X89315000Y-37865000D02*
X89315000Y-40135000D01*
X89315000Y-40135000D02*
X93200000Y-40135000D01*
X93200000Y-37865000D02*
X89315000Y-37865000D01*
%TO.C,D6*%
X89315000Y-33865000D02*
X89315000Y-36135000D01*
X89315000Y-36135000D02*
X93200000Y-36135000D01*
X93200000Y-33865000D02*
X89315000Y-33865000D01*
%TO.C,D4*%
X95365000Y-31865000D02*
X95365000Y-34135000D01*
X95365000Y-34135000D02*
X99250000Y-34135000D01*
X99250000Y-31865000D02*
X95365000Y-31865000D01*
%TO.C,D7*%
X100065000Y-35865000D02*
X100065000Y-38135000D01*
X100065000Y-38135000D02*
X103950000Y-38135000D01*
X103950000Y-35865000D02*
X100065000Y-35865000D01*
%TO.C,D16*%
X95315000Y-43865000D02*
X95315000Y-46135000D01*
X95315000Y-46135000D02*
X99200000Y-46135000D01*
X99200000Y-43865000D02*
X95315000Y-43865000D01*
%TO.C,D2*%
X89315000Y-29865000D02*
X89315000Y-32135000D01*
X89315000Y-32135000D02*
X93200000Y-32135000D01*
X93200000Y-29865000D02*
X89315000Y-29865000D01*
%TO.C,D15*%
X100065000Y-43865000D02*
X100065000Y-46135000D01*
X100065000Y-46135000D02*
X103950000Y-46135000D01*
X103950000Y-43865000D02*
X100065000Y-43865000D01*
%TO.C,D18*%
X89315000Y-45865000D02*
X89315000Y-48135000D01*
X89315000Y-48135000D02*
X93200000Y-48135000D01*
X93200000Y-45865000D02*
X89315000Y-45865000D01*
%TO.C,D5*%
X106115000Y-33865000D02*
X106115000Y-36135000D01*
X106115000Y-36135000D02*
X110000000Y-36135000D01*
X110000000Y-33865000D02*
X106115000Y-33865000D01*
%TO.C,D13*%
X106115000Y-41865000D02*
X106115000Y-44135000D01*
X106115000Y-44135000D02*
X110000000Y-44135000D01*
X110000000Y-41865000D02*
X106115000Y-41865000D01*
%TO.C,D8*%
X95315000Y-35865000D02*
X95315000Y-38135000D01*
X95315000Y-38135000D02*
X99200000Y-38135000D01*
X99200000Y-35865000D02*
X95315000Y-35865000D01*
%TO.C,D3*%
X100065000Y-31865000D02*
X100065000Y-34135000D01*
X100065000Y-34135000D02*
X103950000Y-34135000D01*
X103950000Y-31865000D02*
X100065000Y-31865000D01*
%TO.C,D14*%
X89315000Y-41865000D02*
X89315000Y-44135000D01*
X89315000Y-44135000D02*
X93200000Y-44135000D01*
X93200000Y-41865000D02*
X89315000Y-41865000D01*
%TO.C,D19*%
X100065000Y-47865000D02*
X100065000Y-50135000D01*
X100065000Y-50135000D02*
X103950000Y-50135000D01*
X103950000Y-47865000D02*
X100065000Y-47865000D01*
%TO.C,D17*%
X106115000Y-45865000D02*
X106115000Y-48135000D01*
X106115000Y-48135000D02*
X110000000Y-48135000D01*
X110000000Y-45865000D02*
X106115000Y-45865000D01*
%TO.C,D11*%
X100065000Y-39865000D02*
X100065000Y-42135000D01*
X100065000Y-42135000D02*
X103950000Y-42135000D01*
X103950000Y-39865000D02*
X100065000Y-39865000D01*
%TO.C,D20*%
X95365000Y-47865000D02*
X95365000Y-50135000D01*
X95365000Y-50135000D02*
X99250000Y-50135000D01*
X99250000Y-47865000D02*
X95365000Y-47865000D01*
%TO.C,D1*%
X106115000Y-29865000D02*
X106115000Y-32135000D01*
X106115000Y-32135000D02*
X110000000Y-32135000D01*
X110000000Y-29865000D02*
X106115000Y-29865000D01*
%TO.C,D9*%
X106115000Y-37865000D02*
X106115000Y-40135000D01*
X106115000Y-40135000D02*
X110000000Y-40135000D01*
X110000000Y-37865000D02*
X106115000Y-37865000D01*
%TD*%
M02*
