%TF.GenerationSoftware,KiCad,Pcbnew,8.0.3*%
%TF.CreationDate,2024-07-13T20:36:06+02:00*%
%TF.ProjectId,Led Nixie,4c656420-4e69-4786-9965-2e6b69636164,rev?*%
%TF.SameCoordinates,Original*%
%TF.FileFunction,Copper,L1,Top*%
%TF.FilePolarity,Positive*%
%FSLAX46Y46*%
G04 Gerber Fmt 4.6, Leading zero omitted, Abs format (unit mm)*
G04 Created by KiCad (PCBNEW 8.0.3) date 2024-07-13 20:36:06*
%MOMM*%
%LPD*%
G01*
G04 APERTURE LIST*
G04 Aperture macros list*
%AMRoundRect*
0 Rectangle with rounded corners*
0 $1 Rounding radius*
0 $2 $3 $4 $5 $6 $7 $8 $9 X,Y pos of 4 corners*
0 Add a 4 corners polygon primitive as box body*
4,1,4,$2,$3,$4,$5,$6,$7,$8,$9,$2,$3,0*
0 Add four circle primitives for the rounded corners*
1,1,$1+$1,$2,$3*
1,1,$1+$1,$4,$5*
1,1,$1+$1,$6,$7*
1,1,$1+$1,$8,$9*
0 Add four rect primitives between the rounded corners*
20,1,$1+$1,$2,$3,$4,$5,0*
20,1,$1+$1,$4,$5,$6,$7,0*
20,1,$1+$1,$6,$7,$8,$9,0*
20,1,$1+$1,$8,$9,$2,$3,0*%
G04 Aperture macros list end*
%TA.AperFunction,SMDPad,CuDef*%
%ADD10RoundRect,0.250000X-0.375000X-0.625000X0.375000X-0.625000X0.375000X0.625000X-0.375000X0.625000X0*%
%TD*%
%TA.AperFunction,ComponentPad*%
%ADD11R,1.350000X1.350000*%
%TD*%
%TA.AperFunction,ComponentPad*%
%ADD12O,1.350000X1.350000*%
%TD*%
%TA.AperFunction,ViaPad*%
%ADD13C,0.600000*%
%TD*%
%TA.AperFunction,Conductor*%
%ADD14C,0.200000*%
%TD*%
G04 APERTURE END LIST*
D10*
%TO.P,D12,1,K*%
%TO.N,GND*%
X96200000Y-41000000D03*
%TO.P,D12,2,A*%
%TO.N,Net-(D11-K)*%
X99000000Y-41000000D03*
%TD*%
%TO.P,D10,1,K*%
%TO.N,GND*%
X90200000Y-39000000D03*
%TO.P,D10,2,A*%
%TO.N,Net-(D10-A)*%
X93000000Y-39000000D03*
%TD*%
%TO.P,D6,1,K*%
%TO.N,GND*%
X90200000Y-35000000D03*
%TO.P,D6,2,A*%
%TO.N,Net-(D5-K)*%
X93000000Y-35000000D03*
%TD*%
%TO.P,D4,1,K*%
%TO.N,GND*%
X96250000Y-33000000D03*
%TO.P,D4,2,A*%
%TO.N,Net-(D3-K)*%
X99050000Y-33000000D03*
%TD*%
%TO.P,D7,1,K*%
%TO.N,Net-(D7-K)*%
X100950000Y-37000000D03*
%TO.P,D7,2,A*%
%TO.N,Net-(D7-A)*%
X103750000Y-37000000D03*
%TD*%
%TO.P,D16,1,K*%
%TO.N,GND*%
X96200000Y-45000000D03*
%TO.P,D16,2,A*%
%TO.N,Net-(D15-K)*%
X99000000Y-45000000D03*
%TD*%
%TO.P,D2,1,K*%
%TO.N,GND*%
X90200000Y-31000000D03*
%TO.P,D2,2,A*%
%TO.N,Net-(D1-K)*%
X93000000Y-31000000D03*
%TD*%
%TO.P,D15,1,K*%
%TO.N,Net-(D15-K)*%
X100950000Y-45000000D03*
%TO.P,D15,2,A*%
%TO.N,Net-(D15-A)*%
X103750000Y-45000000D03*
%TD*%
%TO.P,D18,1,K*%
%TO.N,GND*%
X90200000Y-47000000D03*
%TO.P,D18,2,A*%
%TO.N,Net-(D17-K)*%
X93000000Y-47000000D03*
%TD*%
%TO.P,D5,1,K*%
%TO.N,Net-(D5-K)*%
X107000000Y-35000000D03*
%TO.P,D5,2,A*%
%TO.N,Net-(D5-A)*%
X109800000Y-35000000D03*
%TD*%
%TO.P,D13,1,K*%
%TO.N,Net-(D13-K)*%
X107000000Y-43000000D03*
%TO.P,D13,2,A*%
%TO.N,Net-(D13-A)*%
X109800000Y-43000000D03*
%TD*%
%TO.P,D8,1,K*%
%TO.N,GND*%
X96200000Y-37000000D03*
%TO.P,D8,2,A*%
%TO.N,Net-(D7-K)*%
X99000000Y-37000000D03*
%TD*%
%TO.P,D3,1,K*%
%TO.N,Net-(D3-K)*%
X100950000Y-33000000D03*
%TO.P,D3,2,A*%
%TO.N,Net-(D3-A)*%
X103750000Y-33000000D03*
%TD*%
%TO.P,D14,1,K*%
%TO.N,GND*%
X90200000Y-43000000D03*
%TO.P,D14,2,A*%
%TO.N,Net-(D13-K)*%
X93000000Y-43000000D03*
%TD*%
%TO.P,D19,1,K*%
%TO.N,Net-(D19-K)*%
X100950000Y-49000000D03*
%TO.P,D19,2,A*%
%TO.N,Net-(D19-A)*%
X103750000Y-49000000D03*
%TD*%
%TO.P,D17,1,K*%
%TO.N,Net-(D17-K)*%
X107000000Y-47000000D03*
%TO.P,D17,2,A*%
%TO.N,Net-(D17-A)*%
X109800000Y-47000000D03*
%TD*%
%TO.P,D11,1,K*%
%TO.N,Net-(D11-K)*%
X100950000Y-41000000D03*
%TO.P,D11,2,A*%
%TO.N,Net-(D11-A)*%
X103750000Y-41000000D03*
%TD*%
%TO.P,D20,1,K*%
%TO.N,GND*%
X96250000Y-49000000D03*
%TO.P,D20,2,A*%
%TO.N,Net-(D19-K)*%
X99050000Y-49000000D03*
%TD*%
%TO.P,D1,1,K*%
%TO.N,Net-(D1-K)*%
X107000000Y-31000000D03*
%TO.P,D1,2,A*%
%TO.N,Net-(D1-A)*%
X109800000Y-31000000D03*
%TD*%
%TO.P,D9,1,K*%
%TO.N,Net-(D10-A)*%
X107000000Y-39000000D03*
%TO.P,D9,2,A*%
%TO.N,Net-(D9-A)*%
X109800000Y-39000000D03*
%TD*%
D11*
%TO.P,J2,1,Pin_1*%
%TO.N,Net-(D9-A)*%
X107000000Y-51000000D03*
D12*
%TO.P,J2,2,Pin_2*%
%TO.N,Net-(D11-A)*%
X109000001Y-51000000D03*
%TO.P,J2,3,Pin_3*%
%TO.N,Net-(D13-A)*%
X111000000Y-51000000D03*
%TD*%
D11*
%TO.P,J3,1,Pin_1*%
%TO.N,Net-(D15-A)*%
X89000000Y-51000000D03*
D12*
%TO.P,J3,2,Pin_2*%
%TO.N,Net-(D17-A)*%
X91000001Y-51000000D03*
%TO.P,J3,3,Pin_3*%
%TO.N,Net-(D19-A)*%
X93000000Y-51000000D03*
%TD*%
D11*
%TO.P,J4,1,Pin_1*%
%TO.N,GND*%
X89000000Y-29000000D03*
%TD*%
%TO.P,J1,1,Pin_1*%
%TO.N,Net-(D1-A)*%
X96900000Y-29000000D03*
D12*
%TO.P,J1,2,Pin_2*%
%TO.N,Net-(D3-A)*%
X98900001Y-29000000D03*
%TO.P,J1,3,Pin_3*%
%TO.N,Net-(D5-A)*%
X100900000Y-29000000D03*
%TO.P,J1,4,Pin_4*%
%TO.N,Net-(D7-A)*%
X102900000Y-29000000D03*
%TD*%
D11*
%TO.P,J5,1,Pin_1*%
%TO.N,GND*%
X111000000Y-29000000D03*
%TD*%
D13*
%TO.N,GND*%
X94400000Y-37000000D03*
X94400000Y-49000000D03*
X94400000Y-41000000D03*
X94400000Y-33000000D03*
X94400000Y-45000000D03*
%TD*%
D14*
%TO.N,Net-(D1-K)*%
X93000000Y-31000000D02*
X107000000Y-31000000D01*
%TO.N,GND*%
X96250000Y-49000000D02*
X94400000Y-49000000D01*
X96200000Y-45000000D02*
X94400000Y-45000000D01*
X96250000Y-33000000D02*
X94400000Y-33000000D01*
X96200000Y-37000000D02*
X94400000Y-37000000D01*
X96200000Y-41000000D02*
X94400000Y-41000000D01*
%TO.N,Net-(D3-K)*%
X99050000Y-33000000D02*
X100950000Y-33000000D01*
X99000000Y-33100000D02*
X99100000Y-33100000D01*
X98900000Y-33000000D02*
X99000000Y-33100000D01*
%TO.N,Net-(D5-K)*%
X93000000Y-35000000D02*
X107000000Y-35000000D01*
%TO.N,Net-(D7-K)*%
X99000000Y-37000000D02*
X100950000Y-37000000D01*
%TO.N,Net-(D10-A)*%
X93000000Y-39000000D02*
X107000000Y-39000000D01*
%TO.N,Net-(D11-K)*%
X99000000Y-41000000D02*
X100950000Y-41000000D01*
%TO.N,Net-(D13-K)*%
X93000000Y-43000000D02*
X107000000Y-43000000D01*
%TO.N,Net-(D15-K)*%
X99000000Y-45000000D02*
X100950000Y-45000000D01*
%TO.N,Net-(D1-A)*%
X96900000Y-29000000D02*
X91600000Y-29000000D01*
X91125000Y-29475000D02*
X91125000Y-36825000D01*
X91900000Y-37600000D02*
X94151471Y-37600000D01*
X109059744Y-37525000D02*
X111200000Y-35384744D01*
X105615256Y-38600000D02*
X106690256Y-37525000D01*
X106690256Y-37525000D02*
X109059744Y-37525000D01*
X91600000Y-29000000D02*
X91125000Y-29475000D01*
X111200000Y-35384744D02*
X111200000Y-32400000D01*
X111200000Y-32400000D02*
X109800000Y-31000000D01*
X91125000Y-36825000D02*
X91900000Y-37600000D01*
X95151471Y-38600000D02*
X105615256Y-38600000D01*
X94151471Y-37600000D02*
X95151471Y-38600000D01*
%TO.N,Net-(D3-A)*%
X98900001Y-29000000D02*
X97925001Y-29975000D01*
X91525000Y-32225000D02*
X92300000Y-33000000D01*
X91525000Y-29675000D02*
X91525000Y-32225000D01*
X94751471Y-31800000D02*
X102550000Y-31800000D01*
X95475000Y-29975000D02*
X94900000Y-29400000D01*
X97925001Y-29975000D02*
X95475000Y-29975000D01*
X93551471Y-33000000D02*
X94751471Y-31800000D01*
X91800000Y-29400000D02*
X91525000Y-29675000D01*
X94900000Y-29400000D02*
X91800000Y-29400000D01*
X102550000Y-31800000D02*
X103750000Y-33000000D01*
X92300000Y-33000000D02*
X93551471Y-33000000D01*
%TO.N,Net-(D5-A)*%
X92075000Y-31859744D02*
X92408148Y-32192892D01*
X92408148Y-32192892D02*
X93792893Y-32192892D01*
X93851471Y-36700000D02*
X94726471Y-35825000D01*
X99300000Y-30600000D02*
X94384744Y-30600000D01*
X94525430Y-34175000D02*
X93775430Y-33425000D01*
X104675000Y-32140256D02*
X104675000Y-33859744D01*
X100900000Y-29000000D02*
X99300000Y-30600000D01*
X97125000Y-36925000D02*
X98375000Y-38175000D01*
X104359744Y-34175000D02*
X94525430Y-34175000D01*
X94384744Y-30600000D02*
X93609744Y-29825000D01*
X93775430Y-33425000D02*
X92224570Y-33425000D01*
X92349570Y-36700000D02*
X93851471Y-36700000D01*
X97125000Y-36140256D02*
X97125000Y-36925000D01*
X91675000Y-36025430D02*
X92349570Y-36700000D01*
X92075000Y-30140256D02*
X92075000Y-31859744D01*
X93609744Y-29825000D02*
X92390256Y-29825000D01*
X94726471Y-35825000D02*
X96809744Y-35825000D01*
X91675000Y-33974570D02*
X91675000Y-36025430D01*
X92390256Y-29825000D02*
X92075000Y-30140256D01*
X92224570Y-33425000D02*
X91675000Y-33974570D01*
X105474570Y-38175000D02*
X106524570Y-37125000D01*
X94585785Y-31400000D02*
X103934744Y-31400000D01*
X96809744Y-35825000D02*
X97125000Y-36140256D01*
X106524570Y-37125000D02*
X107675000Y-37125000D01*
X98375000Y-38175000D02*
X105474570Y-38175000D01*
X93792893Y-32192892D02*
X94585785Y-31400000D01*
X103934744Y-31400000D02*
X104675000Y-32140256D01*
X107675000Y-37125000D02*
X109800000Y-35000000D01*
X104675000Y-33859744D02*
X104359744Y-34175000D01*
%TO.N,Net-(D7-A)*%
X92390256Y-33825000D02*
X92075000Y-34140256D01*
X102900000Y-29000000D02*
X106784744Y-29000000D01*
X93609744Y-33825000D02*
X92390256Y-33825000D01*
X94500000Y-35400000D02*
X103100000Y-35400000D01*
X106784744Y-29000000D02*
X107925000Y-30140256D01*
X92075000Y-34140256D02*
X92075000Y-35859744D01*
X107925000Y-32275000D02*
X105600000Y-34600000D01*
X94384744Y-34600000D02*
X93609744Y-33825000D01*
X103100000Y-35400000D02*
X103750000Y-36050000D01*
X107925000Y-30140256D02*
X107925000Y-32275000D01*
X92515256Y-36300000D02*
X93600000Y-36300000D01*
X105600000Y-34600000D02*
X94384744Y-34600000D01*
X93600000Y-36300000D02*
X94500000Y-35400000D01*
X103750000Y-36050000D02*
X103750000Y-37000000D01*
X92075000Y-35859744D02*
X92515256Y-36300000D01*
%TO.N,Net-(D9-A)*%
X107000000Y-51000000D02*
X107621141Y-51000000D01*
X105134744Y-40600000D02*
X108200000Y-40600000D01*
X106790256Y-44575000D02*
X106007628Y-43792372D01*
X92390256Y-44175000D02*
X91600000Y-43384744D01*
X93609744Y-44175000D02*
X92390256Y-44175000D01*
X108200000Y-40600000D02*
X109800000Y-39000000D01*
X111100000Y-45565686D02*
X110109314Y-44575000D01*
X111100000Y-47521141D02*
X111100000Y-45565686D01*
X91600000Y-42200000D02*
X93975000Y-39825000D01*
X93975000Y-39825000D02*
X104359744Y-39825000D01*
X91600000Y-43384744D02*
X91600000Y-42200000D01*
X106007628Y-43792372D02*
X93992372Y-43792372D01*
X93992372Y-43792372D02*
X93609744Y-44175000D01*
X104359744Y-39825000D02*
X105134744Y-40600000D01*
X107621141Y-51000000D02*
X111100000Y-47521141D01*
X110109314Y-44575000D02*
X106790256Y-44575000D01*
%TO.N,Net-(D11-A)*%
X110275000Y-44175000D02*
X109190256Y-44175000D01*
X111500000Y-48500000D02*
X111500000Y-45400000D01*
X106784744Y-41000000D02*
X103750000Y-41000000D01*
X107925000Y-42909744D02*
X107925000Y-42140256D01*
X109000000Y-51000000D02*
X111500000Y-48500000D01*
X107925000Y-42140256D02*
X106784744Y-41000000D01*
X111500000Y-45400000D02*
X110275000Y-44175000D01*
X109190256Y-44175000D02*
X107925000Y-42909744D01*
%TO.N,Net-(D13-A)*%
X111000000Y-51000000D02*
X111900000Y-50100000D01*
X111900000Y-50100000D02*
X111900000Y-45100000D01*
X111900000Y-45100000D02*
X109800000Y-43000000D01*
%TO.N,Net-(D15-A)*%
X92390256Y-45825000D02*
X93609744Y-45825000D01*
X93609744Y-45825000D02*
X94384744Y-46600000D01*
X94384744Y-46600000D02*
X102150000Y-46600000D01*
X91600000Y-46615256D02*
X92390256Y-45825000D01*
X91600000Y-48400000D02*
X91600000Y-46615256D01*
X102150000Y-46600000D02*
X103750000Y-45000000D01*
X89000000Y-51000000D02*
X91600000Y-48400000D01*
%TO.N,Net-(D17-A)*%
X108625000Y-48175000D02*
X109800000Y-47000000D01*
X91000000Y-51000000D02*
X91975000Y-50025000D01*
X103140256Y-47825000D02*
X106025000Y-47825000D01*
X102009314Y-48955942D02*
X103140256Y-47825000D01*
X102009314Y-50175000D02*
X102009314Y-48955942D01*
X95640256Y-50175000D02*
X102009314Y-50175000D01*
X91975000Y-50025000D02*
X95490256Y-50025000D01*
X106375000Y-48175000D02*
X108625000Y-48175000D01*
X106025000Y-47825000D02*
X106375000Y-48175000D01*
X95490256Y-50025000D02*
X95640256Y-50175000D01*
%TO.N,Net-(D17-K)*%
X93000000Y-47000000D02*
X107000000Y-47000000D01*
%TO.N,Net-(D19-K)*%
X99050000Y-49000000D02*
X100950000Y-49000000D01*
%TO.N,Net-(D19-A)*%
X101750000Y-51000000D02*
X103750000Y-49000000D01*
X93000000Y-51000000D02*
X101750000Y-51000000D01*
%TD*%
%TA.AperFunction,Conductor*%
%TO.N,GND*%
G36*
X89250000Y-30094000D02*
G01*
X89230315Y-30161039D01*
X89177511Y-30206794D01*
X89126000Y-30218000D01*
X89086921Y-30218000D01*
X89085494Y-30222304D01*
X89085493Y-30222308D01*
X89075000Y-30325013D01*
X89075000Y-30750000D01*
X90326000Y-30750000D01*
X90393039Y-30769685D01*
X90438794Y-30822489D01*
X90450000Y-30874000D01*
X90450000Y-32374999D01*
X90486319Y-32411318D01*
X90483979Y-32413657D01*
X90513294Y-32447488D01*
X90524500Y-32498999D01*
X90524500Y-33501000D01*
X90504815Y-33568039D01*
X90483846Y-33586208D01*
X90486319Y-33588681D01*
X90450000Y-33625000D01*
X90450000Y-36374999D01*
X90486319Y-36411318D01*
X90483979Y-36413657D01*
X90513294Y-36447488D01*
X90524500Y-36498999D01*
X90524500Y-36738330D01*
X90524499Y-36738348D01*
X90524499Y-36904054D01*
X90524498Y-36904054D01*
X90524499Y-36904057D01*
X90565423Y-37056785D01*
X90565424Y-37056786D01*
X90578281Y-37079057D01*
X90578282Y-37079058D01*
X90644475Y-37193709D01*
X90644481Y-37193717D01*
X90763344Y-37312580D01*
X90763349Y-37312584D01*
X90856285Y-37405520D01*
X90894001Y-37443236D01*
X90927485Y-37504559D01*
X90922501Y-37574251D01*
X90880629Y-37630184D01*
X90815165Y-37654601D01*
X90767315Y-37648623D01*
X90727697Y-37635494D01*
X90727690Y-37635493D01*
X90624986Y-37625000D01*
X90450000Y-37625000D01*
X90450000Y-38750000D01*
X91324999Y-38750000D01*
X91324999Y-38325028D01*
X91324998Y-38325013D01*
X91314505Y-38222302D01*
X91301378Y-38182685D01*
X91298976Y-38112856D01*
X91334708Y-38052814D01*
X91397229Y-38021622D01*
X91466688Y-38029183D01*
X91506761Y-38055997D01*
X91531284Y-38080520D01*
X91531286Y-38080521D01*
X91531287Y-38080522D01*
X91531290Y-38080524D01*
X91587292Y-38112856D01*
X91668216Y-38159577D01*
X91783459Y-38190457D01*
X91843116Y-38226820D01*
X91873645Y-38289667D01*
X91874721Y-38322824D01*
X91874500Y-38324981D01*
X91874500Y-39675001D01*
X91874501Y-39675018D01*
X91885000Y-39777796D01*
X91885001Y-39777799D01*
X91927591Y-39906324D01*
X91940186Y-39944334D01*
X92032288Y-40093656D01*
X92156344Y-40217712D01*
X92305666Y-40309814D01*
X92366672Y-40330029D01*
X92424115Y-40369800D01*
X92450939Y-40434315D01*
X92438624Y-40503091D01*
X92415348Y-40535415D01*
X91231286Y-41719478D01*
X91231283Y-41719481D01*
X91189822Y-41760941D01*
X91128499Y-41794426D01*
X91058807Y-41789440D01*
X91037045Y-41778798D01*
X90894124Y-41690643D01*
X90894119Y-41690641D01*
X90727697Y-41635494D01*
X90727690Y-41635493D01*
X90624986Y-41625000D01*
X90450000Y-41625000D01*
X90450000Y-44374999D01*
X90624972Y-44374999D01*
X90624986Y-44374998D01*
X90727697Y-44364505D01*
X90894119Y-44309358D01*
X90894124Y-44309356D01*
X91043345Y-44217315D01*
X91167315Y-44093345D01*
X91196403Y-44046187D01*
X91248351Y-43999463D01*
X91317313Y-43988240D01*
X91381396Y-44016084D01*
X91389623Y-44023603D01*
X91675376Y-44309356D01*
X92021540Y-44655520D01*
X92021542Y-44655521D01*
X92021546Y-44655524D01*
X92158465Y-44734573D01*
X92158472Y-44734577D01*
X92311199Y-44775501D01*
X92311201Y-44775501D01*
X92476910Y-44775501D01*
X92476926Y-44775500D01*
X93523075Y-44775500D01*
X93523091Y-44775501D01*
X93530687Y-44775501D01*
X93688798Y-44775501D01*
X93688801Y-44775501D01*
X93841529Y-44734577D01*
X93891648Y-44705639D01*
X93978460Y-44655520D01*
X94090264Y-44543716D01*
X94090265Y-44543714D01*
X94204790Y-44429190D01*
X94266113Y-44395706D01*
X94292471Y-44392872D01*
X94951000Y-44392872D01*
X95018039Y-44412557D01*
X95063794Y-44465361D01*
X95075000Y-44516872D01*
X95075000Y-44750000D01*
X97324999Y-44750000D01*
X97324999Y-44516872D01*
X97344684Y-44449833D01*
X97397488Y-44404078D01*
X97448999Y-44392872D01*
X97750500Y-44392872D01*
X97817539Y-44412557D01*
X97863294Y-44465361D01*
X97874500Y-44516872D01*
X97874500Y-45675001D01*
X97874501Y-45675018D01*
X97885000Y-45777796D01*
X97904452Y-45836495D01*
X97906854Y-45906324D01*
X97871122Y-45966366D01*
X97808602Y-45997559D01*
X97786746Y-45999500D01*
X97412727Y-45999500D01*
X97345688Y-45979815D01*
X97299933Y-45927011D01*
X97289989Y-45857853D01*
X97295021Y-45836496D01*
X97314505Y-45777697D01*
X97314506Y-45777690D01*
X97324999Y-45674986D01*
X97325000Y-45674973D01*
X97325000Y-45250000D01*
X95075001Y-45250000D01*
X95075001Y-45674986D01*
X95085494Y-45777697D01*
X95104978Y-45836496D01*
X95107380Y-45906325D01*
X95071648Y-45966366D01*
X95009127Y-45997559D01*
X94987272Y-45999500D01*
X94684842Y-45999500D01*
X94617803Y-45979815D01*
X94597161Y-45963181D01*
X94097334Y-45463355D01*
X94097332Y-45463352D01*
X93978461Y-45344481D01*
X93978460Y-45344480D01*
X93891648Y-45294360D01*
X93891648Y-45294359D01*
X93891644Y-45294358D01*
X93841529Y-45265423D01*
X93688801Y-45224499D01*
X93530687Y-45224499D01*
X93523091Y-45224499D01*
X93523075Y-45224500D01*
X92476926Y-45224500D01*
X92476910Y-45224499D01*
X92469314Y-45224499D01*
X92311199Y-45224499D01*
X92234835Y-45244961D01*
X92158470Y-45265423D01*
X92158465Y-45265426D01*
X92021546Y-45344475D01*
X92021538Y-45344481D01*
X91389622Y-45976396D01*
X91328299Y-46009881D01*
X91258607Y-46004897D01*
X91202674Y-45963025D01*
X91196402Y-45953811D01*
X91167317Y-45906656D01*
X91043345Y-45782684D01*
X90894124Y-45690643D01*
X90894119Y-45690641D01*
X90727697Y-45635494D01*
X90727690Y-45635493D01*
X90624986Y-45625000D01*
X90450000Y-45625000D01*
X90450000Y-48374999D01*
X90476402Y-48374999D01*
X90543441Y-48394684D01*
X90589196Y-48447488D01*
X90599140Y-48516646D01*
X90570115Y-48580202D01*
X90564083Y-48586680D01*
X89362582Y-49788181D01*
X89301259Y-49821666D01*
X89274901Y-49824500D01*
X88277129Y-49824500D01*
X88277123Y-49824501D01*
X88217514Y-49830909D01*
X88167832Y-49849439D01*
X88098140Y-49854423D01*
X88036817Y-49820937D01*
X88003333Y-49759613D01*
X88000500Y-49733257D01*
X88000500Y-47674986D01*
X89075001Y-47674986D01*
X89085494Y-47777697D01*
X89140641Y-47944119D01*
X89140643Y-47944124D01*
X89232684Y-48093345D01*
X89356654Y-48217315D01*
X89505875Y-48309356D01*
X89505880Y-48309358D01*
X89672302Y-48364505D01*
X89672309Y-48364506D01*
X89775019Y-48374999D01*
X89949999Y-48374999D01*
X89950000Y-48374998D01*
X89950000Y-47250000D01*
X89075001Y-47250000D01*
X89075001Y-47674986D01*
X88000500Y-47674986D01*
X88000500Y-46325013D01*
X89075000Y-46325013D01*
X89075000Y-46750000D01*
X89950000Y-46750000D01*
X89950000Y-45625000D01*
X89775029Y-45625000D01*
X89775012Y-45625001D01*
X89672302Y-45635494D01*
X89505880Y-45690641D01*
X89505875Y-45690643D01*
X89356654Y-45782684D01*
X89232684Y-45906654D01*
X89140643Y-46055875D01*
X89140641Y-46055880D01*
X89085494Y-46222302D01*
X89085493Y-46222309D01*
X89075000Y-46325013D01*
X88000500Y-46325013D01*
X88000500Y-43674986D01*
X89075001Y-43674986D01*
X89085494Y-43777697D01*
X89140641Y-43944119D01*
X89140643Y-43944124D01*
X89232684Y-44093345D01*
X89356654Y-44217315D01*
X89505875Y-44309356D01*
X89505880Y-44309358D01*
X89672302Y-44364505D01*
X89672309Y-44364506D01*
X89775019Y-44374999D01*
X89949999Y-44374999D01*
X89950000Y-44374998D01*
X89950000Y-43250000D01*
X89075001Y-43250000D01*
X89075001Y-43674986D01*
X88000500Y-43674986D01*
X88000500Y-42325013D01*
X89075000Y-42325013D01*
X89075000Y-42750000D01*
X89950000Y-42750000D01*
X89950000Y-41625000D01*
X89775029Y-41625000D01*
X89775012Y-41625001D01*
X89672302Y-41635494D01*
X89505880Y-41690641D01*
X89505875Y-41690643D01*
X89356654Y-41782684D01*
X89232684Y-41906654D01*
X89140643Y-42055875D01*
X89140641Y-42055880D01*
X89085494Y-42222302D01*
X89085493Y-42222309D01*
X89075000Y-42325013D01*
X88000500Y-42325013D01*
X88000500Y-39674986D01*
X89075001Y-39674986D01*
X89085494Y-39777697D01*
X89140641Y-39944119D01*
X89140643Y-39944124D01*
X89232684Y-40093345D01*
X89356654Y-40217315D01*
X89505875Y-40309356D01*
X89505880Y-40309358D01*
X89672302Y-40364505D01*
X89672309Y-40364506D01*
X89775019Y-40374999D01*
X89949999Y-40374999D01*
X90450000Y-40374999D01*
X90624972Y-40374999D01*
X90624986Y-40374998D01*
X90727697Y-40364505D01*
X90894119Y-40309358D01*
X90894124Y-40309356D01*
X91043345Y-40217315D01*
X91167315Y-40093345D01*
X91259356Y-39944124D01*
X91259358Y-39944119D01*
X91314505Y-39777697D01*
X91314506Y-39777690D01*
X91324999Y-39674986D01*
X91325000Y-39674973D01*
X91325000Y-39250000D01*
X90450000Y-39250000D01*
X90450000Y-40374999D01*
X89949999Y-40374999D01*
X89950000Y-40374998D01*
X89950000Y-39250000D01*
X89075001Y-39250000D01*
X89075001Y-39674986D01*
X88000500Y-39674986D01*
X88000500Y-38325013D01*
X89075000Y-38325013D01*
X89075000Y-38750000D01*
X89950000Y-38750000D01*
X89950000Y-37625000D01*
X89775029Y-37625000D01*
X89775012Y-37625001D01*
X89672302Y-37635494D01*
X89505880Y-37690641D01*
X89505875Y-37690643D01*
X89356654Y-37782684D01*
X89232684Y-37906654D01*
X89140643Y-38055875D01*
X89140641Y-38055880D01*
X89085494Y-38222302D01*
X89085493Y-38222309D01*
X89075000Y-38325013D01*
X88000500Y-38325013D01*
X88000500Y-35674986D01*
X89075001Y-35674986D01*
X89085494Y-35777697D01*
X89140641Y-35944119D01*
X89140643Y-35944124D01*
X89232684Y-36093345D01*
X89356654Y-36217315D01*
X89505875Y-36309356D01*
X89505880Y-36309358D01*
X89672302Y-36364505D01*
X89672309Y-36364506D01*
X89775019Y-36374999D01*
X89949999Y-36374999D01*
X89950000Y-36374998D01*
X89950000Y-35250000D01*
X89075001Y-35250000D01*
X89075001Y-35674986D01*
X88000500Y-35674986D01*
X88000500Y-34325013D01*
X89075000Y-34325013D01*
X89075000Y-34750000D01*
X89950000Y-34750000D01*
X89950000Y-33625000D01*
X89775029Y-33625000D01*
X89775012Y-33625001D01*
X89672302Y-33635494D01*
X89505880Y-33690641D01*
X89505875Y-33690643D01*
X89356654Y-33782684D01*
X89232684Y-33906654D01*
X89140643Y-34055875D01*
X89140641Y-34055880D01*
X89085494Y-34222302D01*
X89085493Y-34222309D01*
X89075000Y-34325013D01*
X88000500Y-34325013D01*
X88000500Y-31674986D01*
X89075001Y-31674986D01*
X89085494Y-31777697D01*
X89140641Y-31944119D01*
X89140643Y-31944124D01*
X89232684Y-32093345D01*
X89356654Y-32217315D01*
X89505875Y-32309356D01*
X89505880Y-32309358D01*
X89672302Y-32364505D01*
X89672309Y-32364506D01*
X89775019Y-32374999D01*
X89949999Y-32374999D01*
X89950000Y-32374998D01*
X89950000Y-31250000D01*
X89075001Y-31250000D01*
X89075001Y-31674986D01*
X88000500Y-31674986D01*
X88000500Y-30266209D01*
X88020185Y-30199170D01*
X88072989Y-30153415D01*
X88142147Y-30143471D01*
X88167834Y-30150027D01*
X88217623Y-30168597D01*
X88217627Y-30168598D01*
X88277155Y-30174999D01*
X88277172Y-30175000D01*
X88750000Y-30175000D01*
X88750000Y-29315686D01*
X88754394Y-29320080D01*
X88845606Y-29372741D01*
X88947339Y-29400000D01*
X89052661Y-29400000D01*
X89154394Y-29372741D01*
X89245606Y-29320080D01*
X89250000Y-29315686D01*
X89250000Y-30094000D01*
G37*
%TD.AperFunction*%
%TA.AperFunction,Conductor*%
G36*
X95356516Y-47620185D02*
G01*
X95402271Y-47672989D01*
X95412215Y-47742147D01*
X95383190Y-47805703D01*
X95377158Y-47812181D01*
X95282684Y-47906654D01*
X95190643Y-48055875D01*
X95190641Y-48055880D01*
X95135494Y-48222302D01*
X95135493Y-48222309D01*
X95125000Y-48325013D01*
X95125000Y-48750000D01*
X97374999Y-48750000D01*
X97374999Y-48325028D01*
X97374998Y-48325013D01*
X97364505Y-48222302D01*
X97309358Y-48055880D01*
X97309356Y-48055875D01*
X97217315Y-47906654D01*
X97122842Y-47812181D01*
X97089357Y-47750858D01*
X97094341Y-47681166D01*
X97136213Y-47625233D01*
X97201677Y-47600816D01*
X97210523Y-47600500D01*
X98088770Y-47600500D01*
X98155809Y-47620185D01*
X98201564Y-47672989D01*
X98211508Y-47742147D01*
X98182483Y-47805703D01*
X98176451Y-47812181D01*
X98082289Y-47906342D01*
X97990187Y-48055663D01*
X97990185Y-48055668D01*
X97990115Y-48055880D01*
X97935001Y-48222203D01*
X97935001Y-48222204D01*
X97935000Y-48222204D01*
X97924500Y-48324983D01*
X97924500Y-48324991D01*
X97924500Y-48917148D01*
X97924501Y-49450500D01*
X97904816Y-49517539D01*
X97852013Y-49563294D01*
X97800501Y-49574500D01*
X97499000Y-49574500D01*
X97431961Y-49554815D01*
X97386206Y-49502011D01*
X97375000Y-49450500D01*
X97375000Y-49250000D01*
X95125001Y-49250000D01*
X95125001Y-49300500D01*
X95105316Y-49367539D01*
X95052512Y-49413294D01*
X95001001Y-49424500D01*
X91895942Y-49424500D01*
X91743214Y-49465423D01*
X91722594Y-49477328D01*
X91719598Y-49479059D01*
X91717069Y-49480519D01*
X91717062Y-49480523D01*
X91708536Y-49485445D01*
X91640636Y-49501914D01*
X91574610Y-49479059D01*
X91531421Y-49424136D01*
X91524783Y-49354583D01*
X91556802Y-49292481D01*
X91558860Y-49290374D01*
X91659244Y-49189990D01*
X91958506Y-48890727D01*
X91958511Y-48890724D01*
X91968714Y-48880520D01*
X91968716Y-48880520D01*
X92080520Y-48768716D01*
X92145874Y-48655519D01*
X92159577Y-48631785D01*
X92200500Y-48479058D01*
X92200500Y-48446685D01*
X92220185Y-48379646D01*
X92272989Y-48333891D01*
X92342147Y-48323947D01*
X92363497Y-48328977D01*
X92472203Y-48364999D01*
X92574991Y-48375500D01*
X93425008Y-48375499D01*
X93425016Y-48375498D01*
X93425019Y-48375498D01*
X93481302Y-48369748D01*
X93527797Y-48364999D01*
X93694334Y-48309814D01*
X93843656Y-48217712D01*
X93967712Y-48093656D01*
X94059814Y-47944334D01*
X94114999Y-47777797D01*
X94118641Y-47742147D01*
X94121732Y-47711897D01*
X94148129Y-47647205D01*
X94205310Y-47607054D01*
X94245090Y-47600500D01*
X95289477Y-47600500D01*
X95356516Y-47620185D01*
G37*
%TD.AperFunction*%
%TA.AperFunction,Conductor*%
G36*
X95018039Y-40445185D02*
G01*
X95063794Y-40497989D01*
X95075000Y-40549500D01*
X95075000Y-40750000D01*
X97324999Y-40750000D01*
X97324999Y-40549500D01*
X97344684Y-40482461D01*
X97397488Y-40436706D01*
X97448999Y-40425500D01*
X97750500Y-40425500D01*
X97817539Y-40445185D01*
X97863294Y-40497989D01*
X97874500Y-40549500D01*
X97874500Y-41675001D01*
X97874501Y-41675018D01*
X97885000Y-41777796D01*
X97885001Y-41777799D01*
X97927597Y-41906342D01*
X97940186Y-41944334D01*
X98032096Y-42093345D01*
X98032289Y-42093657D01*
X98126451Y-42187819D01*
X98159936Y-42249142D01*
X98154952Y-42318834D01*
X98113080Y-42374767D01*
X98047616Y-42399184D01*
X98038770Y-42399500D01*
X97160523Y-42399500D01*
X97093484Y-42379815D01*
X97047729Y-42327011D01*
X97037785Y-42257853D01*
X97066810Y-42194297D01*
X97072842Y-42187819D01*
X97167315Y-42093345D01*
X97259356Y-41944124D01*
X97259358Y-41944119D01*
X97314505Y-41777697D01*
X97314506Y-41777690D01*
X97324999Y-41674986D01*
X97325000Y-41674973D01*
X97325000Y-41250000D01*
X95075001Y-41250000D01*
X95075001Y-41674986D01*
X95085494Y-41777697D01*
X95140641Y-41944119D01*
X95140643Y-41944124D01*
X95232684Y-42093345D01*
X95327158Y-42187819D01*
X95360643Y-42249142D01*
X95355659Y-42318834D01*
X95313787Y-42374767D01*
X95248323Y-42399184D01*
X95239477Y-42399500D01*
X94245089Y-42399500D01*
X94178050Y-42379815D01*
X94132295Y-42327011D01*
X94121731Y-42288102D01*
X94119839Y-42269591D01*
X94114999Y-42222203D01*
X94059814Y-42055666D01*
X93967712Y-41906344D01*
X93843656Y-41782288D01*
X93694334Y-41690186D01*
X93527797Y-41635001D01*
X93527795Y-41635000D01*
X93425016Y-41624500D01*
X93425009Y-41624500D01*
X93324096Y-41624500D01*
X93257057Y-41604815D01*
X93211302Y-41552011D01*
X93201358Y-41482853D01*
X93230383Y-41419297D01*
X93236415Y-41412819D01*
X93680519Y-40968716D01*
X94187416Y-40461819D01*
X94248739Y-40428334D01*
X94275097Y-40425500D01*
X94951000Y-40425500D01*
X95018039Y-40445185D01*
G37*
%TD.AperFunction*%
%TA.AperFunction,Conductor*%
G36*
X94994334Y-36508885D02*
G01*
X95050267Y-36550757D01*
X95074684Y-36616221D01*
X95075000Y-36625067D01*
X95075000Y-36750000D01*
X96326000Y-36750000D01*
X96393039Y-36769685D01*
X96438794Y-36822489D01*
X96450000Y-36874000D01*
X96450000Y-37126000D01*
X96430315Y-37193039D01*
X96377511Y-37238794D01*
X96326000Y-37250000D01*
X95075000Y-37250000D01*
X95075000Y-37374933D01*
X95055315Y-37441972D01*
X95002511Y-37487727D01*
X94933352Y-37497670D01*
X94869797Y-37468644D01*
X94863319Y-37462613D01*
X94639061Y-37238355D01*
X94639059Y-37238352D01*
X94520188Y-37119481D01*
X94520183Y-37119477D01*
X94508640Y-37112813D01*
X94460425Y-37062246D01*
X94447201Y-36993639D01*
X94473169Y-36928775D01*
X94482949Y-36917755D01*
X94863320Y-36537385D01*
X94924642Y-36503901D01*
X94994334Y-36508885D01*
G37*
%TD.AperFunction*%
%TA.AperFunction,Conductor*%
G36*
X97867539Y-32420185D02*
G01*
X97913294Y-32472989D01*
X97924500Y-32524500D01*
X97924501Y-33450500D01*
X97904817Y-33517539D01*
X97852013Y-33563294D01*
X97800501Y-33574500D01*
X97499000Y-33574500D01*
X97431961Y-33554815D01*
X97386206Y-33502011D01*
X97375000Y-33450500D01*
X97375000Y-33250000D01*
X95125001Y-33250000D01*
X95125001Y-33450500D01*
X95105316Y-33517539D01*
X95052512Y-33563294D01*
X95001001Y-33574500D01*
X94825527Y-33574500D01*
X94758488Y-33554815D01*
X94737846Y-33538181D01*
X94387866Y-33188201D01*
X94354381Y-33126878D01*
X94359365Y-33057186D01*
X94387866Y-33012839D01*
X94625608Y-32775097D01*
X94913320Y-32487384D01*
X94974642Y-32453901D01*
X95044334Y-32458885D01*
X95100267Y-32500757D01*
X95124684Y-32566221D01*
X95125000Y-32575067D01*
X95125000Y-32750000D01*
X97374999Y-32750000D01*
X97374999Y-32524500D01*
X97394684Y-32457461D01*
X97447488Y-32411706D01*
X97498999Y-32400500D01*
X97800500Y-32400500D01*
X97867539Y-32420185D01*
G37*
%TD.AperFunction*%
%TA.AperFunction,Conductor*%
G36*
X111250000Y-30175000D02*
G01*
X111722828Y-30175000D01*
X111722844Y-30174999D01*
X111782372Y-30168598D01*
X111782376Y-30168597D01*
X111832166Y-30150027D01*
X111901858Y-30145043D01*
X111963181Y-30178528D01*
X111996666Y-30239851D01*
X111999500Y-30266209D01*
X111999500Y-32124050D01*
X111979815Y-32191089D01*
X111927011Y-32236844D01*
X111857853Y-32246788D01*
X111794297Y-32217763D01*
X111763643Y-32175252D01*
X111763641Y-32175254D01*
X111763625Y-32175226D01*
X111760938Y-32171500D01*
X111759578Y-32168217D01*
X111734078Y-32124050D01*
X111715302Y-32091529D01*
X111697791Y-32061199D01*
X111680521Y-32031285D01*
X111564385Y-31915149D01*
X111564374Y-31915139D01*
X110961818Y-31312583D01*
X110928333Y-31251260D01*
X110925499Y-31224902D01*
X110925499Y-30324998D01*
X110925498Y-30324981D01*
X110914999Y-30222203D01*
X110914998Y-30222200D01*
X110905752Y-30194297D01*
X110859814Y-30055666D01*
X110842354Y-30027359D01*
X110768461Y-29907558D01*
X110750000Y-29842462D01*
X110750000Y-29315686D01*
X110754394Y-29320080D01*
X110845606Y-29372741D01*
X110947339Y-29400000D01*
X111052661Y-29400000D01*
X111154394Y-29372741D01*
X111245606Y-29320080D01*
X111250000Y-29315686D01*
X111250000Y-30175000D01*
G37*
%TD.AperFunction*%
%TA.AperFunction,Conductor*%
G36*
X109800830Y-28020185D02*
G01*
X109846585Y-28072989D01*
X109856529Y-28142147D01*
X109849973Y-28167834D01*
X109831402Y-28217623D01*
X109831401Y-28217627D01*
X109825000Y-28277155D01*
X109825000Y-28750000D01*
X110684314Y-28750000D01*
X110679920Y-28754394D01*
X110627259Y-28845606D01*
X110600000Y-28947339D01*
X110600000Y-29052661D01*
X110627259Y-29154394D01*
X110679920Y-29245606D01*
X110684314Y-29250000D01*
X109825000Y-29250000D01*
X109825000Y-29500500D01*
X109805315Y-29567539D01*
X109752511Y-29613294D01*
X109701000Y-29624500D01*
X109374999Y-29624500D01*
X109374980Y-29624501D01*
X109272203Y-29635000D01*
X109272200Y-29635001D01*
X109105668Y-29690185D01*
X109105663Y-29690187D01*
X108956342Y-29782289D01*
X108832289Y-29906342D01*
X108740396Y-30055325D01*
X108688448Y-30102049D01*
X108619485Y-30113272D01*
X108555403Y-30085428D01*
X108516547Y-30027359D01*
X108515088Y-30022343D01*
X108508968Y-29999500D01*
X108484577Y-29908472D01*
X108483347Y-29906342D01*
X108405524Y-29771546D01*
X108405521Y-29771542D01*
X108405520Y-29771540D01*
X108293716Y-29659736D01*
X108293715Y-29659735D01*
X108289385Y-29655405D01*
X108289374Y-29655395D01*
X107272334Y-28638355D01*
X107272332Y-28638352D01*
X107153461Y-28519481D01*
X107153460Y-28519480D01*
X107066648Y-28469360D01*
X107066648Y-28469359D01*
X107066644Y-28469358D01*
X107016529Y-28440423D01*
X106863801Y-28399499D01*
X106705687Y-28399499D01*
X106698091Y-28399499D01*
X106698075Y-28399500D01*
X103981294Y-28399500D01*
X103914255Y-28379815D01*
X103882340Y-28350227D01*
X103782205Y-28217627D01*
X103772427Y-28204678D01*
X103772426Y-28204677D01*
X103768972Y-28200103D01*
X103770913Y-28198636D01*
X103744878Y-28145266D01*
X103753058Y-28075877D01*
X103797453Y-28021925D01*
X103863970Y-28000540D01*
X103867127Y-28000500D01*
X109733791Y-28000500D01*
X109800830Y-28020185D01*
G37*
%TD.AperFunction*%
%TA.AperFunction,Conductor*%
G36*
X95700297Y-28020185D02*
G01*
X95746052Y-28072989D01*
X95755996Y-28142147D01*
X95749440Y-28167834D01*
X95730908Y-28217518D01*
X95724501Y-28277116D01*
X95724322Y-28280452D01*
X95723065Y-28280384D01*
X95704815Y-28342539D01*
X95652011Y-28388294D01*
X95600500Y-28399500D01*
X91520940Y-28399500D01*
X91480019Y-28410464D01*
X91480019Y-28410465D01*
X91442751Y-28420451D01*
X91368214Y-28440423D01*
X91368209Y-28440426D01*
X91231290Y-28519475D01*
X91231282Y-28519481D01*
X90644479Y-29106284D01*
X90619347Y-29149815D01*
X90608724Y-29168216D01*
X90565423Y-29243215D01*
X90524499Y-29395943D01*
X90524499Y-29395945D01*
X90524499Y-29501000D01*
X90504814Y-29568039D01*
X90452010Y-29613794D01*
X90400499Y-29625000D01*
X90299000Y-29625000D01*
X90231961Y-29605315D01*
X90186206Y-29552511D01*
X90175000Y-29501000D01*
X90175000Y-29250000D01*
X89315686Y-29250000D01*
X89320080Y-29245606D01*
X89372741Y-29154394D01*
X89400000Y-29052661D01*
X89400000Y-28947339D01*
X89372741Y-28845606D01*
X89320080Y-28754394D01*
X89315686Y-28750000D01*
X90175000Y-28750000D01*
X90175000Y-28277172D01*
X90174999Y-28277155D01*
X90168598Y-28217627D01*
X90168597Y-28217623D01*
X90150027Y-28167834D01*
X90145043Y-28098142D01*
X90178528Y-28036819D01*
X90239851Y-28003334D01*
X90266209Y-28000500D01*
X95633258Y-28000500D01*
X95700297Y-28020185D01*
G37*
%TD.AperFunction*%
%TD*%
M02*
