M48
; DRILL file {KiCad 8.0.3} date 2024-07-13T20:35:24+0200
; FORMAT={-:-/ absolute / inch / decimal}
; #@! TF.CreationDate,2024-07-13T20:35:24+02:00
; #@! TF.GenerationSoftware,Kicad,Pcbnew,8.0.3
; #@! TF.FileFunction,Plated,1,2,PTH
FMAT,2
INCH
; #@! TA.AperFunction,Plated,PTH,ViaDrill
T1C0.0118
; #@! TA.AperFunction,Plated,PTH,ComponentDrill
T2C0.0315
; #@! TA.AperFunction,Plated,PTH,ComponentDrill
T3C0.0394
%
G90
G05
T1
X2.063Y-3.2047
X2.1024Y-3.2047
X2.1457Y-2.6929
X2.2598Y-2.7559
X2.4331Y-2.9803
X2.4567Y-3.0276
X2.4567Y-3.126
X2.4961Y-2.9331
X2.5276Y-2.8819
X2.5945Y-2.689
X2.6417Y-2.7559
X2.8661Y-3.126
X2.8701Y-3.0118
X2.9291Y-3.0118
T2
X2.0472Y-2.437
X2.0472Y-3.3031
X2.126Y-3.3031
X2.2047Y-3.3031
X2.3622Y-2.437
X2.4409Y-2.437
X2.5197Y-2.437
X2.5984Y-2.437
X2.7559Y-3.3031
X2.8346Y-3.3031
X2.9134Y-2.437
X2.9134Y-3.3031
T3
X2.2402Y-2.5827
X2.3386Y-3.2874
X2.3402Y-2.5827
X2.4402Y-2.5827
X2.5394Y-3.2874
X2.5402Y-2.5827
X2.6402Y-2.5827
X2.7402Y-2.5827
M30
