%TF.GenerationSoftware,KiCad,Pcbnew,8.0.3*%
%TF.CreationDate,2024-07-13T20:35:25+02:00*%
%TF.ProjectId,Shift Register Board,53686966-7420-4526-9567-697374657220,rev?*%
%TF.SameCoordinates,Original*%
%TF.FileFunction,Legend,Bot*%
%TF.FilePolarity,Positive*%
%FSLAX46Y46*%
G04 Gerber Fmt 4.6, Leading zero omitted, Abs format (unit mm)*
G04 Created by KiCad (PCBNEW 8.0.3) date 2024-07-13 20:35:25*
%MOMM*%
%LPD*%
G01*
G04 APERTURE LIST*
%ADD10C,0.150000*%
%ADD11C,0.120000*%
G04 APERTURE END LIST*
D10*
X64833333Y-80054819D02*
X64833333Y-80769104D01*
X64833333Y-80769104D02*
X64880952Y-80911961D01*
X64880952Y-80911961D02*
X64976190Y-81007200D01*
X64976190Y-81007200D02*
X65119047Y-81054819D01*
X65119047Y-81054819D02*
X65214285Y-81054819D01*
X64214285Y-80483390D02*
X64309523Y-80435771D01*
X64309523Y-80435771D02*
X64357142Y-80388152D01*
X64357142Y-80388152D02*
X64404761Y-80292914D01*
X64404761Y-80292914D02*
X64404761Y-80245295D01*
X64404761Y-80245295D02*
X64357142Y-80150057D01*
X64357142Y-80150057D02*
X64309523Y-80102438D01*
X64309523Y-80102438D02*
X64214285Y-80054819D01*
X64214285Y-80054819D02*
X64023809Y-80054819D01*
X64023809Y-80054819D02*
X63928571Y-80102438D01*
X63928571Y-80102438D02*
X63880952Y-80150057D01*
X63880952Y-80150057D02*
X63833333Y-80245295D01*
X63833333Y-80245295D02*
X63833333Y-80292914D01*
X63833333Y-80292914D02*
X63880952Y-80388152D01*
X63880952Y-80388152D02*
X63928571Y-80435771D01*
X63928571Y-80435771D02*
X64023809Y-80483390D01*
X64023809Y-80483390D02*
X64214285Y-80483390D01*
X64214285Y-80483390D02*
X64309523Y-80531009D01*
X64309523Y-80531009D02*
X64357142Y-80578628D01*
X64357142Y-80578628D02*
X64404761Y-80673866D01*
X64404761Y-80673866D02*
X64404761Y-80864342D01*
X64404761Y-80864342D02*
X64357142Y-80959580D01*
X64357142Y-80959580D02*
X64309523Y-81007200D01*
X64309523Y-81007200D02*
X64214285Y-81054819D01*
X64214285Y-81054819D02*
X64023809Y-81054819D01*
X64023809Y-81054819D02*
X63928571Y-81007200D01*
X63928571Y-81007200D02*
X63880952Y-80959580D01*
X63880952Y-80959580D02*
X63833333Y-80864342D01*
X63833333Y-80864342D02*
X63833333Y-80673866D01*
X63833333Y-80673866D02*
X63880952Y-80578628D01*
X63880952Y-80578628D02*
X63928571Y-80531009D01*
X63928571Y-80531009D02*
X64023809Y-80483390D01*
X58461904Y-67954819D02*
X58461904Y-68764342D01*
X58461904Y-68764342D02*
X58414285Y-68859580D01*
X58414285Y-68859580D02*
X58366666Y-68907200D01*
X58366666Y-68907200D02*
X58271428Y-68954819D01*
X58271428Y-68954819D02*
X58080952Y-68954819D01*
X58080952Y-68954819D02*
X57985714Y-68907200D01*
X57985714Y-68907200D02*
X57938095Y-68859580D01*
X57938095Y-68859580D02*
X57890476Y-68764342D01*
X57890476Y-68764342D02*
X57890476Y-67954819D01*
X57461904Y-68050057D02*
X57414285Y-68002438D01*
X57414285Y-68002438D02*
X57319047Y-67954819D01*
X57319047Y-67954819D02*
X57080952Y-67954819D01*
X57080952Y-67954819D02*
X56985714Y-68002438D01*
X56985714Y-68002438D02*
X56938095Y-68050057D01*
X56938095Y-68050057D02*
X56890476Y-68145295D01*
X56890476Y-68145295D02*
X56890476Y-68240533D01*
X56890476Y-68240533D02*
X56938095Y-68383390D01*
X56938095Y-68383390D02*
X57509523Y-68954819D01*
X57509523Y-68954819D02*
X56890476Y-68954819D01*
X59733333Y-80054819D02*
X59733333Y-80769104D01*
X59733333Y-80769104D02*
X59780952Y-80911961D01*
X59780952Y-80911961D02*
X59876190Y-81007200D01*
X59876190Y-81007200D02*
X60019047Y-81054819D01*
X60019047Y-81054819D02*
X60114285Y-81054819D01*
X59352380Y-80054819D02*
X58685714Y-80054819D01*
X58685714Y-80054819D02*
X59114285Y-81054819D01*
X54024819Y-65266666D02*
X54739104Y-65266666D01*
X54739104Y-65266666D02*
X54881961Y-65219047D01*
X54881961Y-65219047D02*
X54977200Y-65123809D01*
X54977200Y-65123809D02*
X55024819Y-64980952D01*
X55024819Y-64980952D02*
X55024819Y-64885714D01*
X54024819Y-66171428D02*
X54024819Y-65980952D01*
X54024819Y-65980952D02*
X54072438Y-65885714D01*
X54072438Y-65885714D02*
X54120057Y-65838095D01*
X54120057Y-65838095D02*
X54262914Y-65742857D01*
X54262914Y-65742857D02*
X54453390Y-65695238D01*
X54453390Y-65695238D02*
X54834342Y-65695238D01*
X54834342Y-65695238D02*
X54929580Y-65742857D01*
X54929580Y-65742857D02*
X54977200Y-65790476D01*
X54977200Y-65790476D02*
X55024819Y-65885714D01*
X55024819Y-65885714D02*
X55024819Y-66076190D01*
X55024819Y-66076190D02*
X54977200Y-66171428D01*
X54977200Y-66171428D02*
X54929580Y-66219047D01*
X54929580Y-66219047D02*
X54834342Y-66266666D01*
X54834342Y-66266666D02*
X54596247Y-66266666D01*
X54596247Y-66266666D02*
X54501009Y-66219047D01*
X54501009Y-66219047D02*
X54453390Y-66171428D01*
X54453390Y-66171428D02*
X54405771Y-66076190D01*
X54405771Y-66076190D02*
X54405771Y-65885714D01*
X54405771Y-65885714D02*
X54453390Y-65790476D01*
X54453390Y-65790476D02*
X54501009Y-65742857D01*
X54501009Y-65742857D02*
X54596247Y-65695238D01*
X69061904Y-67954819D02*
X69061904Y-68764342D01*
X69061904Y-68764342D02*
X69014285Y-68859580D01*
X69014285Y-68859580D02*
X68966666Y-68907200D01*
X68966666Y-68907200D02*
X68871428Y-68954819D01*
X68871428Y-68954819D02*
X68680952Y-68954819D01*
X68680952Y-68954819D02*
X68585714Y-68907200D01*
X68585714Y-68907200D02*
X68538095Y-68859580D01*
X68538095Y-68859580D02*
X68490476Y-68764342D01*
X68490476Y-68764342D02*
X68490476Y-67954819D01*
X67490476Y-68954819D02*
X68061904Y-68954819D01*
X67776190Y-68954819D02*
X67776190Y-67954819D01*
X67776190Y-67954819D02*
X67871428Y-68097676D01*
X67871428Y-68097676D02*
X67966666Y-68192914D01*
X67966666Y-68192914D02*
X68061904Y-68240533D01*
D11*
%TO.C,J8*%
X63170000Y-84770000D02*
X65830000Y-84770000D01*
X63170000Y-84830000D02*
X63170000Y-84770000D01*
X63170000Y-84830000D02*
X65830000Y-84830000D01*
X64500000Y-82170000D02*
X65830000Y-82170000D01*
X65830000Y-82170000D02*
X65830000Y-83500000D01*
X65830000Y-84830000D02*
X65830000Y-84770000D01*
%TO.C,C1*%
X51965000Y-68938747D02*
X51965000Y-69461253D01*
X53435000Y-68938747D02*
X53435000Y-69461253D01*
%TO.C,U2*%
X55750000Y-69340000D02*
X57700000Y-69340000D01*
X55750000Y-79460000D02*
X57700000Y-79460000D01*
X59650000Y-69340000D02*
X57700000Y-69340000D01*
X59650000Y-79460000D02*
X57700000Y-79460000D01*
X60400000Y-69395000D02*
X60160000Y-69065000D01*
X60640000Y-69065000D01*
X60400000Y-69395000D01*
G36*
X60400000Y-69395000D02*
G01*
X60160000Y-69065000D01*
X60640000Y-69065000D01*
X60400000Y-69395000D01*
G37*
%TO.C,J7*%
X58070000Y-84770001D02*
X60730000Y-84770001D01*
X58070000Y-84830000D02*
X58070000Y-84770001D01*
X58070000Y-84830000D02*
X60730000Y-84830000D01*
X59400000Y-82170000D02*
X60730000Y-82170000D01*
X60730000Y-82170000D02*
X60730000Y-83500000D01*
X60730000Y-84830000D02*
X60730000Y-84770001D01*
%TO.C,C2*%
X62465000Y-68938747D02*
X62465000Y-69461253D01*
X63935000Y-68938747D02*
X63935000Y-69461253D01*
%TO.C,J6*%
X55570000Y-64270000D02*
X56900000Y-64270000D01*
X55570000Y-65600000D02*
X55570000Y-64270000D01*
X58170001Y-66930000D02*
X58170001Y-64270000D01*
X70930000Y-64270000D02*
X58170001Y-64270000D01*
X70930000Y-66930000D02*
X58170001Y-66930000D01*
X70930000Y-66930000D02*
X70930000Y-64270000D01*
%TO.C,U1*%
X66350000Y-69340000D02*
X68300000Y-69340000D01*
X66350000Y-79460000D02*
X68300000Y-79460000D01*
X70250000Y-69340000D02*
X68300000Y-69340000D01*
X70250000Y-79460000D02*
X68300000Y-79460000D01*
X71000000Y-69395000D02*
X70760000Y-69065000D01*
X71240000Y-69065000D01*
X71000000Y-69395000D01*
G36*
X71000000Y-69395000D02*
G01*
X70760000Y-69065000D01*
X71240000Y-69065000D01*
X71000000Y-69395000D01*
G37*
%TD*%
M02*
