%TF.GenerationSoftware,KiCad,Pcbnew,8.0.3*%
%TF.CreationDate,2024-07-13T20:35:24+02:00*%
%TF.ProjectId,Shift Register Board,53686966-7420-4526-9567-697374657220,rev?*%
%TF.SameCoordinates,Original*%
%TF.FileFunction,Drillmap*%
%TF.FilePolarity,Positive*%
%FSLAX45Y45*%
G04 Gerber Fmt 4.5, Leading zero omitted, Abs format (unit mm)*
G04 Created by KiCad (PCBNEW 8.0.3) date 2024-07-13 20:35:24*
%MOMM*%
%LPD*%
G01*
G04 APERTURE LIST*
%ADD10C,0.050000*%
%ADD11C,0.200000*%
%ADD12C,0.100000*%
G04 APERTURE END LIST*
D10*
X5050000Y-6040000D02*
X7550000Y-6040000D01*
X7550000Y-8540000D01*
X5050000Y-8540000D01*
X5050000Y-6040000D01*
D11*
D12*
X5225000Y-8125000D02*
X5255000Y-8155000D01*
X5255000Y-8125000D02*
X5225000Y-8155000D01*
X5325000Y-8125000D02*
X5355000Y-8155000D01*
X5355000Y-8125000D02*
X5325000Y-8155000D01*
X5435000Y-6825000D02*
X5465000Y-6855000D01*
X5465000Y-6825000D02*
X5435000Y-6855000D01*
X5725000Y-6985000D02*
X5755000Y-7015000D01*
X5755000Y-6985000D02*
X5725000Y-7015000D01*
X6165000Y-7555000D02*
X6195000Y-7585000D01*
X6195000Y-7555000D02*
X6165000Y-7585000D01*
X6225000Y-7675000D02*
X6255000Y-7705000D01*
X6255000Y-7675000D02*
X6225000Y-7705000D01*
X6225000Y-7925000D02*
X6255000Y-7955000D01*
X6255000Y-7925000D02*
X6225000Y-7955000D01*
X6325000Y-7435000D02*
X6355000Y-7465000D01*
X6355000Y-7435000D02*
X6325000Y-7465000D01*
X6405000Y-7305000D02*
X6435000Y-7335000D01*
X6435000Y-7305000D02*
X6405000Y-7335000D01*
X6575000Y-6815000D02*
X6605000Y-6845000D01*
X6605000Y-6815000D02*
X6575000Y-6845000D01*
X6695000Y-6985000D02*
X6725000Y-7015000D01*
X6725000Y-6985000D02*
X6695000Y-7015000D01*
X7265000Y-7925000D02*
X7295000Y-7955000D01*
X7295000Y-7925000D02*
X7265000Y-7955000D01*
X7275000Y-7635000D02*
X7305000Y-7665000D01*
X7305000Y-7635000D02*
X7275000Y-7665000D01*
X7425000Y-7635000D02*
X7455000Y-7665000D01*
X7455000Y-7635000D02*
X7425000Y-7665000D01*
X5240000Y-6190000D02*
G75*
G02*
X5160000Y-6190000I-40000J0D01*
G01*
X5160000Y-6190000D02*
G75*
G02*
X5240000Y-6190000I40000J0D01*
G01*
X5240000Y-8390000D02*
G75*
G02*
X5160000Y-8390000I-40000J0D01*
G01*
X5160000Y-8390000D02*
G75*
G02*
X5240000Y-8390000I40000J0D01*
G01*
X5440000Y-8390000D02*
G75*
G02*
X5360000Y-8390000I-40000J0D01*
G01*
X5360000Y-8390000D02*
G75*
G02*
X5440000Y-8390000I40000J0D01*
G01*
X5640000Y-8390000D02*
G75*
G02*
X5560000Y-8390000I-40000J0D01*
G01*
X5560000Y-8390000D02*
G75*
G02*
X5640000Y-8390000I40000J0D01*
G01*
X6040000Y-6190000D02*
G75*
G02*
X5960000Y-6190000I-40000J0D01*
G01*
X5960000Y-6190000D02*
G75*
G02*
X6040000Y-6190000I40000J0D01*
G01*
X6240000Y-6190000D02*
G75*
G02*
X6160000Y-6190000I-40000J0D01*
G01*
X6160000Y-6190000D02*
G75*
G02*
X6240000Y-6190000I40000J0D01*
G01*
X6440000Y-6190000D02*
G75*
G02*
X6360000Y-6190000I-40000J0D01*
G01*
X6360000Y-6190000D02*
G75*
G02*
X6440000Y-6190000I40000J0D01*
G01*
X6640000Y-6190000D02*
G75*
G02*
X6560000Y-6190000I-40000J0D01*
G01*
X6560000Y-6190000D02*
G75*
G02*
X6640000Y-6190000I40000J0D01*
G01*
X7040000Y-8390000D02*
G75*
G02*
X6960000Y-8390000I-40000J0D01*
G01*
X6960000Y-8390000D02*
G75*
G02*
X7040000Y-8390000I40000J0D01*
G01*
X7240000Y-8390000D02*
G75*
G02*
X7160000Y-8390000I-40000J0D01*
G01*
X7160000Y-8390000D02*
G75*
G02*
X7240000Y-8390000I40000J0D01*
G01*
X7440000Y-6190000D02*
G75*
G02*
X7360000Y-6190000I-40000J0D01*
G01*
X7360000Y-6190000D02*
G75*
G02*
X7440000Y-6190000I40000J0D01*
G01*
X7440000Y-8390000D02*
G75*
G02*
X7360000Y-8390000I-40000J0D01*
G01*
X7360000Y-8390000D02*
G75*
G02*
X7440000Y-8390000I40000J0D01*
G01*
X5690000Y-6510000D02*
X5690000Y-6610000D01*
X5640000Y-6560000D02*
X5740000Y-6560000D01*
X5940000Y-8300000D02*
X5940000Y-8400000D01*
X5890000Y-8350000D02*
X5990000Y-8350000D01*
X5944000Y-6510000D02*
X5944000Y-6610000D01*
X5894000Y-6560000D02*
X5994000Y-6560000D01*
X6198000Y-6510000D02*
X6198000Y-6610000D01*
X6148000Y-6560000D02*
X6248000Y-6560000D01*
X6450000Y-8300000D02*
X6450000Y-8400000D01*
X6400000Y-8350000D02*
X6500000Y-8350000D01*
X6452000Y-6510000D02*
X6452000Y-6610000D01*
X6402000Y-6560000D02*
X6502000Y-6560000D01*
X6706000Y-6510000D02*
X6706000Y-6610000D01*
X6656000Y-6560000D02*
X6756000Y-6560000D01*
X6960000Y-6510000D02*
X6960000Y-6610000D01*
X6910000Y-6560000D02*
X7010000Y-6560000D01*
D11*
X5308277Y-8853984D02*
X5308277Y-8653984D01*
X5308277Y-8653984D02*
X5355896Y-8653984D01*
X5355896Y-8653984D02*
X5384467Y-8663508D01*
X5384467Y-8663508D02*
X5403515Y-8682555D01*
X5403515Y-8682555D02*
X5413039Y-8701603D01*
X5413039Y-8701603D02*
X5422563Y-8739698D01*
X5422563Y-8739698D02*
X5422563Y-8768270D01*
X5422563Y-8768270D02*
X5413039Y-8806365D01*
X5413039Y-8806365D02*
X5403515Y-8825412D01*
X5403515Y-8825412D02*
X5384467Y-8844460D01*
X5384467Y-8844460D02*
X5355896Y-8853984D01*
X5355896Y-8853984D02*
X5308277Y-8853984D01*
X5508277Y-8853984D02*
X5508277Y-8720650D01*
X5508277Y-8758746D02*
X5517801Y-8739698D01*
X5517801Y-8739698D02*
X5527324Y-8730174D01*
X5527324Y-8730174D02*
X5546372Y-8720650D01*
X5546372Y-8720650D02*
X5565420Y-8720650D01*
X5632086Y-8853984D02*
X5632086Y-8720650D01*
X5632086Y-8653984D02*
X5622562Y-8663508D01*
X5622562Y-8663508D02*
X5632086Y-8673031D01*
X5632086Y-8673031D02*
X5641610Y-8663508D01*
X5641610Y-8663508D02*
X5632086Y-8653984D01*
X5632086Y-8653984D02*
X5632086Y-8673031D01*
X5755896Y-8853984D02*
X5736848Y-8844460D01*
X5736848Y-8844460D02*
X5727324Y-8825412D01*
X5727324Y-8825412D02*
X5727324Y-8653984D01*
X5860658Y-8853984D02*
X5841610Y-8844460D01*
X5841610Y-8844460D02*
X5832086Y-8825412D01*
X5832086Y-8825412D02*
X5832086Y-8653984D01*
X6089229Y-8853984D02*
X6089229Y-8653984D01*
X6089229Y-8653984D02*
X6155896Y-8796841D01*
X6155896Y-8796841D02*
X6222562Y-8653984D01*
X6222562Y-8653984D02*
X6222562Y-8853984D01*
X6403515Y-8853984D02*
X6403515Y-8749222D01*
X6403515Y-8749222D02*
X6393991Y-8730174D01*
X6393991Y-8730174D02*
X6374943Y-8720650D01*
X6374943Y-8720650D02*
X6336848Y-8720650D01*
X6336848Y-8720650D02*
X6317801Y-8730174D01*
X6403515Y-8844460D02*
X6384467Y-8853984D01*
X6384467Y-8853984D02*
X6336848Y-8853984D01*
X6336848Y-8853984D02*
X6317801Y-8844460D01*
X6317801Y-8844460D02*
X6308277Y-8825412D01*
X6308277Y-8825412D02*
X6308277Y-8806365D01*
X6308277Y-8806365D02*
X6317801Y-8787317D01*
X6317801Y-8787317D02*
X6336848Y-8777793D01*
X6336848Y-8777793D02*
X6384467Y-8777793D01*
X6384467Y-8777793D02*
X6403515Y-8768270D01*
X6498753Y-8720650D02*
X6498753Y-8920650D01*
X6498753Y-8730174D02*
X6517801Y-8720650D01*
X6517801Y-8720650D02*
X6555896Y-8720650D01*
X6555896Y-8720650D02*
X6574943Y-8730174D01*
X6574943Y-8730174D02*
X6584467Y-8739698D01*
X6584467Y-8739698D02*
X6593991Y-8758746D01*
X6593991Y-8758746D02*
X6593991Y-8815889D01*
X6593991Y-8815889D02*
X6584467Y-8834936D01*
X6584467Y-8834936D02*
X6574943Y-8844460D01*
X6574943Y-8844460D02*
X6555896Y-8853984D01*
X6555896Y-8853984D02*
X6517801Y-8853984D01*
X6517801Y-8853984D02*
X6498753Y-8844460D01*
X6679705Y-8834936D02*
X6689229Y-8844460D01*
X6689229Y-8844460D02*
X6679705Y-8853984D01*
X6679705Y-8853984D02*
X6670182Y-8844460D01*
X6670182Y-8844460D02*
X6679705Y-8834936D01*
X6679705Y-8834936D02*
X6679705Y-8853984D01*
X6679705Y-8730174D02*
X6689229Y-8739698D01*
X6689229Y-8739698D02*
X6679705Y-8749222D01*
X6679705Y-8749222D02*
X6670182Y-8739698D01*
X6670182Y-8739698D02*
X6679705Y-8730174D01*
X6679705Y-8730174D02*
X6679705Y-8749222D01*
D12*
X5017500Y-9167500D02*
X5047500Y-9197500D01*
X5047500Y-9167500D02*
X5017500Y-9197500D01*
D11*
X5346372Y-9073984D02*
X5365420Y-9073984D01*
X5365420Y-9073984D02*
X5384467Y-9083508D01*
X5384467Y-9083508D02*
X5393991Y-9093031D01*
X5393991Y-9093031D02*
X5403515Y-9112079D01*
X5403515Y-9112079D02*
X5413039Y-9150174D01*
X5413039Y-9150174D02*
X5413039Y-9197793D01*
X5413039Y-9197793D02*
X5403515Y-9235889D01*
X5403515Y-9235889D02*
X5393991Y-9254936D01*
X5393991Y-9254936D02*
X5384467Y-9264460D01*
X5384467Y-9264460D02*
X5365420Y-9273984D01*
X5365420Y-9273984D02*
X5346372Y-9273984D01*
X5346372Y-9273984D02*
X5327324Y-9264460D01*
X5327324Y-9264460D02*
X5317801Y-9254936D01*
X5317801Y-9254936D02*
X5308277Y-9235889D01*
X5308277Y-9235889D02*
X5298753Y-9197793D01*
X5298753Y-9197793D02*
X5298753Y-9150174D01*
X5298753Y-9150174D02*
X5308277Y-9112079D01*
X5308277Y-9112079D02*
X5317801Y-9093031D01*
X5317801Y-9093031D02*
X5327324Y-9083508D01*
X5327324Y-9083508D02*
X5346372Y-9073984D01*
X5498753Y-9254936D02*
X5508277Y-9264460D01*
X5508277Y-9264460D02*
X5498753Y-9273984D01*
X5498753Y-9273984D02*
X5489229Y-9264460D01*
X5489229Y-9264460D02*
X5498753Y-9254936D01*
X5498753Y-9254936D02*
X5498753Y-9273984D01*
X5574944Y-9073984D02*
X5698753Y-9073984D01*
X5698753Y-9073984D02*
X5632086Y-9150174D01*
X5632086Y-9150174D02*
X5660658Y-9150174D01*
X5660658Y-9150174D02*
X5679705Y-9159698D01*
X5679705Y-9159698D02*
X5689229Y-9169222D01*
X5689229Y-9169222D02*
X5698753Y-9188270D01*
X5698753Y-9188270D02*
X5698753Y-9235889D01*
X5698753Y-9235889D02*
X5689229Y-9254936D01*
X5689229Y-9254936D02*
X5679705Y-9264460D01*
X5679705Y-9264460D02*
X5660658Y-9273984D01*
X5660658Y-9273984D02*
X5603515Y-9273984D01*
X5603515Y-9273984D02*
X5584467Y-9264460D01*
X5584467Y-9264460D02*
X5574944Y-9254936D01*
X5822562Y-9073984D02*
X5841610Y-9073984D01*
X5841610Y-9073984D02*
X5860658Y-9083508D01*
X5860658Y-9083508D02*
X5870182Y-9093031D01*
X5870182Y-9093031D02*
X5879705Y-9112079D01*
X5879705Y-9112079D02*
X5889229Y-9150174D01*
X5889229Y-9150174D02*
X5889229Y-9197793D01*
X5889229Y-9197793D02*
X5879705Y-9235889D01*
X5879705Y-9235889D02*
X5870182Y-9254936D01*
X5870182Y-9254936D02*
X5860658Y-9264460D01*
X5860658Y-9264460D02*
X5841610Y-9273984D01*
X5841610Y-9273984D02*
X5822562Y-9273984D01*
X5822562Y-9273984D02*
X5803515Y-9264460D01*
X5803515Y-9264460D02*
X5793991Y-9254936D01*
X5793991Y-9254936D02*
X5784467Y-9235889D01*
X5784467Y-9235889D02*
X5774943Y-9197793D01*
X5774943Y-9197793D02*
X5774943Y-9150174D01*
X5774943Y-9150174D02*
X5784467Y-9112079D01*
X5784467Y-9112079D02*
X5793991Y-9093031D01*
X5793991Y-9093031D02*
X5803515Y-9083508D01*
X5803515Y-9083508D02*
X5822562Y-9073984D01*
X6013039Y-9073984D02*
X6032086Y-9073984D01*
X6032086Y-9073984D02*
X6051134Y-9083508D01*
X6051134Y-9083508D02*
X6060658Y-9093031D01*
X6060658Y-9093031D02*
X6070182Y-9112079D01*
X6070182Y-9112079D02*
X6079705Y-9150174D01*
X6079705Y-9150174D02*
X6079705Y-9197793D01*
X6079705Y-9197793D02*
X6070182Y-9235889D01*
X6070182Y-9235889D02*
X6060658Y-9254936D01*
X6060658Y-9254936D02*
X6051134Y-9264460D01*
X6051134Y-9264460D02*
X6032086Y-9273984D01*
X6032086Y-9273984D02*
X6013039Y-9273984D01*
X6013039Y-9273984D02*
X5993991Y-9264460D01*
X5993991Y-9264460D02*
X5984467Y-9254936D01*
X5984467Y-9254936D02*
X5974943Y-9235889D01*
X5974943Y-9235889D02*
X5965420Y-9197793D01*
X5965420Y-9197793D02*
X5965420Y-9150174D01*
X5965420Y-9150174D02*
X5974943Y-9112079D01*
X5974943Y-9112079D02*
X5984467Y-9093031D01*
X5984467Y-9093031D02*
X5993991Y-9083508D01*
X5993991Y-9083508D02*
X6013039Y-9073984D01*
X6165420Y-9273984D02*
X6165420Y-9140650D01*
X6165420Y-9159698D02*
X6174943Y-9150174D01*
X6174943Y-9150174D02*
X6193991Y-9140650D01*
X6193991Y-9140650D02*
X6222563Y-9140650D01*
X6222563Y-9140650D02*
X6241610Y-9150174D01*
X6241610Y-9150174D02*
X6251134Y-9169222D01*
X6251134Y-9169222D02*
X6251134Y-9273984D01*
X6251134Y-9169222D02*
X6260658Y-9150174D01*
X6260658Y-9150174D02*
X6279705Y-9140650D01*
X6279705Y-9140650D02*
X6308277Y-9140650D01*
X6308277Y-9140650D02*
X6327324Y-9150174D01*
X6327324Y-9150174D02*
X6336848Y-9169222D01*
X6336848Y-9169222D02*
X6336848Y-9273984D01*
X6432086Y-9273984D02*
X6432086Y-9140650D01*
X6432086Y-9159698D02*
X6441610Y-9150174D01*
X6441610Y-9150174D02*
X6460658Y-9140650D01*
X6460658Y-9140650D02*
X6489229Y-9140650D01*
X6489229Y-9140650D02*
X6508277Y-9150174D01*
X6508277Y-9150174D02*
X6517801Y-9169222D01*
X6517801Y-9169222D02*
X6517801Y-9273984D01*
X6517801Y-9169222D02*
X6527324Y-9150174D01*
X6527324Y-9150174D02*
X6546372Y-9140650D01*
X6546372Y-9140650D02*
X6574943Y-9140650D01*
X6574943Y-9140650D02*
X6593991Y-9150174D01*
X6593991Y-9150174D02*
X6603515Y-9169222D01*
X6603515Y-9169222D02*
X6603515Y-9273984D01*
X6993991Y-9064460D02*
X6822563Y-9321603D01*
X7251134Y-9073984D02*
X7270182Y-9073984D01*
X7270182Y-9073984D02*
X7289229Y-9083508D01*
X7289229Y-9083508D02*
X7298753Y-9093031D01*
X7298753Y-9093031D02*
X7308277Y-9112079D01*
X7308277Y-9112079D02*
X7317801Y-9150174D01*
X7317801Y-9150174D02*
X7317801Y-9197793D01*
X7317801Y-9197793D02*
X7308277Y-9235889D01*
X7308277Y-9235889D02*
X7298753Y-9254936D01*
X7298753Y-9254936D02*
X7289229Y-9264460D01*
X7289229Y-9264460D02*
X7270182Y-9273984D01*
X7270182Y-9273984D02*
X7251134Y-9273984D01*
X7251134Y-9273984D02*
X7232086Y-9264460D01*
X7232086Y-9264460D02*
X7222563Y-9254936D01*
X7222563Y-9254936D02*
X7213039Y-9235889D01*
X7213039Y-9235889D02*
X7203515Y-9197793D01*
X7203515Y-9197793D02*
X7203515Y-9150174D01*
X7203515Y-9150174D02*
X7213039Y-9112079D01*
X7213039Y-9112079D02*
X7222563Y-9093031D01*
X7222563Y-9093031D02*
X7232086Y-9083508D01*
X7232086Y-9083508D02*
X7251134Y-9073984D01*
X7403515Y-9254936D02*
X7413039Y-9264460D01*
X7413039Y-9264460D02*
X7403515Y-9273984D01*
X7403515Y-9273984D02*
X7393991Y-9264460D01*
X7393991Y-9264460D02*
X7403515Y-9254936D01*
X7403515Y-9254936D02*
X7403515Y-9273984D01*
X7536848Y-9073984D02*
X7555896Y-9073984D01*
X7555896Y-9073984D02*
X7574944Y-9083508D01*
X7574944Y-9083508D02*
X7584467Y-9093031D01*
X7584467Y-9093031D02*
X7593991Y-9112079D01*
X7593991Y-9112079D02*
X7603515Y-9150174D01*
X7603515Y-9150174D02*
X7603515Y-9197793D01*
X7603515Y-9197793D02*
X7593991Y-9235889D01*
X7593991Y-9235889D02*
X7584467Y-9254936D01*
X7584467Y-9254936D02*
X7574944Y-9264460D01*
X7574944Y-9264460D02*
X7555896Y-9273984D01*
X7555896Y-9273984D02*
X7536848Y-9273984D01*
X7536848Y-9273984D02*
X7517801Y-9264460D01*
X7517801Y-9264460D02*
X7508277Y-9254936D01*
X7508277Y-9254936D02*
X7498753Y-9235889D01*
X7498753Y-9235889D02*
X7489229Y-9197793D01*
X7489229Y-9197793D02*
X7489229Y-9150174D01*
X7489229Y-9150174D02*
X7498753Y-9112079D01*
X7498753Y-9112079D02*
X7508277Y-9093031D01*
X7508277Y-9093031D02*
X7517801Y-9083508D01*
X7517801Y-9083508D02*
X7536848Y-9073984D01*
X7793991Y-9273984D02*
X7679706Y-9273984D01*
X7736848Y-9273984D02*
X7736848Y-9073984D01*
X7736848Y-9073984D02*
X7717801Y-9102555D01*
X7717801Y-9102555D02*
X7698753Y-9121603D01*
X7698753Y-9121603D02*
X7679706Y-9131127D01*
X7984467Y-9273984D02*
X7870182Y-9273984D01*
X7927325Y-9273984D02*
X7927325Y-9073984D01*
X7927325Y-9073984D02*
X7908277Y-9102555D01*
X7908277Y-9102555D02*
X7889229Y-9121603D01*
X7889229Y-9121603D02*
X7870182Y-9131127D01*
X8098753Y-9159698D02*
X8079706Y-9150174D01*
X8079706Y-9150174D02*
X8070182Y-9140650D01*
X8070182Y-9140650D02*
X8060658Y-9121603D01*
X8060658Y-9121603D02*
X8060658Y-9112079D01*
X8060658Y-9112079D02*
X8070182Y-9093031D01*
X8070182Y-9093031D02*
X8079706Y-9083508D01*
X8079706Y-9083508D02*
X8098753Y-9073984D01*
X8098753Y-9073984D02*
X8136848Y-9073984D01*
X8136848Y-9073984D02*
X8155896Y-9083508D01*
X8155896Y-9083508D02*
X8165420Y-9093031D01*
X8165420Y-9093031D02*
X8174944Y-9112079D01*
X8174944Y-9112079D02*
X8174944Y-9121603D01*
X8174944Y-9121603D02*
X8165420Y-9140650D01*
X8165420Y-9140650D02*
X8155896Y-9150174D01*
X8155896Y-9150174D02*
X8136848Y-9159698D01*
X8136848Y-9159698D02*
X8098753Y-9159698D01*
X8098753Y-9159698D02*
X8079706Y-9169222D01*
X8079706Y-9169222D02*
X8070182Y-9178746D01*
X8070182Y-9178746D02*
X8060658Y-9197793D01*
X8060658Y-9197793D02*
X8060658Y-9235889D01*
X8060658Y-9235889D02*
X8070182Y-9254936D01*
X8070182Y-9254936D02*
X8079706Y-9264460D01*
X8079706Y-9264460D02*
X8098753Y-9273984D01*
X8098753Y-9273984D02*
X8136848Y-9273984D01*
X8136848Y-9273984D02*
X8155896Y-9264460D01*
X8155896Y-9264460D02*
X8165420Y-9254936D01*
X8165420Y-9254936D02*
X8174944Y-9235889D01*
X8174944Y-9235889D02*
X8174944Y-9197793D01*
X8174944Y-9197793D02*
X8165420Y-9178746D01*
X8165420Y-9178746D02*
X8155896Y-9169222D01*
X8155896Y-9169222D02*
X8136848Y-9159698D01*
X8251134Y-9073984D02*
X8251134Y-9112079D01*
X8327325Y-9073984D02*
X8327325Y-9112079D01*
X8622563Y-9350174D02*
X8613039Y-9340650D01*
X8613039Y-9340650D02*
X8593991Y-9312079D01*
X8593991Y-9312079D02*
X8584468Y-9293031D01*
X8584468Y-9293031D02*
X8574944Y-9264460D01*
X8574944Y-9264460D02*
X8565420Y-9216841D01*
X8565420Y-9216841D02*
X8565420Y-9178746D01*
X8565420Y-9178746D02*
X8574944Y-9131127D01*
X8574944Y-9131127D02*
X8584468Y-9102555D01*
X8584468Y-9102555D02*
X8593991Y-9083508D01*
X8593991Y-9083508D02*
X8613039Y-9054936D01*
X8613039Y-9054936D02*
X8622563Y-9045412D01*
X8803515Y-9273984D02*
X8689230Y-9273984D01*
X8746372Y-9273984D02*
X8746372Y-9073984D01*
X8746372Y-9073984D02*
X8727325Y-9102555D01*
X8727325Y-9102555D02*
X8708277Y-9121603D01*
X8708277Y-9121603D02*
X8689230Y-9131127D01*
X8974944Y-9140650D02*
X8974944Y-9273984D01*
X8927325Y-9064460D02*
X8879706Y-9207317D01*
X8879706Y-9207317D02*
X9003515Y-9207317D01*
X9232087Y-9273984D02*
X9232087Y-9073984D01*
X9317801Y-9273984D02*
X9317801Y-9169222D01*
X9317801Y-9169222D02*
X9308277Y-9150174D01*
X9308277Y-9150174D02*
X9289230Y-9140650D01*
X9289230Y-9140650D02*
X9260658Y-9140650D01*
X9260658Y-9140650D02*
X9241611Y-9150174D01*
X9241611Y-9150174D02*
X9232087Y-9159698D01*
X9441611Y-9273984D02*
X9422563Y-9264460D01*
X9422563Y-9264460D02*
X9413039Y-9254936D01*
X9413039Y-9254936D02*
X9403515Y-9235889D01*
X9403515Y-9235889D02*
X9403515Y-9178746D01*
X9403515Y-9178746D02*
X9413039Y-9159698D01*
X9413039Y-9159698D02*
X9422563Y-9150174D01*
X9422563Y-9150174D02*
X9441611Y-9140650D01*
X9441611Y-9140650D02*
X9470182Y-9140650D01*
X9470182Y-9140650D02*
X9489230Y-9150174D01*
X9489230Y-9150174D02*
X9498753Y-9159698D01*
X9498753Y-9159698D02*
X9508277Y-9178746D01*
X9508277Y-9178746D02*
X9508277Y-9235889D01*
X9508277Y-9235889D02*
X9498753Y-9254936D01*
X9498753Y-9254936D02*
X9489230Y-9264460D01*
X9489230Y-9264460D02*
X9470182Y-9273984D01*
X9470182Y-9273984D02*
X9441611Y-9273984D01*
X9622563Y-9273984D02*
X9603515Y-9264460D01*
X9603515Y-9264460D02*
X9593992Y-9245412D01*
X9593992Y-9245412D02*
X9593992Y-9073984D01*
X9774944Y-9264460D02*
X9755896Y-9273984D01*
X9755896Y-9273984D02*
X9717801Y-9273984D01*
X9717801Y-9273984D02*
X9698753Y-9264460D01*
X9698753Y-9264460D02*
X9689230Y-9245412D01*
X9689230Y-9245412D02*
X9689230Y-9169222D01*
X9689230Y-9169222D02*
X9698753Y-9150174D01*
X9698753Y-9150174D02*
X9717801Y-9140650D01*
X9717801Y-9140650D02*
X9755896Y-9140650D01*
X9755896Y-9140650D02*
X9774944Y-9150174D01*
X9774944Y-9150174D02*
X9784468Y-9169222D01*
X9784468Y-9169222D02*
X9784468Y-9188270D01*
X9784468Y-9188270D02*
X9689230Y-9207317D01*
X9860658Y-9264460D02*
X9879706Y-9273984D01*
X9879706Y-9273984D02*
X9917801Y-9273984D01*
X9917801Y-9273984D02*
X9936849Y-9264460D01*
X9936849Y-9264460D02*
X9946373Y-9245412D01*
X9946373Y-9245412D02*
X9946373Y-9235889D01*
X9946373Y-9235889D02*
X9936849Y-9216841D01*
X9936849Y-9216841D02*
X9917801Y-9207317D01*
X9917801Y-9207317D02*
X9889230Y-9207317D01*
X9889230Y-9207317D02*
X9870182Y-9197793D01*
X9870182Y-9197793D02*
X9860658Y-9178746D01*
X9860658Y-9178746D02*
X9860658Y-9169222D01*
X9860658Y-9169222D02*
X9870182Y-9150174D01*
X9870182Y-9150174D02*
X9889230Y-9140650D01*
X9889230Y-9140650D02*
X9917801Y-9140650D01*
X9917801Y-9140650D02*
X9936849Y-9150174D01*
X10013039Y-9350174D02*
X10022563Y-9340650D01*
X10022563Y-9340650D02*
X10041611Y-9312079D01*
X10041611Y-9312079D02*
X10051134Y-9293031D01*
X10051134Y-9293031D02*
X10060658Y-9264460D01*
X10060658Y-9264460D02*
X10070182Y-9216841D01*
X10070182Y-9216841D02*
X10070182Y-9178746D01*
X10070182Y-9178746D02*
X10060658Y-9131127D01*
X10060658Y-9131127D02*
X10051134Y-9102555D01*
X10051134Y-9102555D02*
X10041611Y-9083508D01*
X10041611Y-9083508D02*
X10022563Y-9054936D01*
X10022563Y-9054936D02*
X10013039Y-9045412D01*
D12*
X5047500Y-9446500D02*
G75*
G02*
X4967500Y-9446500I-40000J0D01*
G01*
X4967500Y-9446500D02*
G75*
G02*
X5047500Y-9446500I40000J0D01*
G01*
D11*
X5346372Y-9337984D02*
X5365420Y-9337984D01*
X5365420Y-9337984D02*
X5384467Y-9347508D01*
X5384467Y-9347508D02*
X5393991Y-9357031D01*
X5393991Y-9357031D02*
X5403515Y-9376079D01*
X5403515Y-9376079D02*
X5413039Y-9414174D01*
X5413039Y-9414174D02*
X5413039Y-9461793D01*
X5413039Y-9461793D02*
X5403515Y-9499889D01*
X5403515Y-9499889D02*
X5393991Y-9518936D01*
X5393991Y-9518936D02*
X5384467Y-9528460D01*
X5384467Y-9528460D02*
X5365420Y-9537984D01*
X5365420Y-9537984D02*
X5346372Y-9537984D01*
X5346372Y-9537984D02*
X5327324Y-9528460D01*
X5327324Y-9528460D02*
X5317801Y-9518936D01*
X5317801Y-9518936D02*
X5308277Y-9499889D01*
X5308277Y-9499889D02*
X5298753Y-9461793D01*
X5298753Y-9461793D02*
X5298753Y-9414174D01*
X5298753Y-9414174D02*
X5308277Y-9376079D01*
X5308277Y-9376079D02*
X5317801Y-9357031D01*
X5317801Y-9357031D02*
X5327324Y-9347508D01*
X5327324Y-9347508D02*
X5346372Y-9337984D01*
X5498753Y-9518936D02*
X5508277Y-9528460D01*
X5508277Y-9528460D02*
X5498753Y-9537984D01*
X5498753Y-9537984D02*
X5489229Y-9528460D01*
X5489229Y-9528460D02*
X5498753Y-9518936D01*
X5498753Y-9518936D02*
X5498753Y-9537984D01*
X5622562Y-9423698D02*
X5603515Y-9414174D01*
X5603515Y-9414174D02*
X5593991Y-9404650D01*
X5593991Y-9404650D02*
X5584467Y-9385603D01*
X5584467Y-9385603D02*
X5584467Y-9376079D01*
X5584467Y-9376079D02*
X5593991Y-9357031D01*
X5593991Y-9357031D02*
X5603515Y-9347508D01*
X5603515Y-9347508D02*
X5622562Y-9337984D01*
X5622562Y-9337984D02*
X5660658Y-9337984D01*
X5660658Y-9337984D02*
X5679705Y-9347508D01*
X5679705Y-9347508D02*
X5689229Y-9357031D01*
X5689229Y-9357031D02*
X5698753Y-9376079D01*
X5698753Y-9376079D02*
X5698753Y-9385603D01*
X5698753Y-9385603D02*
X5689229Y-9404650D01*
X5689229Y-9404650D02*
X5679705Y-9414174D01*
X5679705Y-9414174D02*
X5660658Y-9423698D01*
X5660658Y-9423698D02*
X5622562Y-9423698D01*
X5622562Y-9423698D02*
X5603515Y-9433222D01*
X5603515Y-9433222D02*
X5593991Y-9442746D01*
X5593991Y-9442746D02*
X5584467Y-9461793D01*
X5584467Y-9461793D02*
X5584467Y-9499889D01*
X5584467Y-9499889D02*
X5593991Y-9518936D01*
X5593991Y-9518936D02*
X5603515Y-9528460D01*
X5603515Y-9528460D02*
X5622562Y-9537984D01*
X5622562Y-9537984D02*
X5660658Y-9537984D01*
X5660658Y-9537984D02*
X5679705Y-9528460D01*
X5679705Y-9528460D02*
X5689229Y-9518936D01*
X5689229Y-9518936D02*
X5698753Y-9499889D01*
X5698753Y-9499889D02*
X5698753Y-9461793D01*
X5698753Y-9461793D02*
X5689229Y-9442746D01*
X5689229Y-9442746D02*
X5679705Y-9433222D01*
X5679705Y-9433222D02*
X5660658Y-9423698D01*
X5822562Y-9337984D02*
X5841610Y-9337984D01*
X5841610Y-9337984D02*
X5860658Y-9347508D01*
X5860658Y-9347508D02*
X5870182Y-9357031D01*
X5870182Y-9357031D02*
X5879705Y-9376079D01*
X5879705Y-9376079D02*
X5889229Y-9414174D01*
X5889229Y-9414174D02*
X5889229Y-9461793D01*
X5889229Y-9461793D02*
X5879705Y-9499889D01*
X5879705Y-9499889D02*
X5870182Y-9518936D01*
X5870182Y-9518936D02*
X5860658Y-9528460D01*
X5860658Y-9528460D02*
X5841610Y-9537984D01*
X5841610Y-9537984D02*
X5822562Y-9537984D01*
X5822562Y-9537984D02*
X5803515Y-9528460D01*
X5803515Y-9528460D02*
X5793991Y-9518936D01*
X5793991Y-9518936D02*
X5784467Y-9499889D01*
X5784467Y-9499889D02*
X5774943Y-9461793D01*
X5774943Y-9461793D02*
X5774943Y-9414174D01*
X5774943Y-9414174D02*
X5784467Y-9376079D01*
X5784467Y-9376079D02*
X5793991Y-9357031D01*
X5793991Y-9357031D02*
X5803515Y-9347508D01*
X5803515Y-9347508D02*
X5822562Y-9337984D01*
X6013039Y-9337984D02*
X6032086Y-9337984D01*
X6032086Y-9337984D02*
X6051134Y-9347508D01*
X6051134Y-9347508D02*
X6060658Y-9357031D01*
X6060658Y-9357031D02*
X6070182Y-9376079D01*
X6070182Y-9376079D02*
X6079705Y-9414174D01*
X6079705Y-9414174D02*
X6079705Y-9461793D01*
X6079705Y-9461793D02*
X6070182Y-9499889D01*
X6070182Y-9499889D02*
X6060658Y-9518936D01*
X6060658Y-9518936D02*
X6051134Y-9528460D01*
X6051134Y-9528460D02*
X6032086Y-9537984D01*
X6032086Y-9537984D02*
X6013039Y-9537984D01*
X6013039Y-9537984D02*
X5993991Y-9528460D01*
X5993991Y-9528460D02*
X5984467Y-9518936D01*
X5984467Y-9518936D02*
X5974943Y-9499889D01*
X5974943Y-9499889D02*
X5965420Y-9461793D01*
X5965420Y-9461793D02*
X5965420Y-9414174D01*
X5965420Y-9414174D02*
X5974943Y-9376079D01*
X5974943Y-9376079D02*
X5984467Y-9357031D01*
X5984467Y-9357031D02*
X5993991Y-9347508D01*
X5993991Y-9347508D02*
X6013039Y-9337984D01*
X6165420Y-9537984D02*
X6165420Y-9404650D01*
X6165420Y-9423698D02*
X6174943Y-9414174D01*
X6174943Y-9414174D02*
X6193991Y-9404650D01*
X6193991Y-9404650D02*
X6222563Y-9404650D01*
X6222563Y-9404650D02*
X6241610Y-9414174D01*
X6241610Y-9414174D02*
X6251134Y-9433222D01*
X6251134Y-9433222D02*
X6251134Y-9537984D01*
X6251134Y-9433222D02*
X6260658Y-9414174D01*
X6260658Y-9414174D02*
X6279705Y-9404650D01*
X6279705Y-9404650D02*
X6308277Y-9404650D01*
X6308277Y-9404650D02*
X6327324Y-9414174D01*
X6327324Y-9414174D02*
X6336848Y-9433222D01*
X6336848Y-9433222D02*
X6336848Y-9537984D01*
X6432086Y-9537984D02*
X6432086Y-9404650D01*
X6432086Y-9423698D02*
X6441610Y-9414174D01*
X6441610Y-9414174D02*
X6460658Y-9404650D01*
X6460658Y-9404650D02*
X6489229Y-9404650D01*
X6489229Y-9404650D02*
X6508277Y-9414174D01*
X6508277Y-9414174D02*
X6517801Y-9433222D01*
X6517801Y-9433222D02*
X6517801Y-9537984D01*
X6517801Y-9433222D02*
X6527324Y-9414174D01*
X6527324Y-9414174D02*
X6546372Y-9404650D01*
X6546372Y-9404650D02*
X6574943Y-9404650D01*
X6574943Y-9404650D02*
X6593991Y-9414174D01*
X6593991Y-9414174D02*
X6603515Y-9433222D01*
X6603515Y-9433222D02*
X6603515Y-9537984D01*
X6993991Y-9328460D02*
X6822563Y-9585603D01*
X7251134Y-9337984D02*
X7270182Y-9337984D01*
X7270182Y-9337984D02*
X7289229Y-9347508D01*
X7289229Y-9347508D02*
X7298753Y-9357031D01*
X7298753Y-9357031D02*
X7308277Y-9376079D01*
X7308277Y-9376079D02*
X7317801Y-9414174D01*
X7317801Y-9414174D02*
X7317801Y-9461793D01*
X7317801Y-9461793D02*
X7308277Y-9499889D01*
X7308277Y-9499889D02*
X7298753Y-9518936D01*
X7298753Y-9518936D02*
X7289229Y-9528460D01*
X7289229Y-9528460D02*
X7270182Y-9537984D01*
X7270182Y-9537984D02*
X7251134Y-9537984D01*
X7251134Y-9537984D02*
X7232086Y-9528460D01*
X7232086Y-9528460D02*
X7222563Y-9518936D01*
X7222563Y-9518936D02*
X7213039Y-9499889D01*
X7213039Y-9499889D02*
X7203515Y-9461793D01*
X7203515Y-9461793D02*
X7203515Y-9414174D01*
X7203515Y-9414174D02*
X7213039Y-9376079D01*
X7213039Y-9376079D02*
X7222563Y-9357031D01*
X7222563Y-9357031D02*
X7232086Y-9347508D01*
X7232086Y-9347508D02*
X7251134Y-9337984D01*
X7403515Y-9518936D02*
X7413039Y-9528460D01*
X7413039Y-9528460D02*
X7403515Y-9537984D01*
X7403515Y-9537984D02*
X7393991Y-9528460D01*
X7393991Y-9528460D02*
X7403515Y-9518936D01*
X7403515Y-9518936D02*
X7403515Y-9537984D01*
X7536848Y-9337984D02*
X7555896Y-9337984D01*
X7555896Y-9337984D02*
X7574944Y-9347508D01*
X7574944Y-9347508D02*
X7584467Y-9357031D01*
X7584467Y-9357031D02*
X7593991Y-9376079D01*
X7593991Y-9376079D02*
X7603515Y-9414174D01*
X7603515Y-9414174D02*
X7603515Y-9461793D01*
X7603515Y-9461793D02*
X7593991Y-9499889D01*
X7593991Y-9499889D02*
X7584467Y-9518936D01*
X7584467Y-9518936D02*
X7574944Y-9528460D01*
X7574944Y-9528460D02*
X7555896Y-9537984D01*
X7555896Y-9537984D02*
X7536848Y-9537984D01*
X7536848Y-9537984D02*
X7517801Y-9528460D01*
X7517801Y-9528460D02*
X7508277Y-9518936D01*
X7508277Y-9518936D02*
X7498753Y-9499889D01*
X7498753Y-9499889D02*
X7489229Y-9461793D01*
X7489229Y-9461793D02*
X7489229Y-9414174D01*
X7489229Y-9414174D02*
X7498753Y-9376079D01*
X7498753Y-9376079D02*
X7508277Y-9357031D01*
X7508277Y-9357031D02*
X7517801Y-9347508D01*
X7517801Y-9347508D02*
X7536848Y-9337984D01*
X7670182Y-9337984D02*
X7793991Y-9337984D01*
X7793991Y-9337984D02*
X7727325Y-9414174D01*
X7727325Y-9414174D02*
X7755896Y-9414174D01*
X7755896Y-9414174D02*
X7774944Y-9423698D01*
X7774944Y-9423698D02*
X7784467Y-9433222D01*
X7784467Y-9433222D02*
X7793991Y-9452270D01*
X7793991Y-9452270D02*
X7793991Y-9499889D01*
X7793991Y-9499889D02*
X7784467Y-9518936D01*
X7784467Y-9518936D02*
X7774944Y-9528460D01*
X7774944Y-9528460D02*
X7755896Y-9537984D01*
X7755896Y-9537984D02*
X7698753Y-9537984D01*
X7698753Y-9537984D02*
X7679706Y-9528460D01*
X7679706Y-9528460D02*
X7670182Y-9518936D01*
X7984467Y-9537984D02*
X7870182Y-9537984D01*
X7927325Y-9537984D02*
X7927325Y-9337984D01*
X7927325Y-9337984D02*
X7908277Y-9366555D01*
X7908277Y-9366555D02*
X7889229Y-9385603D01*
X7889229Y-9385603D02*
X7870182Y-9395127D01*
X8165420Y-9337984D02*
X8070182Y-9337984D01*
X8070182Y-9337984D02*
X8060658Y-9433222D01*
X8060658Y-9433222D02*
X8070182Y-9423698D01*
X8070182Y-9423698D02*
X8089229Y-9414174D01*
X8089229Y-9414174D02*
X8136848Y-9414174D01*
X8136848Y-9414174D02*
X8155896Y-9423698D01*
X8155896Y-9423698D02*
X8165420Y-9433222D01*
X8165420Y-9433222D02*
X8174944Y-9452270D01*
X8174944Y-9452270D02*
X8174944Y-9499889D01*
X8174944Y-9499889D02*
X8165420Y-9518936D01*
X8165420Y-9518936D02*
X8155896Y-9528460D01*
X8155896Y-9528460D02*
X8136848Y-9537984D01*
X8136848Y-9537984D02*
X8089229Y-9537984D01*
X8089229Y-9537984D02*
X8070182Y-9528460D01*
X8070182Y-9528460D02*
X8060658Y-9518936D01*
X8251134Y-9337984D02*
X8251134Y-9376079D01*
X8327325Y-9337984D02*
X8327325Y-9376079D01*
X8622563Y-9614174D02*
X8613039Y-9604650D01*
X8613039Y-9604650D02*
X8593991Y-9576079D01*
X8593991Y-9576079D02*
X8584468Y-9557031D01*
X8584468Y-9557031D02*
X8574944Y-9528460D01*
X8574944Y-9528460D02*
X8565420Y-9480841D01*
X8565420Y-9480841D02*
X8565420Y-9442746D01*
X8565420Y-9442746D02*
X8574944Y-9395127D01*
X8574944Y-9395127D02*
X8584468Y-9366555D01*
X8584468Y-9366555D02*
X8593991Y-9347508D01*
X8593991Y-9347508D02*
X8613039Y-9318936D01*
X8613039Y-9318936D02*
X8622563Y-9309412D01*
X8803515Y-9537984D02*
X8689230Y-9537984D01*
X8746372Y-9537984D02*
X8746372Y-9337984D01*
X8746372Y-9337984D02*
X8727325Y-9366555D01*
X8727325Y-9366555D02*
X8708277Y-9385603D01*
X8708277Y-9385603D02*
X8689230Y-9395127D01*
X8879706Y-9357031D02*
X8889230Y-9347508D01*
X8889230Y-9347508D02*
X8908277Y-9337984D01*
X8908277Y-9337984D02*
X8955896Y-9337984D01*
X8955896Y-9337984D02*
X8974944Y-9347508D01*
X8974944Y-9347508D02*
X8984468Y-9357031D01*
X8984468Y-9357031D02*
X8993991Y-9376079D01*
X8993991Y-9376079D02*
X8993991Y-9395127D01*
X8993991Y-9395127D02*
X8984468Y-9423698D01*
X8984468Y-9423698D02*
X8870182Y-9537984D01*
X8870182Y-9537984D02*
X8993991Y-9537984D01*
X9232087Y-9537984D02*
X9232087Y-9337984D01*
X9317801Y-9537984D02*
X9317801Y-9433222D01*
X9317801Y-9433222D02*
X9308277Y-9414174D01*
X9308277Y-9414174D02*
X9289230Y-9404650D01*
X9289230Y-9404650D02*
X9260658Y-9404650D01*
X9260658Y-9404650D02*
X9241611Y-9414174D01*
X9241611Y-9414174D02*
X9232087Y-9423698D01*
X9441611Y-9537984D02*
X9422563Y-9528460D01*
X9422563Y-9528460D02*
X9413039Y-9518936D01*
X9413039Y-9518936D02*
X9403515Y-9499889D01*
X9403515Y-9499889D02*
X9403515Y-9442746D01*
X9403515Y-9442746D02*
X9413039Y-9423698D01*
X9413039Y-9423698D02*
X9422563Y-9414174D01*
X9422563Y-9414174D02*
X9441611Y-9404650D01*
X9441611Y-9404650D02*
X9470182Y-9404650D01*
X9470182Y-9404650D02*
X9489230Y-9414174D01*
X9489230Y-9414174D02*
X9498753Y-9423698D01*
X9498753Y-9423698D02*
X9508277Y-9442746D01*
X9508277Y-9442746D02*
X9508277Y-9499889D01*
X9508277Y-9499889D02*
X9498753Y-9518936D01*
X9498753Y-9518936D02*
X9489230Y-9528460D01*
X9489230Y-9528460D02*
X9470182Y-9537984D01*
X9470182Y-9537984D02*
X9441611Y-9537984D01*
X9622563Y-9537984D02*
X9603515Y-9528460D01*
X9603515Y-9528460D02*
X9593992Y-9509412D01*
X9593992Y-9509412D02*
X9593992Y-9337984D01*
X9774944Y-9528460D02*
X9755896Y-9537984D01*
X9755896Y-9537984D02*
X9717801Y-9537984D01*
X9717801Y-9537984D02*
X9698753Y-9528460D01*
X9698753Y-9528460D02*
X9689230Y-9509412D01*
X9689230Y-9509412D02*
X9689230Y-9433222D01*
X9689230Y-9433222D02*
X9698753Y-9414174D01*
X9698753Y-9414174D02*
X9717801Y-9404650D01*
X9717801Y-9404650D02*
X9755896Y-9404650D01*
X9755896Y-9404650D02*
X9774944Y-9414174D01*
X9774944Y-9414174D02*
X9784468Y-9433222D01*
X9784468Y-9433222D02*
X9784468Y-9452270D01*
X9784468Y-9452270D02*
X9689230Y-9471317D01*
X9860658Y-9528460D02*
X9879706Y-9537984D01*
X9879706Y-9537984D02*
X9917801Y-9537984D01*
X9917801Y-9537984D02*
X9936849Y-9528460D01*
X9936849Y-9528460D02*
X9946373Y-9509412D01*
X9946373Y-9509412D02*
X9946373Y-9499889D01*
X9946373Y-9499889D02*
X9936849Y-9480841D01*
X9936849Y-9480841D02*
X9917801Y-9471317D01*
X9917801Y-9471317D02*
X9889230Y-9471317D01*
X9889230Y-9471317D02*
X9870182Y-9461793D01*
X9870182Y-9461793D02*
X9860658Y-9442746D01*
X9860658Y-9442746D02*
X9860658Y-9433222D01*
X9860658Y-9433222D02*
X9870182Y-9414174D01*
X9870182Y-9414174D02*
X9889230Y-9404650D01*
X9889230Y-9404650D02*
X9917801Y-9404650D01*
X9917801Y-9404650D02*
X9936849Y-9414174D01*
X10013039Y-9614174D02*
X10022563Y-9604650D01*
X10022563Y-9604650D02*
X10041611Y-9576079D01*
X10041611Y-9576079D02*
X10051134Y-9557031D01*
X10051134Y-9557031D02*
X10060658Y-9528460D01*
X10060658Y-9528460D02*
X10070182Y-9480841D01*
X10070182Y-9480841D02*
X10070182Y-9442746D01*
X10070182Y-9442746D02*
X10060658Y-9395127D01*
X10060658Y-9395127D02*
X10051134Y-9366555D01*
X10051134Y-9366555D02*
X10041611Y-9347508D01*
X10041611Y-9347508D02*
X10022563Y-9318936D01*
X10022563Y-9318936D02*
X10013039Y-9309412D01*
D12*
X4997500Y-9660500D02*
X4997500Y-9760500D01*
X4947500Y-9710500D02*
X5047500Y-9710500D01*
D11*
X5413039Y-9801984D02*
X5298753Y-9801984D01*
X5355896Y-9801984D02*
X5355896Y-9601984D01*
X5355896Y-9601984D02*
X5336848Y-9630555D01*
X5336848Y-9630555D02*
X5317801Y-9649603D01*
X5317801Y-9649603D02*
X5298753Y-9659127D01*
X5498753Y-9782936D02*
X5508277Y-9792460D01*
X5508277Y-9792460D02*
X5498753Y-9801984D01*
X5498753Y-9801984D02*
X5489229Y-9792460D01*
X5489229Y-9792460D02*
X5498753Y-9782936D01*
X5498753Y-9782936D02*
X5498753Y-9801984D01*
X5632086Y-9601984D02*
X5651134Y-9601984D01*
X5651134Y-9601984D02*
X5670182Y-9611508D01*
X5670182Y-9611508D02*
X5679705Y-9621031D01*
X5679705Y-9621031D02*
X5689229Y-9640079D01*
X5689229Y-9640079D02*
X5698753Y-9678174D01*
X5698753Y-9678174D02*
X5698753Y-9725793D01*
X5698753Y-9725793D02*
X5689229Y-9763889D01*
X5689229Y-9763889D02*
X5679705Y-9782936D01*
X5679705Y-9782936D02*
X5670182Y-9792460D01*
X5670182Y-9792460D02*
X5651134Y-9801984D01*
X5651134Y-9801984D02*
X5632086Y-9801984D01*
X5632086Y-9801984D02*
X5613039Y-9792460D01*
X5613039Y-9792460D02*
X5603515Y-9782936D01*
X5603515Y-9782936D02*
X5593991Y-9763889D01*
X5593991Y-9763889D02*
X5584467Y-9725793D01*
X5584467Y-9725793D02*
X5584467Y-9678174D01*
X5584467Y-9678174D02*
X5593991Y-9640079D01*
X5593991Y-9640079D02*
X5603515Y-9621031D01*
X5603515Y-9621031D02*
X5613039Y-9611508D01*
X5613039Y-9611508D02*
X5632086Y-9601984D01*
X5822562Y-9601984D02*
X5841610Y-9601984D01*
X5841610Y-9601984D02*
X5860658Y-9611508D01*
X5860658Y-9611508D02*
X5870182Y-9621031D01*
X5870182Y-9621031D02*
X5879705Y-9640079D01*
X5879705Y-9640079D02*
X5889229Y-9678174D01*
X5889229Y-9678174D02*
X5889229Y-9725793D01*
X5889229Y-9725793D02*
X5879705Y-9763889D01*
X5879705Y-9763889D02*
X5870182Y-9782936D01*
X5870182Y-9782936D02*
X5860658Y-9792460D01*
X5860658Y-9792460D02*
X5841610Y-9801984D01*
X5841610Y-9801984D02*
X5822562Y-9801984D01*
X5822562Y-9801984D02*
X5803515Y-9792460D01*
X5803515Y-9792460D02*
X5793991Y-9782936D01*
X5793991Y-9782936D02*
X5784467Y-9763889D01*
X5784467Y-9763889D02*
X5774943Y-9725793D01*
X5774943Y-9725793D02*
X5774943Y-9678174D01*
X5774943Y-9678174D02*
X5784467Y-9640079D01*
X5784467Y-9640079D02*
X5793991Y-9621031D01*
X5793991Y-9621031D02*
X5803515Y-9611508D01*
X5803515Y-9611508D02*
X5822562Y-9601984D01*
X6013039Y-9601984D02*
X6032086Y-9601984D01*
X6032086Y-9601984D02*
X6051134Y-9611508D01*
X6051134Y-9611508D02*
X6060658Y-9621031D01*
X6060658Y-9621031D02*
X6070182Y-9640079D01*
X6070182Y-9640079D02*
X6079705Y-9678174D01*
X6079705Y-9678174D02*
X6079705Y-9725793D01*
X6079705Y-9725793D02*
X6070182Y-9763889D01*
X6070182Y-9763889D02*
X6060658Y-9782936D01*
X6060658Y-9782936D02*
X6051134Y-9792460D01*
X6051134Y-9792460D02*
X6032086Y-9801984D01*
X6032086Y-9801984D02*
X6013039Y-9801984D01*
X6013039Y-9801984D02*
X5993991Y-9792460D01*
X5993991Y-9792460D02*
X5984467Y-9782936D01*
X5984467Y-9782936D02*
X5974943Y-9763889D01*
X5974943Y-9763889D02*
X5965420Y-9725793D01*
X5965420Y-9725793D02*
X5965420Y-9678174D01*
X5965420Y-9678174D02*
X5974943Y-9640079D01*
X5974943Y-9640079D02*
X5984467Y-9621031D01*
X5984467Y-9621031D02*
X5993991Y-9611508D01*
X5993991Y-9611508D02*
X6013039Y-9601984D01*
X6165420Y-9801984D02*
X6165420Y-9668650D01*
X6165420Y-9687698D02*
X6174943Y-9678174D01*
X6174943Y-9678174D02*
X6193991Y-9668650D01*
X6193991Y-9668650D02*
X6222563Y-9668650D01*
X6222563Y-9668650D02*
X6241610Y-9678174D01*
X6241610Y-9678174D02*
X6251134Y-9697222D01*
X6251134Y-9697222D02*
X6251134Y-9801984D01*
X6251134Y-9697222D02*
X6260658Y-9678174D01*
X6260658Y-9678174D02*
X6279705Y-9668650D01*
X6279705Y-9668650D02*
X6308277Y-9668650D01*
X6308277Y-9668650D02*
X6327324Y-9678174D01*
X6327324Y-9678174D02*
X6336848Y-9697222D01*
X6336848Y-9697222D02*
X6336848Y-9801984D01*
X6432086Y-9801984D02*
X6432086Y-9668650D01*
X6432086Y-9687698D02*
X6441610Y-9678174D01*
X6441610Y-9678174D02*
X6460658Y-9668650D01*
X6460658Y-9668650D02*
X6489229Y-9668650D01*
X6489229Y-9668650D02*
X6508277Y-9678174D01*
X6508277Y-9678174D02*
X6517801Y-9697222D01*
X6517801Y-9697222D02*
X6517801Y-9801984D01*
X6517801Y-9697222D02*
X6527324Y-9678174D01*
X6527324Y-9678174D02*
X6546372Y-9668650D01*
X6546372Y-9668650D02*
X6574943Y-9668650D01*
X6574943Y-9668650D02*
X6593991Y-9678174D01*
X6593991Y-9678174D02*
X6603515Y-9697222D01*
X6603515Y-9697222D02*
X6603515Y-9801984D01*
X6993991Y-9592460D02*
X6822563Y-9849603D01*
X7251134Y-9601984D02*
X7270182Y-9601984D01*
X7270182Y-9601984D02*
X7289229Y-9611508D01*
X7289229Y-9611508D02*
X7298753Y-9621031D01*
X7298753Y-9621031D02*
X7308277Y-9640079D01*
X7308277Y-9640079D02*
X7317801Y-9678174D01*
X7317801Y-9678174D02*
X7317801Y-9725793D01*
X7317801Y-9725793D02*
X7308277Y-9763889D01*
X7308277Y-9763889D02*
X7298753Y-9782936D01*
X7298753Y-9782936D02*
X7289229Y-9792460D01*
X7289229Y-9792460D02*
X7270182Y-9801984D01*
X7270182Y-9801984D02*
X7251134Y-9801984D01*
X7251134Y-9801984D02*
X7232086Y-9792460D01*
X7232086Y-9792460D02*
X7222563Y-9782936D01*
X7222563Y-9782936D02*
X7213039Y-9763889D01*
X7213039Y-9763889D02*
X7203515Y-9725793D01*
X7203515Y-9725793D02*
X7203515Y-9678174D01*
X7203515Y-9678174D02*
X7213039Y-9640079D01*
X7213039Y-9640079D02*
X7222563Y-9621031D01*
X7222563Y-9621031D02*
X7232086Y-9611508D01*
X7232086Y-9611508D02*
X7251134Y-9601984D01*
X7403515Y-9782936D02*
X7413039Y-9792460D01*
X7413039Y-9792460D02*
X7403515Y-9801984D01*
X7403515Y-9801984D02*
X7393991Y-9792460D01*
X7393991Y-9792460D02*
X7403515Y-9782936D01*
X7403515Y-9782936D02*
X7403515Y-9801984D01*
X7536848Y-9601984D02*
X7555896Y-9601984D01*
X7555896Y-9601984D02*
X7574944Y-9611508D01*
X7574944Y-9611508D02*
X7584467Y-9621031D01*
X7584467Y-9621031D02*
X7593991Y-9640079D01*
X7593991Y-9640079D02*
X7603515Y-9678174D01*
X7603515Y-9678174D02*
X7603515Y-9725793D01*
X7603515Y-9725793D02*
X7593991Y-9763889D01*
X7593991Y-9763889D02*
X7584467Y-9782936D01*
X7584467Y-9782936D02*
X7574944Y-9792460D01*
X7574944Y-9792460D02*
X7555896Y-9801984D01*
X7555896Y-9801984D02*
X7536848Y-9801984D01*
X7536848Y-9801984D02*
X7517801Y-9792460D01*
X7517801Y-9792460D02*
X7508277Y-9782936D01*
X7508277Y-9782936D02*
X7498753Y-9763889D01*
X7498753Y-9763889D02*
X7489229Y-9725793D01*
X7489229Y-9725793D02*
X7489229Y-9678174D01*
X7489229Y-9678174D02*
X7498753Y-9640079D01*
X7498753Y-9640079D02*
X7508277Y-9621031D01*
X7508277Y-9621031D02*
X7517801Y-9611508D01*
X7517801Y-9611508D02*
X7536848Y-9601984D01*
X7670182Y-9601984D02*
X7793991Y-9601984D01*
X7793991Y-9601984D02*
X7727325Y-9678174D01*
X7727325Y-9678174D02*
X7755896Y-9678174D01*
X7755896Y-9678174D02*
X7774944Y-9687698D01*
X7774944Y-9687698D02*
X7784467Y-9697222D01*
X7784467Y-9697222D02*
X7793991Y-9716270D01*
X7793991Y-9716270D02*
X7793991Y-9763889D01*
X7793991Y-9763889D02*
X7784467Y-9782936D01*
X7784467Y-9782936D02*
X7774944Y-9792460D01*
X7774944Y-9792460D02*
X7755896Y-9801984D01*
X7755896Y-9801984D02*
X7698753Y-9801984D01*
X7698753Y-9801984D02*
X7679706Y-9792460D01*
X7679706Y-9792460D02*
X7670182Y-9782936D01*
X7889229Y-9801984D02*
X7927325Y-9801984D01*
X7927325Y-9801984D02*
X7946372Y-9792460D01*
X7946372Y-9792460D02*
X7955896Y-9782936D01*
X7955896Y-9782936D02*
X7974944Y-9754365D01*
X7974944Y-9754365D02*
X7984467Y-9716270D01*
X7984467Y-9716270D02*
X7984467Y-9640079D01*
X7984467Y-9640079D02*
X7974944Y-9621031D01*
X7974944Y-9621031D02*
X7965420Y-9611508D01*
X7965420Y-9611508D02*
X7946372Y-9601984D01*
X7946372Y-9601984D02*
X7908277Y-9601984D01*
X7908277Y-9601984D02*
X7889229Y-9611508D01*
X7889229Y-9611508D02*
X7879706Y-9621031D01*
X7879706Y-9621031D02*
X7870182Y-9640079D01*
X7870182Y-9640079D02*
X7870182Y-9687698D01*
X7870182Y-9687698D02*
X7879706Y-9706746D01*
X7879706Y-9706746D02*
X7889229Y-9716270D01*
X7889229Y-9716270D02*
X7908277Y-9725793D01*
X7908277Y-9725793D02*
X7946372Y-9725793D01*
X7946372Y-9725793D02*
X7965420Y-9716270D01*
X7965420Y-9716270D02*
X7974944Y-9706746D01*
X7974944Y-9706746D02*
X7984467Y-9687698D01*
X8155896Y-9668650D02*
X8155896Y-9801984D01*
X8108277Y-9592460D02*
X8060658Y-9735317D01*
X8060658Y-9735317D02*
X8184467Y-9735317D01*
X8251134Y-9601984D02*
X8251134Y-9640079D01*
X8327325Y-9601984D02*
X8327325Y-9640079D01*
X8622563Y-9878174D02*
X8613039Y-9868650D01*
X8613039Y-9868650D02*
X8593991Y-9840079D01*
X8593991Y-9840079D02*
X8584468Y-9821031D01*
X8584468Y-9821031D02*
X8574944Y-9792460D01*
X8574944Y-9792460D02*
X8565420Y-9744841D01*
X8565420Y-9744841D02*
X8565420Y-9706746D01*
X8565420Y-9706746D02*
X8574944Y-9659127D01*
X8574944Y-9659127D02*
X8584468Y-9630555D01*
X8584468Y-9630555D02*
X8593991Y-9611508D01*
X8593991Y-9611508D02*
X8613039Y-9582936D01*
X8613039Y-9582936D02*
X8622563Y-9573412D01*
X8727325Y-9687698D02*
X8708277Y-9678174D01*
X8708277Y-9678174D02*
X8698753Y-9668650D01*
X8698753Y-9668650D02*
X8689230Y-9649603D01*
X8689230Y-9649603D02*
X8689230Y-9640079D01*
X8689230Y-9640079D02*
X8698753Y-9621031D01*
X8698753Y-9621031D02*
X8708277Y-9611508D01*
X8708277Y-9611508D02*
X8727325Y-9601984D01*
X8727325Y-9601984D02*
X8765420Y-9601984D01*
X8765420Y-9601984D02*
X8784468Y-9611508D01*
X8784468Y-9611508D02*
X8793991Y-9621031D01*
X8793991Y-9621031D02*
X8803515Y-9640079D01*
X8803515Y-9640079D02*
X8803515Y-9649603D01*
X8803515Y-9649603D02*
X8793991Y-9668650D01*
X8793991Y-9668650D02*
X8784468Y-9678174D01*
X8784468Y-9678174D02*
X8765420Y-9687698D01*
X8765420Y-9687698D02*
X8727325Y-9687698D01*
X8727325Y-9687698D02*
X8708277Y-9697222D01*
X8708277Y-9697222D02*
X8698753Y-9706746D01*
X8698753Y-9706746D02*
X8689230Y-9725793D01*
X8689230Y-9725793D02*
X8689230Y-9763889D01*
X8689230Y-9763889D02*
X8698753Y-9782936D01*
X8698753Y-9782936D02*
X8708277Y-9792460D01*
X8708277Y-9792460D02*
X8727325Y-9801984D01*
X8727325Y-9801984D02*
X8765420Y-9801984D01*
X8765420Y-9801984D02*
X8784468Y-9792460D01*
X8784468Y-9792460D02*
X8793991Y-9782936D01*
X8793991Y-9782936D02*
X8803515Y-9763889D01*
X8803515Y-9763889D02*
X8803515Y-9725793D01*
X8803515Y-9725793D02*
X8793991Y-9706746D01*
X8793991Y-9706746D02*
X8784468Y-9697222D01*
X8784468Y-9697222D02*
X8765420Y-9687698D01*
X9041611Y-9801984D02*
X9041611Y-9601984D01*
X9127325Y-9801984D02*
X9127325Y-9697222D01*
X9127325Y-9697222D02*
X9117801Y-9678174D01*
X9117801Y-9678174D02*
X9098753Y-9668650D01*
X9098753Y-9668650D02*
X9070182Y-9668650D01*
X9070182Y-9668650D02*
X9051134Y-9678174D01*
X9051134Y-9678174D02*
X9041611Y-9687698D01*
X9251134Y-9801984D02*
X9232087Y-9792460D01*
X9232087Y-9792460D02*
X9222563Y-9782936D01*
X9222563Y-9782936D02*
X9213039Y-9763889D01*
X9213039Y-9763889D02*
X9213039Y-9706746D01*
X9213039Y-9706746D02*
X9222563Y-9687698D01*
X9222563Y-9687698D02*
X9232087Y-9678174D01*
X9232087Y-9678174D02*
X9251134Y-9668650D01*
X9251134Y-9668650D02*
X9279706Y-9668650D01*
X9279706Y-9668650D02*
X9298753Y-9678174D01*
X9298753Y-9678174D02*
X9308277Y-9687698D01*
X9308277Y-9687698D02*
X9317801Y-9706746D01*
X9317801Y-9706746D02*
X9317801Y-9763889D01*
X9317801Y-9763889D02*
X9308277Y-9782936D01*
X9308277Y-9782936D02*
X9298753Y-9792460D01*
X9298753Y-9792460D02*
X9279706Y-9801984D01*
X9279706Y-9801984D02*
X9251134Y-9801984D01*
X9432087Y-9801984D02*
X9413039Y-9792460D01*
X9413039Y-9792460D02*
X9403515Y-9773412D01*
X9403515Y-9773412D02*
X9403515Y-9601984D01*
X9584468Y-9792460D02*
X9565420Y-9801984D01*
X9565420Y-9801984D02*
X9527325Y-9801984D01*
X9527325Y-9801984D02*
X9508277Y-9792460D01*
X9508277Y-9792460D02*
X9498753Y-9773412D01*
X9498753Y-9773412D02*
X9498753Y-9697222D01*
X9498753Y-9697222D02*
X9508277Y-9678174D01*
X9508277Y-9678174D02*
X9527325Y-9668650D01*
X9527325Y-9668650D02*
X9565420Y-9668650D01*
X9565420Y-9668650D02*
X9584468Y-9678174D01*
X9584468Y-9678174D02*
X9593992Y-9697222D01*
X9593992Y-9697222D02*
X9593992Y-9716270D01*
X9593992Y-9716270D02*
X9498753Y-9735317D01*
X9670182Y-9792460D02*
X9689230Y-9801984D01*
X9689230Y-9801984D02*
X9727325Y-9801984D01*
X9727325Y-9801984D02*
X9746373Y-9792460D01*
X9746373Y-9792460D02*
X9755896Y-9773412D01*
X9755896Y-9773412D02*
X9755896Y-9763889D01*
X9755896Y-9763889D02*
X9746373Y-9744841D01*
X9746373Y-9744841D02*
X9727325Y-9735317D01*
X9727325Y-9735317D02*
X9698753Y-9735317D01*
X9698753Y-9735317D02*
X9679706Y-9725793D01*
X9679706Y-9725793D02*
X9670182Y-9706746D01*
X9670182Y-9706746D02*
X9670182Y-9697222D01*
X9670182Y-9697222D02*
X9679706Y-9678174D01*
X9679706Y-9678174D02*
X9698753Y-9668650D01*
X9698753Y-9668650D02*
X9727325Y-9668650D01*
X9727325Y-9668650D02*
X9746373Y-9678174D01*
X9822563Y-9878174D02*
X9832087Y-9868650D01*
X9832087Y-9868650D02*
X9851134Y-9840079D01*
X9851134Y-9840079D02*
X9860658Y-9821031D01*
X9860658Y-9821031D02*
X9870182Y-9792460D01*
X9870182Y-9792460D02*
X9879706Y-9744841D01*
X9879706Y-9744841D02*
X9879706Y-9706746D01*
X9879706Y-9706746D02*
X9870182Y-9659127D01*
X9870182Y-9659127D02*
X9860658Y-9630555D01*
X9860658Y-9630555D02*
X9851134Y-9611508D01*
X9851134Y-9611508D02*
X9832087Y-9582936D01*
X9832087Y-9582936D02*
X9822563Y-9573412D01*
M02*
