%TF.GenerationSoftware,KiCad,Pcbnew,8.0.3*%
%TF.CreationDate,2024-07-13T20:35:25+02:00*%
%TF.ProjectId,Shift Register Board,53686966-7420-4526-9567-697374657220,rev?*%
%TF.SameCoordinates,Original*%
%TF.FileFunction,Copper,L1,Top*%
%TF.FilePolarity,Positive*%
%FSLAX46Y46*%
G04 Gerber Fmt 4.6, Leading zero omitted, Abs format (unit mm)*
G04 Created by KiCad (PCBNEW 8.0.3) date 2024-07-13 20:35:25*
%MOMM*%
%LPD*%
G01*
G04 APERTURE LIST*
%TA.AperFunction,ComponentPad*%
%ADD10R,1.350000X1.350000*%
%TD*%
%TA.AperFunction,ComponentPad*%
%ADD11O,1.350000X1.350000*%
%TD*%
%TA.AperFunction,ComponentPad*%
%ADD12R,1.700000X1.700000*%
%TD*%
%TA.AperFunction,ComponentPad*%
%ADD13O,1.700000X1.700000*%
%TD*%
%TA.AperFunction,ViaPad*%
%ADD14C,0.600000*%
%TD*%
%TA.AperFunction,Conductor*%
%ADD15C,0.200000*%
%TD*%
G04 APERTURE END LIST*
D10*
%TO.P,J1,1,Pin_1*%
%TO.N,Net-(J1-Pin_1)*%
X59999999Y-61900000D03*
D11*
%TO.P,J1,2,Pin_2*%
%TO.N,Net-(J1-Pin_2)*%
X61999999Y-61900000D03*
%TO.P,J1,3,Pin_3*%
%TO.N,Net-(J1-Pin_3)*%
X63999999Y-61900000D03*
%TO.P,J1,4,Pin_4*%
%TO.N,Net-(J1-Pin_4)*%
X65999999Y-61900000D03*
%TD*%
D10*
%TO.P,J3,1,Pin_1*%
%TO.N,Net-(J3-Pin_1)*%
X52000000Y-83900000D03*
D11*
%TO.P,J3,2,Pin_2*%
%TO.N,Net-(J3-Pin_2)*%
X54000000Y-83900000D03*
%TO.P,J3,3,Pin_3*%
%TO.N,Net-(J3-Pin_3)*%
X56000000Y-83900000D03*
%TD*%
D10*
%TO.P,J5,1,Pin_1*%
%TO.N,GND*%
X74000000Y-61900000D03*
%TD*%
%TO.P,J2,1,Pin_1*%
%TO.N,Net-(J2-Pin_1)*%
X70000000Y-83900000D03*
D11*
%TO.P,J2,2,Pin_2*%
%TO.N,Net-(J2-Pin_2)*%
X72000000Y-83900000D03*
%TO.P,J2,3,Pin_3*%
%TO.N,Net-(J2-Pin_3)*%
X74000000Y-83900000D03*
%TD*%
D10*
%TO.P,J4,1,Pin_1*%
%TO.N,GND*%
X52000000Y-61900000D03*
%TD*%
D12*
%TO.P,J8,1,Pin_1*%
%TO.N,GND*%
X64500000Y-83500000D03*
%TD*%
%TO.P,J7,1,Pin_1*%
%TO.N,+5V*%
X59400000Y-83500000D03*
%TD*%
%TO.P,J6,1,Pin_1*%
%TO.N,DATA*%
X56900000Y-65600000D03*
D13*
%TO.P,J6,2,Pin_2*%
%TO.N,SR_CLK*%
X59440000Y-65600000D03*
%TO.P,J6,3,Pin_3*%
%TO.N,SR_CLR*%
X61979999Y-65600000D03*
%TO.P,J6,4,Pin_4*%
%TO.N,LOAD*%
X64520000Y-65600000D03*
%TO.P,J6,5,Pin_5*%
%TO.N,OE*%
X67060000Y-65600000D03*
%TO.P,J6,6,Pin_6*%
%TO.N,DATA_OUT*%
X69600000Y-65600000D03*
%TD*%
D14*
%TO.N,GND*%
X72800000Y-79400000D03*
X54500000Y-68400000D03*
X62400000Y-79400000D03*
X65900000Y-68300000D03*
%TO.N,Net-(J2-Pin_3)*%
X72900000Y-76500000D03*
X74400000Y-76500000D03*
%TO.N,Net-(J3-Pin_3)*%
X53400000Y-81400000D03*
%TO.N,Net-(J3-Pin_2)*%
X52400000Y-81400000D03*
%TO.N,SR_CLK*%
X61800000Y-75700000D03*
%TO.N,+5V*%
X67100000Y-70000000D03*
X57400000Y-70000000D03*
%TO.N,LOAD*%
X63400000Y-74500000D03*
%TO.N,OE*%
X64200000Y-73200000D03*
%TO.N,SR_CLR*%
X62400000Y-76900000D03*
%TD*%
D15*
%TO.N,Net-(J2-Pin_3)*%
X72900000Y-76500000D02*
X74400000Y-76500000D01*
%TO.N,Net-(J3-Pin_3)*%
X56000000Y-83900000D02*
X53500000Y-81400000D01*
X53500000Y-81400000D02*
X53400000Y-81400000D01*
%TO.N,Net-(J3-Pin_2)*%
X54000000Y-83900000D02*
X52400000Y-82300000D01*
X52400000Y-82300000D02*
X52400000Y-81400000D01*
%TO.N,SR_CLK*%
X59440000Y-65600000D02*
X61800000Y-67960000D01*
X61800000Y-67960000D02*
X61800000Y-75700000D01*
%TO.N,+5V*%
X60900000Y-83600000D02*
X59500000Y-83600000D01*
X67100000Y-70000000D02*
X67100000Y-77400000D01*
X59500000Y-83600000D02*
X57400000Y-81500000D01*
X57400000Y-81500000D02*
X57400000Y-70000000D01*
X67100000Y-77400000D02*
X60900000Y-83600000D01*
%TO.N,LOAD*%
X64520000Y-65600000D02*
X63400000Y-66720000D01*
X63400000Y-66720000D02*
X63400000Y-74500000D01*
%TO.N,OE*%
X64200000Y-68460000D02*
X64200000Y-73200000D01*
X67060000Y-65600000D02*
X64200000Y-68460000D01*
%TO.N,SR_CLR*%
X61979999Y-65600000D02*
X62400000Y-66020001D01*
X62400000Y-66020001D02*
X62400000Y-76900000D01*
%TD*%
%TA.AperFunction,Conductor*%
%TO.N,GND*%
G36*
X58800296Y-60920185D02*
G01*
X58846051Y-60972989D01*
X58855995Y-61042147D01*
X58849439Y-61067834D01*
X58830907Y-61117518D01*
X58824500Y-61177116D01*
X58824499Y-61177135D01*
X58824499Y-62622870D01*
X58824500Y-62622876D01*
X58830907Y-62682483D01*
X58881201Y-62817328D01*
X58881205Y-62817335D01*
X58967451Y-62932544D01*
X58967454Y-62932547D01*
X59082663Y-63018793D01*
X59082670Y-63018797D01*
X59217516Y-63069091D01*
X59217515Y-63069091D01*
X59224443Y-63069835D01*
X59277126Y-63075500D01*
X60722871Y-63075499D01*
X60782482Y-63069091D01*
X60917330Y-63018796D01*
X61032545Y-62932546D01*
X61094784Y-62849404D01*
X61150717Y-62807535D01*
X61220409Y-62802551D01*
X61277587Y-62832078D01*
X61288567Y-62842088D01*
X61288569Y-62842089D01*
X61288570Y-62842090D01*
X61473785Y-62956770D01*
X61473791Y-62956773D01*
X61496663Y-62965633D01*
X61676930Y-63035470D01*
X61891073Y-63075500D01*
X61891075Y-63075500D01*
X62108923Y-63075500D01*
X62108925Y-63075500D01*
X62323068Y-63035470D01*
X62526209Y-62956772D01*
X62711431Y-62842088D01*
X62872426Y-62695322D01*
X62901046Y-62657422D01*
X62957152Y-62615787D01*
X63026864Y-62611094D01*
X63088047Y-62644836D01*
X63098945Y-62657414D01*
X63127572Y-62695322D01*
X63288567Y-62842088D01*
X63288574Y-62842092D01*
X63288575Y-62842093D01*
X63473785Y-62956770D01*
X63473791Y-62956773D01*
X63496663Y-62965633D01*
X63676930Y-63035470D01*
X63891073Y-63075500D01*
X63891075Y-63075500D01*
X64108923Y-63075500D01*
X64108925Y-63075500D01*
X64323068Y-63035470D01*
X64526209Y-62956772D01*
X64711431Y-62842088D01*
X64872426Y-62695322D01*
X64901046Y-62657422D01*
X64957152Y-62615787D01*
X65026864Y-62611094D01*
X65088047Y-62644836D01*
X65098945Y-62657414D01*
X65127572Y-62695322D01*
X65288567Y-62842088D01*
X65288574Y-62842092D01*
X65288575Y-62842093D01*
X65473785Y-62956770D01*
X65473791Y-62956773D01*
X65496663Y-62965633D01*
X65676930Y-63035470D01*
X65891073Y-63075500D01*
X65891075Y-63075500D01*
X66108923Y-63075500D01*
X66108925Y-63075500D01*
X66323068Y-63035470D01*
X66526209Y-62956772D01*
X66711431Y-62842088D01*
X66872426Y-62695322D01*
X67003711Y-62521472D01*
X67100816Y-62326459D01*
X67160434Y-62116923D01*
X67180535Y-61900000D01*
X67160434Y-61683077D01*
X67100816Y-61473541D01*
X67003711Y-61278528D01*
X66872426Y-61104678D01*
X66872425Y-61104677D01*
X66868971Y-61100103D01*
X66870912Y-61098636D01*
X66844877Y-61045266D01*
X66853057Y-60975877D01*
X66897452Y-60921925D01*
X66963969Y-60900540D01*
X66967126Y-60900500D01*
X72733791Y-60900500D01*
X72800830Y-60920185D01*
X72846585Y-60972989D01*
X72856529Y-61042147D01*
X72849973Y-61067834D01*
X72831402Y-61117623D01*
X72831401Y-61117627D01*
X72825000Y-61177155D01*
X72825000Y-61650000D01*
X73684314Y-61650000D01*
X73679920Y-61654394D01*
X73627259Y-61745606D01*
X73600000Y-61847339D01*
X73600000Y-61952661D01*
X73627259Y-62054394D01*
X73679920Y-62145606D01*
X73684314Y-62150000D01*
X72825000Y-62150000D01*
X72825000Y-62622844D01*
X72831401Y-62682372D01*
X72831403Y-62682379D01*
X72881645Y-62817086D01*
X72881649Y-62817093D01*
X72967809Y-62932187D01*
X72967812Y-62932190D01*
X73082906Y-63018350D01*
X73082913Y-63018354D01*
X73217620Y-63068596D01*
X73217627Y-63068598D01*
X73277155Y-63074999D01*
X73277172Y-63075000D01*
X73750000Y-63075000D01*
X73750000Y-62215686D01*
X73754394Y-62220080D01*
X73845606Y-62272741D01*
X73947339Y-62300000D01*
X74052661Y-62300000D01*
X74154394Y-62272741D01*
X74245606Y-62220080D01*
X74250000Y-62215686D01*
X74250000Y-63075000D01*
X74722828Y-63075000D01*
X74722844Y-63074999D01*
X74782372Y-63068598D01*
X74782376Y-63068597D01*
X74832166Y-63050027D01*
X74901858Y-63045043D01*
X74963181Y-63078528D01*
X74996666Y-63139851D01*
X74999500Y-63166209D01*
X74999500Y-75706921D01*
X74979815Y-75773960D01*
X74927011Y-75819715D01*
X74857853Y-75829659D01*
X74809528Y-75811915D01*
X74749523Y-75774211D01*
X74579254Y-75714631D01*
X74579249Y-75714630D01*
X74400004Y-75694435D01*
X74399996Y-75694435D01*
X74220750Y-75714630D01*
X74220745Y-75714631D01*
X74050476Y-75774211D01*
X73897736Y-75870185D01*
X73894903Y-75872445D01*
X73892724Y-75873334D01*
X73891842Y-75873889D01*
X73891744Y-75873734D01*
X73830217Y-75898855D01*
X73817588Y-75899500D01*
X73482412Y-75899500D01*
X73415373Y-75879815D01*
X73405097Y-75872445D01*
X73402263Y-75870185D01*
X73402262Y-75870184D01*
X73309528Y-75811915D01*
X73249523Y-75774211D01*
X73079254Y-75714631D01*
X73079249Y-75714630D01*
X72900004Y-75694435D01*
X72899996Y-75694435D01*
X72720750Y-75714630D01*
X72720745Y-75714631D01*
X72550476Y-75774211D01*
X72397737Y-75870184D01*
X72270184Y-75997737D01*
X72174211Y-76150476D01*
X72114631Y-76320745D01*
X72114630Y-76320750D01*
X72094435Y-76499996D01*
X72094435Y-76500003D01*
X72114630Y-76679249D01*
X72114631Y-76679254D01*
X72174211Y-76849523D01*
X72205926Y-76899996D01*
X72270184Y-77002262D01*
X72397738Y-77129816D01*
X72550478Y-77225789D01*
X72618306Y-77249523D01*
X72720745Y-77285368D01*
X72720750Y-77285369D01*
X72899996Y-77305565D01*
X72900000Y-77305565D01*
X72900004Y-77305565D01*
X73079249Y-77285369D01*
X73079252Y-77285368D01*
X73079255Y-77285368D01*
X73249522Y-77225789D01*
X73402262Y-77129816D01*
X73402267Y-77129810D01*
X73405097Y-77127555D01*
X73407275Y-77126665D01*
X73408158Y-77126111D01*
X73408255Y-77126265D01*
X73469783Y-77101145D01*
X73482412Y-77100500D01*
X73817588Y-77100500D01*
X73884627Y-77120185D01*
X73894903Y-77127555D01*
X73897736Y-77129814D01*
X73897738Y-77129816D01*
X74050478Y-77225789D01*
X74118306Y-77249523D01*
X74220745Y-77285368D01*
X74220750Y-77285369D01*
X74399996Y-77305565D01*
X74400000Y-77305565D01*
X74400004Y-77305565D01*
X74579249Y-77285369D01*
X74579252Y-77285368D01*
X74579255Y-77285368D01*
X74749522Y-77225789D01*
X74809527Y-77188084D01*
X74876763Y-77169084D01*
X74943599Y-77189451D01*
X74988813Y-77242718D01*
X74999500Y-77293078D01*
X74999500Y-82939687D01*
X74979815Y-83006726D01*
X74927011Y-83052481D01*
X74857853Y-83062425D01*
X74794297Y-83033400D01*
X74791963Y-83031325D01*
X74756213Y-82998735D01*
X74711432Y-82957912D01*
X74711425Y-82957908D01*
X74711423Y-82957906D01*
X74526213Y-82843229D01*
X74526207Y-82843226D01*
X74441113Y-82810260D01*
X74323069Y-82764530D01*
X74108926Y-82724500D01*
X73891074Y-82724500D01*
X73676931Y-82764530D01*
X73633896Y-82781202D01*
X73473792Y-82843226D01*
X73473786Y-82843229D01*
X73288576Y-82957906D01*
X73288566Y-82957913D01*
X73127573Y-83104676D01*
X73098953Y-83142576D01*
X73042844Y-83184211D01*
X72973132Y-83188902D01*
X72911950Y-83155159D01*
X72901047Y-83142576D01*
X72872426Y-83104676D01*
X72711433Y-82957913D01*
X72711423Y-82957906D01*
X72526213Y-82843229D01*
X72526207Y-82843226D01*
X72441113Y-82810260D01*
X72323069Y-82764530D01*
X72108926Y-82724500D01*
X71891074Y-82724500D01*
X71676931Y-82764530D01*
X71633896Y-82781202D01*
X71473792Y-82843226D01*
X71473786Y-82843229D01*
X71288565Y-82957913D01*
X71277585Y-82967923D01*
X71214780Y-82998537D01*
X71145393Y-82990336D01*
X71094785Y-82950594D01*
X71057108Y-82900265D01*
X71032546Y-82867454D01*
X71032544Y-82867453D01*
X71032544Y-82867452D01*
X70917335Y-82781206D01*
X70917328Y-82781202D01*
X70782482Y-82730908D01*
X70782483Y-82730908D01*
X70722883Y-82724501D01*
X70722881Y-82724500D01*
X70722873Y-82724500D01*
X70722864Y-82724500D01*
X69277129Y-82724500D01*
X69277123Y-82724501D01*
X69217516Y-82730908D01*
X69082671Y-82781202D01*
X69082664Y-82781206D01*
X68967455Y-82867452D01*
X68967452Y-82867455D01*
X68881206Y-82982664D01*
X68881202Y-82982671D01*
X68830908Y-83117517D01*
X68824501Y-83177116D01*
X68824500Y-83177135D01*
X68824500Y-84622870D01*
X68824501Y-84622876D01*
X68830908Y-84682481D01*
X68849440Y-84732166D01*
X68854424Y-84801858D01*
X68820939Y-84863181D01*
X68759616Y-84896666D01*
X68733258Y-84899500D01*
X65810947Y-84899500D01*
X65743908Y-84879815D01*
X65698153Y-84827011D01*
X65688209Y-84757853D01*
X65711681Y-84701189D01*
X65793350Y-84592093D01*
X65793354Y-84592086D01*
X65843596Y-84457379D01*
X65843598Y-84457372D01*
X65849999Y-84397844D01*
X65850000Y-84397827D01*
X65850000Y-83750000D01*
X64933012Y-83750000D01*
X64965925Y-83692993D01*
X65000000Y-83565826D01*
X65000000Y-83434174D01*
X64965925Y-83307007D01*
X64933012Y-83250000D01*
X65850000Y-83250000D01*
X65850000Y-82602172D01*
X65849999Y-82602155D01*
X65843598Y-82542627D01*
X65843596Y-82542620D01*
X65793354Y-82407913D01*
X65793350Y-82407906D01*
X65707190Y-82292812D01*
X65707187Y-82292809D01*
X65592093Y-82206649D01*
X65592086Y-82206645D01*
X65457379Y-82156403D01*
X65457372Y-82156401D01*
X65397844Y-82150000D01*
X64750000Y-82150000D01*
X64750000Y-83066988D01*
X64692993Y-83034075D01*
X64565826Y-83000000D01*
X64434174Y-83000000D01*
X64307007Y-83034075D01*
X64250000Y-83066988D01*
X64250000Y-82150000D01*
X63602155Y-82150000D01*
X63542627Y-82156401D01*
X63542620Y-82156403D01*
X63518835Y-82165274D01*
X63449143Y-82170257D01*
X63387820Y-82136770D01*
X63354337Y-82075446D01*
X63359323Y-82005754D01*
X63387821Y-81961412D01*
X67468713Y-77880521D01*
X67468716Y-77880520D01*
X67580520Y-77768716D01*
X67630639Y-77681904D01*
X67659577Y-77631785D01*
X67700500Y-77479057D01*
X67700500Y-77320943D01*
X67700500Y-70582412D01*
X67720185Y-70515373D01*
X67727555Y-70505097D01*
X67729810Y-70502267D01*
X67729816Y-70502262D01*
X67825789Y-70349522D01*
X67885368Y-70179255D01*
X67905565Y-70000000D01*
X67885368Y-69820745D01*
X67825789Y-69650478D01*
X67729816Y-69497738D01*
X67602262Y-69370184D01*
X67449523Y-69274211D01*
X67279254Y-69214631D01*
X67279249Y-69214630D01*
X67100004Y-69194435D01*
X67099996Y-69194435D01*
X66920750Y-69214630D01*
X66920745Y-69214631D01*
X66750476Y-69274211D01*
X66597737Y-69370184D01*
X66470184Y-69497737D01*
X66374211Y-69650476D01*
X66314631Y-69820745D01*
X66314630Y-69820750D01*
X66294435Y-69999996D01*
X66294435Y-70000003D01*
X66314630Y-70179249D01*
X66314631Y-70179254D01*
X66374211Y-70349523D01*
X66470185Y-70502263D01*
X66472445Y-70505097D01*
X66473334Y-70507275D01*
X66473889Y-70508158D01*
X66473734Y-70508255D01*
X66498855Y-70569783D01*
X66499500Y-70582412D01*
X66499500Y-77099902D01*
X66479815Y-77166941D01*
X66463181Y-77187583D01*
X60962180Y-82688584D01*
X60900857Y-82722069D01*
X60831165Y-82717085D01*
X60775232Y-82675213D01*
X60750815Y-82609749D01*
X60750630Y-82604589D01*
X60750499Y-82602141D01*
X60750499Y-82602128D01*
X60744091Y-82542517D01*
X60740088Y-82531785D01*
X60693797Y-82407671D01*
X60693793Y-82407664D01*
X60607547Y-82292455D01*
X60607544Y-82292452D01*
X60492335Y-82206206D01*
X60492328Y-82206202D01*
X60357482Y-82155908D01*
X60357483Y-82155908D01*
X60297883Y-82149501D01*
X60297881Y-82149500D01*
X60297873Y-82149500D01*
X60297865Y-82149500D01*
X58950097Y-82149500D01*
X58883058Y-82129815D01*
X58862416Y-82113181D01*
X58036819Y-81287584D01*
X58003334Y-81226261D01*
X58000500Y-81199903D01*
X58000500Y-70582412D01*
X58020185Y-70515373D01*
X58027555Y-70505097D01*
X58029810Y-70502267D01*
X58029816Y-70502262D01*
X58125789Y-70349522D01*
X58185368Y-70179255D01*
X58205565Y-70000000D01*
X58185368Y-69820745D01*
X58125789Y-69650478D01*
X58029816Y-69497738D01*
X57902262Y-69370184D01*
X57749523Y-69274211D01*
X57579254Y-69214631D01*
X57579249Y-69214630D01*
X57400004Y-69194435D01*
X57399996Y-69194435D01*
X57220750Y-69214630D01*
X57220745Y-69214631D01*
X57050476Y-69274211D01*
X56897737Y-69370184D01*
X56770184Y-69497737D01*
X56674211Y-69650476D01*
X56614631Y-69820745D01*
X56614630Y-69820750D01*
X56594435Y-69999996D01*
X56594435Y-70000003D01*
X56614630Y-70179249D01*
X56614631Y-70179254D01*
X56674211Y-70349523D01*
X56770185Y-70502263D01*
X56772445Y-70505097D01*
X56773334Y-70507275D01*
X56773889Y-70508158D01*
X56773734Y-70508255D01*
X56798855Y-70569783D01*
X56799500Y-70582412D01*
X56799500Y-81413330D01*
X56799499Y-81413348D01*
X56799499Y-81579054D01*
X56799498Y-81579054D01*
X56840423Y-81731785D01*
X56869358Y-81781900D01*
X56869359Y-81781904D01*
X56869360Y-81781904D01*
X56919479Y-81868714D01*
X56919481Y-81868717D01*
X57038349Y-81987585D01*
X57038355Y-81987590D01*
X58013181Y-82962416D01*
X58046666Y-83023739D01*
X58049500Y-83050097D01*
X58049500Y-84397870D01*
X58049501Y-84397876D01*
X58055908Y-84457483D01*
X58106202Y-84592328D01*
X58106206Y-84592335D01*
X58187695Y-84701189D01*
X58212113Y-84766653D01*
X58197262Y-84834926D01*
X58147857Y-84884332D01*
X58088429Y-84899500D01*
X56967127Y-84899500D01*
X56900088Y-84879815D01*
X56854333Y-84827011D01*
X56844389Y-84757853D01*
X56870373Y-84700955D01*
X56868972Y-84699897D01*
X56872427Y-84695322D01*
X57003712Y-84521472D01*
X57100817Y-84326459D01*
X57160435Y-84116923D01*
X57180536Y-83900000D01*
X57160435Y-83683077D01*
X57100817Y-83473541D01*
X57003712Y-83278528D01*
X56872427Y-83104678D01*
X56845016Y-83079690D01*
X56755996Y-82998537D01*
X56711432Y-82957912D01*
X56711428Y-82957909D01*
X56711423Y-82957906D01*
X56526213Y-82843229D01*
X56526207Y-82843226D01*
X56441113Y-82810260D01*
X56323069Y-82764530D01*
X56108926Y-82724500D01*
X55891074Y-82724500D01*
X55891073Y-82724500D01*
X55772209Y-82746718D01*
X55702694Y-82739686D01*
X55661745Y-82712510D01*
X54213663Y-81264428D01*
X54184303Y-81217704D01*
X54125789Y-81050478D01*
X54029816Y-80897738D01*
X53902262Y-80770184D01*
X53834027Y-80727309D01*
X53749523Y-80674211D01*
X53579254Y-80614631D01*
X53579249Y-80614630D01*
X53400004Y-80594435D01*
X53399996Y-80594435D01*
X53220750Y-80614630D01*
X53220737Y-80614633D01*
X53050479Y-80674209D01*
X52965971Y-80727309D01*
X52898734Y-80746309D01*
X52834029Y-80727309D01*
X52749520Y-80674209D01*
X52579262Y-80614633D01*
X52579249Y-80614630D01*
X52400004Y-80594435D01*
X52399996Y-80594435D01*
X52220750Y-80614630D01*
X52220745Y-80614631D01*
X52050476Y-80674211D01*
X51897737Y-80770184D01*
X51770184Y-80897737D01*
X51674211Y-81050476D01*
X51614631Y-81220745D01*
X51614630Y-81220750D01*
X51594435Y-81399996D01*
X51594435Y-81400003D01*
X51614630Y-81579249D01*
X51614631Y-81579254D01*
X51674211Y-81749523D01*
X51694555Y-81781900D01*
X51749104Y-81868714D01*
X51770185Y-81902263D01*
X51772445Y-81905097D01*
X51773334Y-81907275D01*
X51773889Y-81908158D01*
X51773734Y-81908255D01*
X51798855Y-81969783D01*
X51799500Y-81982412D01*
X51799500Y-82213330D01*
X51799499Y-82213348D01*
X51799499Y-82379054D01*
X51799498Y-82379054D01*
X51840423Y-82531785D01*
X51844299Y-82538498D01*
X51860773Y-82606398D01*
X51837922Y-82672426D01*
X51783001Y-82715617D01*
X51736913Y-82724500D01*
X51277129Y-82724500D01*
X51277123Y-82724501D01*
X51217514Y-82730909D01*
X51167832Y-82749439D01*
X51098140Y-82754423D01*
X51036817Y-82720937D01*
X51003333Y-82659613D01*
X51000500Y-82633257D01*
X51000500Y-64702135D01*
X55549500Y-64702135D01*
X55549500Y-66497870D01*
X55549501Y-66497876D01*
X55555908Y-66557483D01*
X55606202Y-66692328D01*
X55606206Y-66692335D01*
X55692452Y-66807544D01*
X55692455Y-66807547D01*
X55807664Y-66893793D01*
X55807671Y-66893797D01*
X55942517Y-66944091D01*
X55942516Y-66944091D01*
X55949444Y-66944835D01*
X56002127Y-66950500D01*
X57797872Y-66950499D01*
X57857483Y-66944091D01*
X57992331Y-66893796D01*
X58107546Y-66807546D01*
X58193796Y-66692331D01*
X58242810Y-66560916D01*
X58284681Y-66504984D01*
X58350145Y-66480566D01*
X58418418Y-66495417D01*
X58446673Y-66516569D01*
X58568599Y-66638495D01*
X58665384Y-66706265D01*
X58762165Y-66774032D01*
X58762167Y-66774033D01*
X58762170Y-66774035D01*
X58976337Y-66873903D01*
X59204592Y-66935063D01*
X59381034Y-66950500D01*
X59439999Y-66955659D01*
X59440000Y-66955659D01*
X59440001Y-66955659D01*
X59498966Y-66950500D01*
X59675408Y-66935063D01*
X59803757Y-66900672D01*
X59873606Y-66902335D01*
X59923531Y-66932766D01*
X61163181Y-68172416D01*
X61196666Y-68233739D01*
X61199500Y-68260097D01*
X61199500Y-75117587D01*
X61179815Y-75184626D01*
X61172450Y-75194896D01*
X61170186Y-75197734D01*
X61074211Y-75350476D01*
X61014631Y-75520745D01*
X61014630Y-75520750D01*
X60994435Y-75699996D01*
X60994435Y-75700003D01*
X61014630Y-75879249D01*
X61014631Y-75879254D01*
X61074211Y-76049523D01*
X61137646Y-76150478D01*
X61170184Y-76202262D01*
X61297738Y-76329816D01*
X61396452Y-76391842D01*
X61450478Y-76425789D01*
X61571633Y-76468183D01*
X61628409Y-76508905D01*
X61654157Y-76573858D01*
X61647721Y-76626179D01*
X61614632Y-76720742D01*
X61614630Y-76720750D01*
X61594435Y-76899996D01*
X61594435Y-76900003D01*
X61614630Y-77079249D01*
X61614631Y-77079254D01*
X61674211Y-77249523D01*
X61770184Y-77402262D01*
X61897738Y-77529816D01*
X62050478Y-77625789D01*
X62210877Y-77681915D01*
X62220745Y-77685368D01*
X62220750Y-77685369D01*
X62399996Y-77705565D01*
X62400000Y-77705565D01*
X62400004Y-77705565D01*
X62579249Y-77685369D01*
X62579252Y-77685368D01*
X62579255Y-77685368D01*
X62749522Y-77625789D01*
X62902262Y-77529816D01*
X63029816Y-77402262D01*
X63125789Y-77249522D01*
X63185368Y-77079255D01*
X63185369Y-77079249D01*
X63205565Y-76900003D01*
X63205565Y-76899996D01*
X63185369Y-76720750D01*
X63185368Y-76720745D01*
X63125788Y-76550476D01*
X63084878Y-76485368D01*
X63029816Y-76397738D01*
X63029814Y-76397736D01*
X63029813Y-76397734D01*
X63027550Y-76394896D01*
X63026659Y-76392715D01*
X63026111Y-76391842D01*
X63026264Y-76391745D01*
X63001144Y-76330209D01*
X63000500Y-76317587D01*
X63000500Y-75383062D01*
X63020185Y-75316023D01*
X63072989Y-75270268D01*
X63142147Y-75260324D01*
X63165448Y-75266018D01*
X63220745Y-75285368D01*
X63220748Y-75285368D01*
X63220750Y-75285369D01*
X63399996Y-75305565D01*
X63400000Y-75305565D01*
X63400004Y-75305565D01*
X63579249Y-75285369D01*
X63579252Y-75285368D01*
X63579255Y-75285368D01*
X63749522Y-75225789D01*
X63902262Y-75129816D01*
X64029816Y-75002262D01*
X64125789Y-74849522D01*
X64185368Y-74679255D01*
X64205565Y-74500000D01*
X64185368Y-74320745D01*
X64185367Y-74320743D01*
X64185366Y-74320737D01*
X64131176Y-74165871D01*
X64127614Y-74096092D01*
X64162342Y-74035465D01*
X64224336Y-74003237D01*
X64234325Y-74001697D01*
X64315336Y-73992569D01*
X64379249Y-73985369D01*
X64379252Y-73985368D01*
X64379255Y-73985368D01*
X64549522Y-73925789D01*
X64702262Y-73829816D01*
X64829816Y-73702262D01*
X64925789Y-73549522D01*
X64985368Y-73379255D01*
X65005565Y-73200000D01*
X64985368Y-73020745D01*
X64925789Y-72850478D01*
X64829816Y-72697738D01*
X64829814Y-72697736D01*
X64829813Y-72697734D01*
X64827550Y-72694896D01*
X64826659Y-72692715D01*
X64826111Y-72691842D01*
X64826264Y-72691745D01*
X64801144Y-72630209D01*
X64800500Y-72617587D01*
X64800500Y-68760097D01*
X64820185Y-68693058D01*
X64836819Y-68672416D01*
X65698971Y-67810264D01*
X66576470Y-66932764D01*
X66637791Y-66899281D01*
X66696242Y-66900672D01*
X66751990Y-66915609D01*
X66824592Y-66935063D01*
X67001034Y-66950500D01*
X67059999Y-66955659D01*
X67060000Y-66955659D01*
X67060001Y-66955659D01*
X67118966Y-66950500D01*
X67295408Y-66935063D01*
X67523663Y-66873903D01*
X67737830Y-66774035D01*
X67931401Y-66638495D01*
X68098495Y-66471401D01*
X68228425Y-66285842D01*
X68283002Y-66242217D01*
X68352500Y-66235023D01*
X68414855Y-66266546D01*
X68431575Y-66285842D01*
X68561500Y-66471395D01*
X68561505Y-66471401D01*
X68728599Y-66638495D01*
X68825384Y-66706265D01*
X68922165Y-66774032D01*
X68922167Y-66774033D01*
X68922170Y-66774035D01*
X69136337Y-66873903D01*
X69364592Y-66935063D01*
X69541034Y-66950500D01*
X69599999Y-66955659D01*
X69600000Y-66955659D01*
X69600001Y-66955659D01*
X69658966Y-66950500D01*
X69835408Y-66935063D01*
X70063663Y-66873903D01*
X70277830Y-66774035D01*
X70471401Y-66638495D01*
X70638495Y-66471401D01*
X70774035Y-66277830D01*
X70873903Y-66063663D01*
X70935063Y-65835408D01*
X70955659Y-65600000D01*
X70935063Y-65364592D01*
X70873903Y-65136337D01*
X70774035Y-64922171D01*
X70768425Y-64914158D01*
X70638494Y-64728597D01*
X70471402Y-64561506D01*
X70471395Y-64561501D01*
X70277834Y-64425967D01*
X70277830Y-64425965D01*
X70277828Y-64425964D01*
X70063663Y-64326097D01*
X70063659Y-64326096D01*
X70063655Y-64326094D01*
X69835413Y-64264938D01*
X69835403Y-64264936D01*
X69600001Y-64244341D01*
X69599999Y-64244341D01*
X69364596Y-64264936D01*
X69364586Y-64264938D01*
X69136344Y-64326094D01*
X69136335Y-64326098D01*
X68922171Y-64425964D01*
X68922169Y-64425965D01*
X68728597Y-64561505D01*
X68561505Y-64728597D01*
X68431575Y-64914158D01*
X68376998Y-64957783D01*
X68307500Y-64964977D01*
X68245145Y-64933454D01*
X68228425Y-64914158D01*
X68098494Y-64728597D01*
X67931402Y-64561506D01*
X67931395Y-64561501D01*
X67737834Y-64425967D01*
X67737830Y-64425965D01*
X67737828Y-64425964D01*
X67523663Y-64326097D01*
X67523659Y-64326096D01*
X67523655Y-64326094D01*
X67295413Y-64264938D01*
X67295403Y-64264936D01*
X67060001Y-64244341D01*
X67059999Y-64244341D01*
X66824596Y-64264936D01*
X66824586Y-64264938D01*
X66596344Y-64326094D01*
X66596335Y-64326098D01*
X66382171Y-64425964D01*
X66382169Y-64425965D01*
X66188597Y-64561505D01*
X66021505Y-64728597D01*
X65891575Y-64914158D01*
X65836998Y-64957783D01*
X65767500Y-64964977D01*
X65705145Y-64933454D01*
X65688425Y-64914158D01*
X65558494Y-64728597D01*
X65391402Y-64561506D01*
X65391395Y-64561501D01*
X65197834Y-64425967D01*
X65197830Y-64425965D01*
X65197828Y-64425964D01*
X64983663Y-64326097D01*
X64983659Y-64326096D01*
X64983655Y-64326094D01*
X64755413Y-64264938D01*
X64755403Y-64264936D01*
X64520001Y-64244341D01*
X64519999Y-64244341D01*
X64284596Y-64264936D01*
X64284586Y-64264938D01*
X64056344Y-64326094D01*
X64056335Y-64326098D01*
X63842171Y-64425964D01*
X63842169Y-64425965D01*
X63648597Y-64561505D01*
X63481508Y-64728594D01*
X63351574Y-64914160D01*
X63296997Y-64957784D01*
X63227498Y-64964977D01*
X63165144Y-64933455D01*
X63148424Y-64914159D01*
X63018493Y-64728597D01*
X62851401Y-64561506D01*
X62851394Y-64561501D01*
X62657833Y-64425967D01*
X62657829Y-64425965D01*
X62657827Y-64425964D01*
X62443662Y-64326097D01*
X62443658Y-64326096D01*
X62443654Y-64326094D01*
X62215412Y-64264938D01*
X62215402Y-64264936D01*
X61980000Y-64244341D01*
X61979998Y-64244341D01*
X61744595Y-64264936D01*
X61744585Y-64264938D01*
X61516343Y-64326094D01*
X61516334Y-64326098D01*
X61302170Y-64425964D01*
X61302168Y-64425965D01*
X61108596Y-64561505D01*
X60941507Y-64728594D01*
X60811574Y-64914158D01*
X60756997Y-64957782D01*
X60687498Y-64964975D01*
X60625144Y-64933453D01*
X60608424Y-64914157D01*
X60478494Y-64728597D01*
X60311402Y-64561506D01*
X60311395Y-64561501D01*
X60117834Y-64425967D01*
X60117830Y-64425965D01*
X60117828Y-64425964D01*
X59903663Y-64326097D01*
X59903659Y-64326096D01*
X59903655Y-64326094D01*
X59675413Y-64264938D01*
X59675403Y-64264936D01*
X59440001Y-64244341D01*
X59439999Y-64244341D01*
X59204596Y-64264936D01*
X59204586Y-64264938D01*
X58976344Y-64326094D01*
X58976335Y-64326098D01*
X58762171Y-64425964D01*
X58762169Y-64425965D01*
X58568600Y-64561503D01*
X58446673Y-64683430D01*
X58385350Y-64716914D01*
X58315658Y-64711930D01*
X58259725Y-64670058D01*
X58242810Y-64639081D01*
X58193797Y-64507671D01*
X58193793Y-64507664D01*
X58107547Y-64392455D01*
X58107544Y-64392452D01*
X57992335Y-64306206D01*
X57992328Y-64306202D01*
X57857482Y-64255908D01*
X57857483Y-64255908D01*
X57797883Y-64249501D01*
X57797881Y-64249500D01*
X57797873Y-64249500D01*
X57797864Y-64249500D01*
X56002129Y-64249500D01*
X56002123Y-64249501D01*
X55942516Y-64255908D01*
X55807671Y-64306202D01*
X55807664Y-64306206D01*
X55692455Y-64392452D01*
X55692452Y-64392455D01*
X55606206Y-64507664D01*
X55606202Y-64507671D01*
X55555908Y-64642517D01*
X55549501Y-64702116D01*
X55549500Y-64702135D01*
X51000500Y-64702135D01*
X51000500Y-63166209D01*
X51020185Y-63099170D01*
X51072989Y-63053415D01*
X51142147Y-63043471D01*
X51167834Y-63050027D01*
X51217623Y-63068597D01*
X51217627Y-63068598D01*
X51277155Y-63074999D01*
X51277172Y-63075000D01*
X51750000Y-63075000D01*
X51750000Y-62215686D01*
X51754394Y-62220080D01*
X51845606Y-62272741D01*
X51947339Y-62300000D01*
X52052661Y-62300000D01*
X52154394Y-62272741D01*
X52245606Y-62220080D01*
X52250000Y-62215686D01*
X52250000Y-63075000D01*
X52722828Y-63075000D01*
X52722844Y-63074999D01*
X52782372Y-63068598D01*
X52782379Y-63068596D01*
X52917086Y-63018354D01*
X52917093Y-63018350D01*
X53032187Y-62932190D01*
X53032190Y-62932187D01*
X53118350Y-62817093D01*
X53118354Y-62817086D01*
X53168596Y-62682379D01*
X53168598Y-62682372D01*
X53174999Y-62622844D01*
X53175000Y-62622827D01*
X53175000Y-62150000D01*
X52315686Y-62150000D01*
X52320080Y-62145606D01*
X52372741Y-62054394D01*
X52400000Y-61952661D01*
X52400000Y-61847339D01*
X52372741Y-61745606D01*
X52320080Y-61654394D01*
X52315686Y-61650000D01*
X53175000Y-61650000D01*
X53175000Y-61177172D01*
X53174999Y-61177155D01*
X53168598Y-61117627D01*
X53168597Y-61117623D01*
X53150027Y-61067834D01*
X53145043Y-60998142D01*
X53178528Y-60936819D01*
X53239851Y-60903334D01*
X53266209Y-60900500D01*
X58733257Y-60900500D01*
X58800296Y-60920185D01*
G37*
%TD.AperFunction*%
%TA.AperFunction,Conductor*%
G36*
X63092425Y-82359322D02*
G01*
X63148358Y-82401194D01*
X63172775Y-82466658D01*
X63165274Y-82518835D01*
X63156403Y-82542620D01*
X63156401Y-82542627D01*
X63150000Y-82602155D01*
X63150000Y-83250000D01*
X64066988Y-83250000D01*
X64034075Y-83307007D01*
X64000000Y-83434174D01*
X64000000Y-83565826D01*
X64034075Y-83692993D01*
X64066988Y-83750000D01*
X63150000Y-83750000D01*
X63150000Y-84397844D01*
X63156401Y-84457372D01*
X63156403Y-84457379D01*
X63206645Y-84592086D01*
X63206649Y-84592093D01*
X63288319Y-84701189D01*
X63312737Y-84766653D01*
X63297886Y-84834926D01*
X63248481Y-84884332D01*
X63189053Y-84899500D01*
X60711571Y-84899500D01*
X60644532Y-84879815D01*
X60598777Y-84827011D01*
X60588833Y-84757853D01*
X60612305Y-84701189D01*
X60693793Y-84592335D01*
X60693792Y-84592335D01*
X60693796Y-84592331D01*
X60744091Y-84457483D01*
X60750500Y-84397873D01*
X60750500Y-84324501D01*
X60770185Y-84257462D01*
X60822989Y-84211707D01*
X60874500Y-84200501D01*
X60979054Y-84200501D01*
X60979057Y-84200501D01*
X61131785Y-84159577D01*
X61181904Y-84130639D01*
X61268716Y-84080520D01*
X61380520Y-83968716D01*
X61380520Y-83968714D01*
X61390728Y-83958507D01*
X61390730Y-83958504D01*
X62961412Y-82387821D01*
X63022733Y-82354338D01*
X63092425Y-82359322D01*
G37*
%TD.AperFunction*%
%TD*%
M02*
