%TF.GenerationSoftware,KiCad,Pcbnew,8.0.3*%
%TF.CreationDate,2024-07-13T20:35:25+02:00*%
%TF.ProjectId,Shift Register Board,53686966-7420-4526-9567-697374657220,rev?*%
%TF.SameCoordinates,Original*%
%TF.FileFunction,Legend,Top*%
%TF.FilePolarity,Positive*%
%FSLAX46Y46*%
G04 Gerber Fmt 4.6, Leading zero omitted, Abs format (unit mm)*
G04 Created by KiCad (PCBNEW 8.0.3) date 2024-07-13 20:35:25*
%MOMM*%
%LPD*%
G01*
G04 APERTURE LIST*
%ADD10C,0.150000*%
%ADD11C,0.300000*%
%ADD12C,0.120000*%
G04 APERTURE END LIST*
D10*
X68036779Y-63469819D02*
X68036779Y-62469819D01*
X68036779Y-62469819D02*
X68274874Y-62469819D01*
X68274874Y-62469819D02*
X68417731Y-62517438D01*
X68417731Y-62517438D02*
X68512969Y-62612676D01*
X68512969Y-62612676D02*
X68560588Y-62707914D01*
X68560588Y-62707914D02*
X68608207Y-62898390D01*
X68608207Y-62898390D02*
X68608207Y-63041247D01*
X68608207Y-63041247D02*
X68560588Y-63231723D01*
X68560588Y-63231723D02*
X68512969Y-63326961D01*
X68512969Y-63326961D02*
X68417731Y-63422200D01*
X68417731Y-63422200D02*
X68274874Y-63469819D01*
X68274874Y-63469819D02*
X68036779Y-63469819D01*
X69227255Y-62469819D02*
X69417731Y-62469819D01*
X69417731Y-62469819D02*
X69512969Y-62517438D01*
X69512969Y-62517438D02*
X69608207Y-62612676D01*
X69608207Y-62612676D02*
X69655826Y-62803152D01*
X69655826Y-62803152D02*
X69655826Y-63136485D01*
X69655826Y-63136485D02*
X69608207Y-63326961D01*
X69608207Y-63326961D02*
X69512969Y-63422200D01*
X69512969Y-63422200D02*
X69417731Y-63469819D01*
X69417731Y-63469819D02*
X69227255Y-63469819D01*
X69227255Y-63469819D02*
X69132017Y-63422200D01*
X69132017Y-63422200D02*
X69036779Y-63326961D01*
X69036779Y-63326961D02*
X68989160Y-63136485D01*
X68989160Y-63136485D02*
X68989160Y-62803152D01*
X68989160Y-62803152D02*
X69036779Y-62612676D01*
X69036779Y-62612676D02*
X69132017Y-62517438D01*
X69132017Y-62517438D02*
X69227255Y-62469819D01*
X70084398Y-62469819D02*
X70084398Y-63279342D01*
X70084398Y-63279342D02*
X70132017Y-63374580D01*
X70132017Y-63374580D02*
X70179636Y-63422200D01*
X70179636Y-63422200D02*
X70274874Y-63469819D01*
X70274874Y-63469819D02*
X70465350Y-63469819D01*
X70465350Y-63469819D02*
X70560588Y-63422200D01*
X70560588Y-63422200D02*
X70608207Y-63374580D01*
X70608207Y-63374580D02*
X70655826Y-63279342D01*
X70655826Y-63279342D02*
X70655826Y-62469819D01*
X70989160Y-62469819D02*
X71560588Y-62469819D01*
X71274874Y-63469819D02*
X71274874Y-62469819D01*
D11*
X53268796Y-73100828D02*
X52554510Y-73100828D01*
X52554510Y-73100828D02*
X52554510Y-71600828D01*
X53768796Y-72315114D02*
X54268796Y-72315114D01*
X54483082Y-73100828D02*
X53768796Y-73100828D01*
X53768796Y-73100828D02*
X53768796Y-71600828D01*
X53768796Y-71600828D02*
X54483082Y-71600828D01*
X55125939Y-73100828D02*
X55125939Y-71600828D01*
X55125939Y-71600828D02*
X55483082Y-71600828D01*
X55483082Y-71600828D02*
X55697368Y-71672257D01*
X55697368Y-71672257D02*
X55840225Y-71815114D01*
X55840225Y-71815114D02*
X55911654Y-71957971D01*
X55911654Y-71957971D02*
X55983082Y-72243685D01*
X55983082Y-72243685D02*
X55983082Y-72457971D01*
X55983082Y-72457971D02*
X55911654Y-72743685D01*
X55911654Y-72743685D02*
X55840225Y-72886542D01*
X55840225Y-72886542D02*
X55697368Y-73029400D01*
X55697368Y-73029400D02*
X55483082Y-73100828D01*
X55483082Y-73100828D02*
X55125939Y-73100828D01*
X56625939Y-72529400D02*
X57768797Y-72529400D01*
X58483082Y-73100828D02*
X58483082Y-71600828D01*
X58483082Y-71600828D02*
X59340225Y-73100828D01*
X59340225Y-73100828D02*
X59340225Y-71600828D01*
X60054511Y-73100828D02*
X60054511Y-72100828D01*
X60054511Y-71600828D02*
X59983083Y-71672257D01*
X59983083Y-71672257D02*
X60054511Y-71743685D01*
X60054511Y-71743685D02*
X60125940Y-71672257D01*
X60125940Y-71672257D02*
X60054511Y-71600828D01*
X60054511Y-71600828D02*
X60054511Y-71743685D01*
X60625940Y-73100828D02*
X61411655Y-72100828D01*
X60625940Y-72100828D02*
X61411655Y-73100828D01*
X61983083Y-73100828D02*
X61983083Y-72100828D01*
X61983083Y-71600828D02*
X61911655Y-71672257D01*
X61911655Y-71672257D02*
X61983083Y-71743685D01*
X61983083Y-71743685D02*
X62054512Y-71672257D01*
X62054512Y-71672257D02*
X61983083Y-71600828D01*
X61983083Y-71600828D02*
X61983083Y-71743685D01*
X63268798Y-73029400D02*
X63125941Y-73100828D01*
X63125941Y-73100828D02*
X62840227Y-73100828D01*
X62840227Y-73100828D02*
X62697369Y-73029400D01*
X62697369Y-73029400D02*
X62625941Y-72886542D01*
X62625941Y-72886542D02*
X62625941Y-72315114D01*
X62625941Y-72315114D02*
X62697369Y-72172257D01*
X62697369Y-72172257D02*
X62840227Y-72100828D01*
X62840227Y-72100828D02*
X63125941Y-72100828D01*
X63125941Y-72100828D02*
X63268798Y-72172257D01*
X63268798Y-72172257D02*
X63340227Y-72315114D01*
X63340227Y-72315114D02*
X63340227Y-72457971D01*
X63340227Y-72457971D02*
X62625941Y-72600828D01*
X65054512Y-73029400D02*
X65268798Y-73100828D01*
X65268798Y-73100828D02*
X65625940Y-73100828D01*
X65625940Y-73100828D02*
X65768798Y-73029400D01*
X65768798Y-73029400D02*
X65840226Y-72957971D01*
X65840226Y-72957971D02*
X65911655Y-72815114D01*
X65911655Y-72815114D02*
X65911655Y-72672257D01*
X65911655Y-72672257D02*
X65840226Y-72529400D01*
X65840226Y-72529400D02*
X65768798Y-72457971D01*
X65768798Y-72457971D02*
X65625940Y-72386542D01*
X65625940Y-72386542D02*
X65340226Y-72315114D01*
X65340226Y-72315114D02*
X65197369Y-72243685D01*
X65197369Y-72243685D02*
X65125940Y-72172257D01*
X65125940Y-72172257D02*
X65054512Y-72029400D01*
X65054512Y-72029400D02*
X65054512Y-71886542D01*
X65054512Y-71886542D02*
X65125940Y-71743685D01*
X65125940Y-71743685D02*
X65197369Y-71672257D01*
X65197369Y-71672257D02*
X65340226Y-71600828D01*
X65340226Y-71600828D02*
X65697369Y-71600828D01*
X65697369Y-71600828D02*
X65911655Y-71672257D01*
X67411654Y-73100828D02*
X66911654Y-72386542D01*
X66554511Y-73100828D02*
X66554511Y-71600828D01*
X66554511Y-71600828D02*
X67125940Y-71600828D01*
X67125940Y-71600828D02*
X67268797Y-71672257D01*
X67268797Y-71672257D02*
X67340226Y-71743685D01*
X67340226Y-71743685D02*
X67411654Y-71886542D01*
X67411654Y-71886542D02*
X67411654Y-72100828D01*
X67411654Y-72100828D02*
X67340226Y-72243685D01*
X67340226Y-72243685D02*
X67268797Y-72315114D01*
X67268797Y-72315114D02*
X67125940Y-72386542D01*
X67125940Y-72386542D02*
X66554511Y-72386542D01*
X68554511Y-72315114D02*
X68768797Y-72386542D01*
X68768797Y-72386542D02*
X68840226Y-72457971D01*
X68840226Y-72457971D02*
X68911654Y-72600828D01*
X68911654Y-72600828D02*
X68911654Y-72815114D01*
X68911654Y-72815114D02*
X68840226Y-72957971D01*
X68840226Y-72957971D02*
X68768797Y-73029400D01*
X68768797Y-73029400D02*
X68625940Y-73100828D01*
X68625940Y-73100828D02*
X68054511Y-73100828D01*
X68054511Y-73100828D02*
X68054511Y-71600828D01*
X68054511Y-71600828D02*
X68554511Y-71600828D01*
X68554511Y-71600828D02*
X68697369Y-71672257D01*
X68697369Y-71672257D02*
X68768797Y-71743685D01*
X68768797Y-71743685D02*
X68840226Y-71886542D01*
X68840226Y-71886542D02*
X68840226Y-72029400D01*
X68840226Y-72029400D02*
X68768797Y-72172257D01*
X68768797Y-72172257D02*
X68697369Y-72243685D01*
X68697369Y-72243685D02*
X68554511Y-72315114D01*
X68554511Y-72315114D02*
X68054511Y-72315114D01*
D10*
X55236779Y-63569819D02*
X55236779Y-62569819D01*
X55236779Y-62569819D02*
X55474874Y-62569819D01*
X55474874Y-62569819D02*
X55617731Y-62617438D01*
X55617731Y-62617438D02*
X55712969Y-62712676D01*
X55712969Y-62712676D02*
X55760588Y-62807914D01*
X55760588Y-62807914D02*
X55808207Y-62998390D01*
X55808207Y-62998390D02*
X55808207Y-63141247D01*
X55808207Y-63141247D02*
X55760588Y-63331723D01*
X55760588Y-63331723D02*
X55712969Y-63426961D01*
X55712969Y-63426961D02*
X55617731Y-63522200D01*
X55617731Y-63522200D02*
X55474874Y-63569819D01*
X55474874Y-63569819D02*
X55236779Y-63569819D01*
X56236779Y-63569819D02*
X56236779Y-62569819D01*
X56712969Y-63569819D02*
X56712969Y-62569819D01*
X56712969Y-62569819D02*
X57284397Y-63569819D01*
X57284397Y-63569819D02*
X57284397Y-62569819D01*
X58036779Y-81488866D02*
X58798684Y-81488866D01*
X58417731Y-81869819D02*
X58417731Y-81107914D01*
X59751064Y-80869819D02*
X59274874Y-80869819D01*
X59274874Y-80869819D02*
X59227255Y-81346009D01*
X59227255Y-81346009D02*
X59274874Y-81298390D01*
X59274874Y-81298390D02*
X59370112Y-81250771D01*
X59370112Y-81250771D02*
X59608207Y-81250771D01*
X59608207Y-81250771D02*
X59703445Y-81298390D01*
X59703445Y-81298390D02*
X59751064Y-81346009D01*
X59751064Y-81346009D02*
X59798683Y-81441247D01*
X59798683Y-81441247D02*
X59798683Y-81679342D01*
X59798683Y-81679342D02*
X59751064Y-81774580D01*
X59751064Y-81774580D02*
X59703445Y-81822200D01*
X59703445Y-81822200D02*
X59608207Y-81869819D01*
X59608207Y-81869819D02*
X59370112Y-81869819D01*
X59370112Y-81869819D02*
X59274874Y-81822200D01*
X59274874Y-81822200D02*
X59227255Y-81774580D01*
X60084398Y-80869819D02*
X60417731Y-81869819D01*
X60417731Y-81869819D02*
X60751064Y-80869819D01*
X63860588Y-81017438D02*
X63765350Y-80969819D01*
X63765350Y-80969819D02*
X63622493Y-80969819D01*
X63622493Y-80969819D02*
X63479636Y-81017438D01*
X63479636Y-81017438D02*
X63384398Y-81112676D01*
X63384398Y-81112676D02*
X63336779Y-81207914D01*
X63336779Y-81207914D02*
X63289160Y-81398390D01*
X63289160Y-81398390D02*
X63289160Y-81541247D01*
X63289160Y-81541247D02*
X63336779Y-81731723D01*
X63336779Y-81731723D02*
X63384398Y-81826961D01*
X63384398Y-81826961D02*
X63479636Y-81922200D01*
X63479636Y-81922200D02*
X63622493Y-81969819D01*
X63622493Y-81969819D02*
X63717731Y-81969819D01*
X63717731Y-81969819D02*
X63860588Y-81922200D01*
X63860588Y-81922200D02*
X63908207Y-81874580D01*
X63908207Y-81874580D02*
X63908207Y-81541247D01*
X63908207Y-81541247D02*
X63717731Y-81541247D01*
X64336779Y-81969819D02*
X64336779Y-80969819D01*
X64336779Y-80969819D02*
X64908207Y-81969819D01*
X64908207Y-81969819D02*
X64908207Y-80969819D01*
X65384398Y-81969819D02*
X65384398Y-80969819D01*
X65384398Y-80969819D02*
X65622493Y-80969819D01*
X65622493Y-80969819D02*
X65765350Y-81017438D01*
X65765350Y-81017438D02*
X65860588Y-81112676D01*
X65860588Y-81112676D02*
X65908207Y-81207914D01*
X65908207Y-81207914D02*
X65955826Y-81398390D01*
X65955826Y-81398390D02*
X65955826Y-81541247D01*
X65955826Y-81541247D02*
X65908207Y-81731723D01*
X65908207Y-81731723D02*
X65860588Y-81826961D01*
X65860588Y-81826961D02*
X65765350Y-81922200D01*
X65765350Y-81922200D02*
X65622493Y-81969819D01*
X65622493Y-81969819D02*
X65384398Y-81969819D01*
X53108207Y-74469819D02*
X52774874Y-73993628D01*
X52536779Y-74469819D02*
X52536779Y-73469819D01*
X52536779Y-73469819D02*
X52917731Y-73469819D01*
X52917731Y-73469819D02*
X53012969Y-73517438D01*
X53012969Y-73517438D02*
X53060588Y-73565057D01*
X53060588Y-73565057D02*
X53108207Y-73660295D01*
X53108207Y-73660295D02*
X53108207Y-73803152D01*
X53108207Y-73803152D02*
X53060588Y-73898390D01*
X53060588Y-73898390D02*
X53012969Y-73946009D01*
X53012969Y-73946009D02*
X52917731Y-73993628D01*
X52917731Y-73993628D02*
X52536779Y-73993628D01*
X53917731Y-74422200D02*
X53822493Y-74469819D01*
X53822493Y-74469819D02*
X53632017Y-74469819D01*
X53632017Y-74469819D02*
X53536779Y-74422200D01*
X53536779Y-74422200D02*
X53489160Y-74326961D01*
X53489160Y-74326961D02*
X53489160Y-73946009D01*
X53489160Y-73946009D02*
X53536779Y-73850771D01*
X53536779Y-73850771D02*
X53632017Y-73803152D01*
X53632017Y-73803152D02*
X53822493Y-73803152D01*
X53822493Y-73803152D02*
X53917731Y-73850771D01*
X53917731Y-73850771D02*
X53965350Y-73946009D01*
X53965350Y-73946009D02*
X53965350Y-74041247D01*
X53965350Y-74041247D02*
X53489160Y-74136485D01*
X54298684Y-73803152D02*
X54536779Y-74469819D01*
X54536779Y-74469819D02*
X54774874Y-73803152D01*
X55155827Y-74374580D02*
X55203446Y-74422200D01*
X55203446Y-74422200D02*
X55155827Y-74469819D01*
X55155827Y-74469819D02*
X55108208Y-74422200D01*
X55108208Y-74422200D02*
X55155827Y-74374580D01*
X55155827Y-74374580D02*
X55155827Y-74469819D01*
X55584398Y-74184104D02*
X56060588Y-74184104D01*
X55489160Y-74469819D02*
X55822493Y-73469819D01*
X55822493Y-73469819D02*
X56155826Y-74469819D01*
X57251065Y-74088866D02*
X58012970Y-74088866D01*
X59441541Y-73469819D02*
X59536779Y-73469819D01*
X59536779Y-73469819D02*
X59632017Y-73517438D01*
X59632017Y-73517438D02*
X59679636Y-73565057D01*
X59679636Y-73565057D02*
X59727255Y-73660295D01*
X59727255Y-73660295D02*
X59774874Y-73850771D01*
X59774874Y-73850771D02*
X59774874Y-74088866D01*
X59774874Y-74088866D02*
X59727255Y-74279342D01*
X59727255Y-74279342D02*
X59679636Y-74374580D01*
X59679636Y-74374580D02*
X59632017Y-74422200D01*
X59632017Y-74422200D02*
X59536779Y-74469819D01*
X59536779Y-74469819D02*
X59441541Y-74469819D01*
X59441541Y-74469819D02*
X59346303Y-74422200D01*
X59346303Y-74422200D02*
X59298684Y-74374580D01*
X59298684Y-74374580D02*
X59251065Y-74279342D01*
X59251065Y-74279342D02*
X59203446Y-74088866D01*
X59203446Y-74088866D02*
X59203446Y-73850771D01*
X59203446Y-73850771D02*
X59251065Y-73660295D01*
X59251065Y-73660295D02*
X59298684Y-73565057D01*
X59298684Y-73565057D02*
X59346303Y-73517438D01*
X59346303Y-73517438D02*
X59441541Y-73469819D01*
X60632017Y-73469819D02*
X60441541Y-73469819D01*
X60441541Y-73469819D02*
X60346303Y-73517438D01*
X60346303Y-73517438D02*
X60298684Y-73565057D01*
X60298684Y-73565057D02*
X60203446Y-73707914D01*
X60203446Y-73707914D02*
X60155827Y-73898390D01*
X60155827Y-73898390D02*
X60155827Y-74279342D01*
X60155827Y-74279342D02*
X60203446Y-74374580D01*
X60203446Y-74374580D02*
X60251065Y-74422200D01*
X60251065Y-74422200D02*
X60346303Y-74469819D01*
X60346303Y-74469819D02*
X60536779Y-74469819D01*
X60536779Y-74469819D02*
X60632017Y-74422200D01*
X60632017Y-74422200D02*
X60679636Y-74374580D01*
X60679636Y-74374580D02*
X60727255Y-74279342D01*
X60727255Y-74279342D02*
X60727255Y-74041247D01*
X60727255Y-74041247D02*
X60679636Y-73946009D01*
X60679636Y-73946009D02*
X60632017Y-73898390D01*
X60632017Y-73898390D02*
X60536779Y-73850771D01*
X60536779Y-73850771D02*
X60346303Y-73850771D01*
X60346303Y-73850771D02*
X60251065Y-73898390D01*
X60251065Y-73898390D02*
X60203446Y-73946009D01*
X60203446Y-73946009D02*
X60155827Y-74041247D01*
X61870112Y-73422200D02*
X61012970Y-74707914D01*
X62155827Y-73565057D02*
X62203446Y-73517438D01*
X62203446Y-73517438D02*
X62298684Y-73469819D01*
X62298684Y-73469819D02*
X62536779Y-73469819D01*
X62536779Y-73469819D02*
X62632017Y-73517438D01*
X62632017Y-73517438D02*
X62679636Y-73565057D01*
X62679636Y-73565057D02*
X62727255Y-73660295D01*
X62727255Y-73660295D02*
X62727255Y-73755533D01*
X62727255Y-73755533D02*
X62679636Y-73898390D01*
X62679636Y-73898390D02*
X62108208Y-74469819D01*
X62108208Y-74469819D02*
X62727255Y-74469819D01*
X63584398Y-73803152D02*
X63584398Y-74469819D01*
X63346303Y-73422200D02*
X63108208Y-74136485D01*
X63108208Y-74136485D02*
X63727255Y-74136485D01*
X52898684Y-75603152D02*
X52898684Y-76412676D01*
X52898684Y-76412676D02*
X52870112Y-76507914D01*
X52870112Y-76507914D02*
X52841541Y-76555533D01*
X52841541Y-76555533D02*
X52784398Y-76603152D01*
X52784398Y-76603152D02*
X52698684Y-76603152D01*
X52698684Y-76603152D02*
X52641541Y-76555533D01*
X52898684Y-76222200D02*
X52841541Y-76269819D01*
X52841541Y-76269819D02*
X52727255Y-76269819D01*
X52727255Y-76269819D02*
X52670112Y-76222200D01*
X52670112Y-76222200D02*
X52641541Y-76174580D01*
X52641541Y-76174580D02*
X52612969Y-76079342D01*
X52612969Y-76079342D02*
X52612969Y-75793628D01*
X52612969Y-75793628D02*
X52641541Y-75698390D01*
X52641541Y-75698390D02*
X52670112Y-75650771D01*
X52670112Y-75650771D02*
X52727255Y-75603152D01*
X52727255Y-75603152D02*
X52841541Y-75603152D01*
X52841541Y-75603152D02*
X52898684Y-75650771D01*
X53184398Y-76269819D02*
X53184398Y-75603152D01*
X53184398Y-75269819D02*
X53155826Y-75317438D01*
X53155826Y-75317438D02*
X53184398Y-75365057D01*
X53184398Y-75365057D02*
X53212969Y-75317438D01*
X53212969Y-75317438D02*
X53184398Y-75269819D01*
X53184398Y-75269819D02*
X53184398Y-75365057D01*
X53384397Y-75603152D02*
X53612969Y-75603152D01*
X53470112Y-75269819D02*
X53470112Y-76126961D01*
X53470112Y-76126961D02*
X53498683Y-76222200D01*
X53498683Y-76222200D02*
X53555826Y-76269819D01*
X53555826Y-76269819D02*
X53612969Y-76269819D01*
X53812969Y-76269819D02*
X53812969Y-75269819D01*
X54070112Y-76269819D02*
X54070112Y-75746009D01*
X54070112Y-75746009D02*
X54041540Y-75650771D01*
X54041540Y-75650771D02*
X53984397Y-75603152D01*
X53984397Y-75603152D02*
X53898683Y-75603152D01*
X53898683Y-75603152D02*
X53841540Y-75650771D01*
X53841540Y-75650771D02*
X53812969Y-75698390D01*
X54612969Y-75603152D02*
X54612969Y-76269819D01*
X54355826Y-75603152D02*
X54355826Y-76126961D01*
X54355826Y-76126961D02*
X54384397Y-76222200D01*
X54384397Y-76222200D02*
X54441540Y-76269819D01*
X54441540Y-76269819D02*
X54527254Y-76269819D01*
X54527254Y-76269819D02*
X54584397Y-76222200D01*
X54584397Y-76222200D02*
X54612969Y-76174580D01*
X54898683Y-76269819D02*
X54898683Y-75269819D01*
X54898683Y-75650771D02*
X54955826Y-75603152D01*
X54955826Y-75603152D02*
X55070111Y-75603152D01*
X55070111Y-75603152D02*
X55127254Y-75650771D01*
X55127254Y-75650771D02*
X55155826Y-75698390D01*
X55155826Y-75698390D02*
X55184397Y-75793628D01*
X55184397Y-75793628D02*
X55184397Y-76079342D01*
X55184397Y-76079342D02*
X55155826Y-76174580D01*
X55155826Y-76174580D02*
X55127254Y-76222200D01*
X55127254Y-76222200D02*
X55070111Y-76269819D01*
X55070111Y-76269819D02*
X54955826Y-76269819D01*
X54955826Y-76269819D02*
X54898683Y-76222200D01*
X55441540Y-76174580D02*
X55470111Y-76222200D01*
X55470111Y-76222200D02*
X55441540Y-76269819D01*
X55441540Y-76269819D02*
X55412968Y-76222200D01*
X55412968Y-76222200D02*
X55441540Y-76174580D01*
X55441540Y-76174580D02*
X55441540Y-76269819D01*
X55984397Y-76222200D02*
X55927254Y-76269819D01*
X55927254Y-76269819D02*
X55812968Y-76269819D01*
X55812968Y-76269819D02*
X55755825Y-76222200D01*
X55755825Y-76222200D02*
X55727254Y-76174580D01*
X55727254Y-76174580D02*
X55698682Y-76079342D01*
X55698682Y-76079342D02*
X55698682Y-75793628D01*
X55698682Y-75793628D02*
X55727254Y-75698390D01*
X55727254Y-75698390D02*
X55755825Y-75650771D01*
X55755825Y-75650771D02*
X55812968Y-75603152D01*
X55812968Y-75603152D02*
X55927254Y-75603152D01*
X55927254Y-75603152D02*
X55984397Y-75650771D01*
X56327254Y-76269819D02*
X56270111Y-76222200D01*
X56270111Y-76222200D02*
X56241540Y-76174580D01*
X56241540Y-76174580D02*
X56212968Y-76079342D01*
X56212968Y-76079342D02*
X56212968Y-75793628D01*
X56212968Y-75793628D02*
X56241540Y-75698390D01*
X56241540Y-75698390D02*
X56270111Y-75650771D01*
X56270111Y-75650771D02*
X56327254Y-75603152D01*
X56327254Y-75603152D02*
X56412968Y-75603152D01*
X56412968Y-75603152D02*
X56470111Y-75650771D01*
X56470111Y-75650771D02*
X56498683Y-75698390D01*
X56498683Y-75698390D02*
X56527254Y-75793628D01*
X56527254Y-75793628D02*
X56527254Y-76079342D01*
X56527254Y-76079342D02*
X56498683Y-76174580D01*
X56498683Y-76174580D02*
X56470111Y-76222200D01*
X56470111Y-76222200D02*
X56412968Y-76269819D01*
X56412968Y-76269819D02*
X56327254Y-76269819D01*
X56784397Y-76269819D02*
X56784397Y-75603152D01*
X56784397Y-75698390D02*
X56812968Y-75650771D01*
X56812968Y-75650771D02*
X56870111Y-75603152D01*
X56870111Y-75603152D02*
X56955825Y-75603152D01*
X56955825Y-75603152D02*
X57012968Y-75650771D01*
X57012968Y-75650771D02*
X57041540Y-75746009D01*
X57041540Y-75746009D02*
X57041540Y-76269819D01*
X57041540Y-75746009D02*
X57070111Y-75650771D01*
X57070111Y-75650771D02*
X57127254Y-75603152D01*
X57127254Y-75603152D02*
X57212968Y-75603152D01*
X57212968Y-75603152D02*
X57270111Y-75650771D01*
X57270111Y-75650771D02*
X57298682Y-75746009D01*
X57298682Y-75746009D02*
X57298682Y-76269819D01*
X58012968Y-75222200D02*
X57498682Y-76507914D01*
X58470111Y-76269819D02*
X58470111Y-75269819D01*
X58470111Y-76222200D02*
X58412968Y-76269819D01*
X58412968Y-76269819D02*
X58298682Y-76269819D01*
X58298682Y-76269819D02*
X58241539Y-76222200D01*
X58241539Y-76222200D02*
X58212968Y-76174580D01*
X58212968Y-76174580D02*
X58184396Y-76079342D01*
X58184396Y-76079342D02*
X58184396Y-75793628D01*
X58184396Y-75793628D02*
X58212968Y-75698390D01*
X58212968Y-75698390D02*
X58241539Y-75650771D01*
X58241539Y-75650771D02*
X58298682Y-75603152D01*
X58298682Y-75603152D02*
X58412968Y-75603152D01*
X58412968Y-75603152D02*
X58470111Y-75650771D01*
X58698682Y-75269819D02*
X59070110Y-75269819D01*
X59070110Y-75269819D02*
X58870110Y-75650771D01*
X58870110Y-75650771D02*
X58955825Y-75650771D01*
X58955825Y-75650771D02*
X59012968Y-75698390D01*
X59012968Y-75698390D02*
X59041539Y-75746009D01*
X59041539Y-75746009D02*
X59070110Y-75841247D01*
X59070110Y-75841247D02*
X59070110Y-76079342D01*
X59070110Y-76079342D02*
X59041539Y-76174580D01*
X59041539Y-76174580D02*
X59012968Y-76222200D01*
X59012968Y-76222200D02*
X58955825Y-76269819D01*
X58955825Y-76269819D02*
X58784396Y-76269819D01*
X58784396Y-76269819D02*
X58727253Y-76222200D01*
X58727253Y-76222200D02*
X58698682Y-76174580D01*
X59327254Y-76269819D02*
X59327254Y-75603152D01*
X59327254Y-75698390D02*
X59355825Y-75650771D01*
X59355825Y-75650771D02*
X59412968Y-75603152D01*
X59412968Y-75603152D02*
X59498682Y-75603152D01*
X59498682Y-75603152D02*
X59555825Y-75650771D01*
X59555825Y-75650771D02*
X59584397Y-75746009D01*
X59584397Y-75746009D02*
X59584397Y-76269819D01*
X59584397Y-75746009D02*
X59612968Y-75650771D01*
X59612968Y-75650771D02*
X59670111Y-75603152D01*
X59670111Y-75603152D02*
X59755825Y-75603152D01*
X59755825Y-75603152D02*
X59812968Y-75650771D01*
X59812968Y-75650771D02*
X59841539Y-75746009D01*
X59841539Y-75746009D02*
X59841539Y-76269819D01*
X60212968Y-76269819D02*
X60155825Y-76222200D01*
X60155825Y-76222200D02*
X60127254Y-76174580D01*
X60127254Y-76174580D02*
X60098682Y-76079342D01*
X60098682Y-76079342D02*
X60098682Y-75793628D01*
X60098682Y-75793628D02*
X60127254Y-75698390D01*
X60127254Y-75698390D02*
X60155825Y-75650771D01*
X60155825Y-75650771D02*
X60212968Y-75603152D01*
X60212968Y-75603152D02*
X60298682Y-75603152D01*
X60298682Y-75603152D02*
X60355825Y-75650771D01*
X60355825Y-75650771D02*
X60384397Y-75698390D01*
X60384397Y-75698390D02*
X60412968Y-75793628D01*
X60412968Y-75793628D02*
X60412968Y-76079342D01*
X60412968Y-76079342D02*
X60384397Y-76174580D01*
X60384397Y-76174580D02*
X60355825Y-76222200D01*
X60355825Y-76222200D02*
X60298682Y-76269819D01*
X60298682Y-76269819D02*
X60212968Y-76269819D01*
X60755825Y-76269819D02*
X60698682Y-76222200D01*
X60698682Y-76222200D02*
X60670111Y-76126961D01*
X60670111Y-76126961D02*
X60670111Y-75269819D01*
X60984397Y-76269819D02*
X60984397Y-75603152D01*
X60984397Y-75269819D02*
X60955825Y-75317438D01*
X60955825Y-75317438D02*
X60984397Y-75365057D01*
X60984397Y-75365057D02*
X61012968Y-75317438D01*
X61012968Y-75317438D02*
X60984397Y-75269819D01*
X60984397Y-75269819D02*
X60984397Y-75365057D01*
X61184396Y-75603152D02*
X61412968Y-75603152D01*
X61270111Y-75269819D02*
X61270111Y-76126961D01*
X61270111Y-76126961D02*
X61298682Y-76222200D01*
X61298682Y-76222200D02*
X61355825Y-76269819D01*
X61355825Y-76269819D02*
X61412968Y-76269819D01*
X61841539Y-76222200D02*
X61784396Y-76269819D01*
X61784396Y-76269819D02*
X61670111Y-76269819D01*
X61670111Y-76269819D02*
X61612968Y-76222200D01*
X61612968Y-76222200D02*
X61584396Y-76126961D01*
X61584396Y-76126961D02*
X61584396Y-75746009D01*
X61584396Y-75746009D02*
X61612968Y-75650771D01*
X61612968Y-75650771D02*
X61670111Y-75603152D01*
X61670111Y-75603152D02*
X61784396Y-75603152D01*
X61784396Y-75603152D02*
X61841539Y-75650771D01*
X61841539Y-75650771D02*
X61870111Y-75746009D01*
X61870111Y-75746009D02*
X61870111Y-75841247D01*
X61870111Y-75841247D02*
X61584396Y-75936485D01*
X62555825Y-75222200D02*
X62041539Y-76507914D01*
X63041539Y-76269819D02*
X62755825Y-76269819D01*
X62755825Y-76269819D02*
X62755825Y-75269819D01*
X63241539Y-75746009D02*
X63441539Y-75746009D01*
X63527253Y-76269819D02*
X63241539Y-76269819D01*
X63241539Y-76269819D02*
X63241539Y-75269819D01*
X63241539Y-75269819D02*
X63527253Y-75269819D01*
X63784396Y-76269819D02*
X63784396Y-75269819D01*
X63784396Y-75269819D02*
X63927253Y-75269819D01*
X63927253Y-75269819D02*
X64012967Y-75317438D01*
X64012967Y-75317438D02*
X64070110Y-75412676D01*
X64070110Y-75412676D02*
X64098681Y-75507914D01*
X64098681Y-75507914D02*
X64127253Y-75698390D01*
X64127253Y-75698390D02*
X64127253Y-75841247D01*
X64127253Y-75841247D02*
X64098681Y-76031723D01*
X64098681Y-76031723D02*
X64070110Y-76126961D01*
X64070110Y-76126961D02*
X64012967Y-76222200D01*
X64012967Y-76222200D02*
X63927253Y-76269819D01*
X63927253Y-76269819D02*
X63784396Y-76269819D01*
X64384396Y-75888866D02*
X64841539Y-75888866D01*
X65127253Y-76269819D02*
X65127253Y-75269819D01*
X65127253Y-75269819D02*
X65470110Y-76269819D01*
X65470110Y-76269819D02*
X65470110Y-75269819D01*
X65755824Y-76269819D02*
X65755824Y-75603152D01*
X65755824Y-75269819D02*
X65727252Y-75317438D01*
X65727252Y-75317438D02*
X65755824Y-75365057D01*
X65755824Y-75365057D02*
X65784395Y-75317438D01*
X65784395Y-75317438D02*
X65755824Y-75269819D01*
X65755824Y-75269819D02*
X65755824Y-75365057D01*
X65984395Y-76269819D02*
X66298681Y-75603152D01*
X65984395Y-75603152D02*
X66298681Y-76269819D01*
X66527252Y-76269819D02*
X66527252Y-75603152D01*
X66527252Y-75269819D02*
X66498680Y-75317438D01*
X66498680Y-75317438D02*
X66527252Y-75365057D01*
X66527252Y-75365057D02*
X66555823Y-75317438D01*
X66555823Y-75317438D02*
X66527252Y-75269819D01*
X66527252Y-75269819D02*
X66527252Y-75365057D01*
X67041537Y-76222200D02*
X66984394Y-76269819D01*
X66984394Y-76269819D02*
X66870109Y-76269819D01*
X66870109Y-76269819D02*
X66812966Y-76222200D01*
X66812966Y-76222200D02*
X66784394Y-76126961D01*
X66784394Y-76126961D02*
X66784394Y-75746009D01*
X66784394Y-75746009D02*
X66812966Y-75650771D01*
X66812966Y-75650771D02*
X66870109Y-75603152D01*
X66870109Y-75603152D02*
X66984394Y-75603152D01*
X66984394Y-75603152D02*
X67041537Y-75650771D01*
X67041537Y-75650771D02*
X67070109Y-75746009D01*
X67070109Y-75746009D02*
X67070109Y-75841247D01*
X67070109Y-75841247D02*
X66784394Y-75936485D01*
X56954818Y-61933333D02*
X57669103Y-61933333D01*
X57669103Y-61933333D02*
X57811960Y-61980952D01*
X57811960Y-61980952D02*
X57907199Y-62076190D01*
X57907199Y-62076190D02*
X57954818Y-62219047D01*
X57954818Y-62219047D02*
X57954818Y-62314285D01*
X57954818Y-60933333D02*
X57954818Y-61504761D01*
X57954818Y-61219047D02*
X56954818Y-61219047D01*
X56954818Y-61219047D02*
X57097675Y-61314285D01*
X57097675Y-61314285D02*
X57192913Y-61409523D01*
X57192913Y-61409523D02*
X57240532Y-61504761D01*
X55654819Y-81833333D02*
X56369104Y-81833333D01*
X56369104Y-81833333D02*
X56511961Y-81880952D01*
X56511961Y-81880952D02*
X56607200Y-81976190D01*
X56607200Y-81976190D02*
X56654819Y-82119047D01*
X56654819Y-82119047D02*
X56654819Y-82214285D01*
X55654819Y-81452380D02*
X55654819Y-80833333D01*
X55654819Y-80833333D02*
X56035771Y-81166666D01*
X56035771Y-81166666D02*
X56035771Y-81023809D01*
X56035771Y-81023809D02*
X56083390Y-80928571D01*
X56083390Y-80928571D02*
X56131009Y-80880952D01*
X56131009Y-80880952D02*
X56226247Y-80833333D01*
X56226247Y-80833333D02*
X56464342Y-80833333D01*
X56464342Y-80833333D02*
X56559580Y-80880952D01*
X56559580Y-80880952D02*
X56607200Y-80928571D01*
X56607200Y-80928571D02*
X56654819Y-81023809D01*
X56654819Y-81023809D02*
X56654819Y-81309523D01*
X56654819Y-81309523D02*
X56607200Y-81404761D01*
X56607200Y-81404761D02*
X56559580Y-81452380D01*
X71266666Y-61054819D02*
X71266666Y-61769104D01*
X71266666Y-61769104D02*
X71219047Y-61911961D01*
X71219047Y-61911961D02*
X71123809Y-62007200D01*
X71123809Y-62007200D02*
X70980952Y-62054819D01*
X70980952Y-62054819D02*
X70885714Y-62054819D01*
X72219047Y-61054819D02*
X71742857Y-61054819D01*
X71742857Y-61054819D02*
X71695238Y-61531009D01*
X71695238Y-61531009D02*
X71742857Y-61483390D01*
X71742857Y-61483390D02*
X71838095Y-61435771D01*
X71838095Y-61435771D02*
X72076190Y-61435771D01*
X72076190Y-61435771D02*
X72171428Y-61483390D01*
X72171428Y-61483390D02*
X72219047Y-61531009D01*
X72219047Y-61531009D02*
X72266666Y-61626247D01*
X72266666Y-61626247D02*
X72266666Y-61864342D01*
X72266666Y-61864342D02*
X72219047Y-61959580D01*
X72219047Y-61959580D02*
X72171428Y-62007200D01*
X72171428Y-62007200D02*
X72076190Y-62054819D01*
X72076190Y-62054819D02*
X71838095Y-62054819D01*
X71838095Y-62054819D02*
X71742857Y-62007200D01*
X71742857Y-62007200D02*
X71695238Y-61959580D01*
X66954819Y-84233333D02*
X67669104Y-84233333D01*
X67669104Y-84233333D02*
X67811961Y-84280952D01*
X67811961Y-84280952D02*
X67907200Y-84376190D01*
X67907200Y-84376190D02*
X67954819Y-84519047D01*
X67954819Y-84519047D02*
X67954819Y-84614285D01*
X67050057Y-83804761D02*
X67002438Y-83757142D01*
X67002438Y-83757142D02*
X66954819Y-83661904D01*
X66954819Y-83661904D02*
X66954819Y-83423809D01*
X66954819Y-83423809D02*
X67002438Y-83328571D01*
X67002438Y-83328571D02*
X67050057Y-83280952D01*
X67050057Y-83280952D02*
X67145295Y-83233333D01*
X67145295Y-83233333D02*
X67240533Y-83233333D01*
X67240533Y-83233333D02*
X67383390Y-83280952D01*
X67383390Y-83280952D02*
X67954819Y-83852380D01*
X67954819Y-83852380D02*
X67954819Y-83233333D01*
X54066666Y-61054819D02*
X54066666Y-61769104D01*
X54066666Y-61769104D02*
X54019047Y-61911961D01*
X54019047Y-61911961D02*
X53923809Y-62007200D01*
X53923809Y-62007200D02*
X53780952Y-62054819D01*
X53780952Y-62054819D02*
X53685714Y-62054819D01*
X54971428Y-61388152D02*
X54971428Y-62054819D01*
X54733333Y-61007200D02*
X54495238Y-61721485D01*
X54495238Y-61721485D02*
X55114285Y-61721485D01*
D12*
%TO.C,J1*%
X58939999Y-60840000D02*
X59999999Y-60840000D01*
X58939999Y-61900000D02*
X58939999Y-60840000D01*
X60999999Y-60840000D02*
X67059999Y-60840000D01*
X60999999Y-62960000D02*
X60999999Y-60840000D01*
X60999999Y-62960000D02*
X67059999Y-62960000D01*
X67059999Y-62960000D02*
X67059999Y-60840000D01*
%TO.C,J3*%
X50940000Y-82840000D02*
X52000000Y-82840000D01*
X50940000Y-83900000D02*
X50940000Y-82840000D01*
X53000000Y-82840000D02*
X57060000Y-82840000D01*
X53000000Y-84960000D02*
X53000000Y-82840000D01*
X53000000Y-84960000D02*
X57060000Y-84960000D01*
X57060000Y-84960000D02*
X57060000Y-82840000D01*
%TO.C,J5*%
X72940000Y-62840000D02*
X72940000Y-62960000D01*
X72940000Y-62960000D02*
X75060000Y-62960000D01*
X74000000Y-60840000D02*
X75060000Y-60840000D01*
X75060000Y-60840000D02*
X75060000Y-61900000D01*
X75060000Y-62840000D02*
X75060000Y-62960000D01*
%TO.C,J2*%
X68940000Y-82840000D02*
X70000000Y-82840000D01*
X68940000Y-83900000D02*
X68940000Y-82840000D01*
X71000000Y-82840000D02*
X75060000Y-82840000D01*
X71000000Y-84960000D02*
X71000000Y-82840000D01*
X71000000Y-84960000D02*
X75060000Y-84960000D01*
X75060000Y-84960000D02*
X75060000Y-82840000D01*
%TO.C,J4*%
X50940000Y-62840000D02*
X50940000Y-62960000D01*
X50940000Y-62960000D02*
X53060000Y-62960000D01*
X52000000Y-60840000D02*
X53060000Y-60840000D01*
X53060000Y-60840000D02*
X53060000Y-61900000D01*
X53060000Y-62840000D02*
X53060000Y-62960000D01*
%TD*%
M02*
