%TF.GenerationSoftware,KiCad,Pcbnew,8.0.3*%
%TF.CreationDate,2024-07-13T20:35:25+02:00*%
%TF.ProjectId,Shift Register Board,53686966-7420-4526-9567-697374657220,rev?*%
%TF.SameCoordinates,Original*%
%TF.FileFunction,Copper,L2,Bot*%
%TF.FilePolarity,Positive*%
%FSLAX46Y46*%
G04 Gerber Fmt 4.6, Leading zero omitted, Abs format (unit mm)*
G04 Created by KiCad (PCBNEW 8.0.3) date 2024-07-13 20:35:25*
%MOMM*%
%LPD*%
G01*
G04 APERTURE LIST*
G04 Aperture macros list*
%AMRoundRect*
0 Rectangle with rounded corners*
0 $1 Rounding radius*
0 $2 $3 $4 $5 $6 $7 $8 $9 X,Y pos of 4 corners*
0 Add a 4 corners polygon primitive as box body*
4,1,4,$2,$3,$4,$5,$6,$7,$8,$9,$2,$3,0*
0 Add four circle primitives for the rounded corners*
1,1,$1+$1,$2,$3*
1,1,$1+$1,$4,$5*
1,1,$1+$1,$6,$7*
1,1,$1+$1,$8,$9*
0 Add four rect primitives between the rounded corners*
20,1,$1+$1,$2,$3,$4,$5,0*
20,1,$1+$1,$4,$5,$6,$7,0*
20,1,$1+$1,$6,$7,$8,$9,0*
20,1,$1+$1,$8,$9,$2,$3,0*%
G04 Aperture macros list end*
%TA.AperFunction,ComponentPad*%
%ADD10R,1.350000X1.350000*%
%TD*%
%TA.AperFunction,ComponentPad*%
%ADD11O,1.350000X1.350000*%
%TD*%
%TA.AperFunction,ComponentPad*%
%ADD12R,1.700000X1.700000*%
%TD*%
%TA.AperFunction,SMDPad,CuDef*%
%ADD13RoundRect,0.250000X0.475000X-0.250000X0.475000X0.250000X-0.475000X0.250000X-0.475000X-0.250000X0*%
%TD*%
%TA.AperFunction,SMDPad,CuDef*%
%ADD14RoundRect,0.150000X0.725000X0.150000X-0.725000X0.150000X-0.725000X-0.150000X0.725000X-0.150000X0*%
%TD*%
%TA.AperFunction,ComponentPad*%
%ADD15O,1.700000X1.700000*%
%TD*%
%TA.AperFunction,ViaPad*%
%ADD16C,0.600000*%
%TD*%
%TA.AperFunction,Conductor*%
%ADD17C,0.200000*%
%TD*%
G04 APERTURE END LIST*
D10*
%TO.P,J1,1,Pin_1*%
%TO.N,Net-(J1-Pin_1)*%
X59999999Y-61900000D03*
D11*
%TO.P,J1,2,Pin_2*%
%TO.N,Net-(J1-Pin_2)*%
X61999999Y-61900000D03*
%TO.P,J1,3,Pin_3*%
%TO.N,Net-(J1-Pin_3)*%
X63999999Y-61900000D03*
%TO.P,J1,4,Pin_4*%
%TO.N,Net-(J1-Pin_4)*%
X65999999Y-61900000D03*
%TD*%
D10*
%TO.P,J3,1,Pin_1*%
%TO.N,Net-(J3-Pin_1)*%
X52000000Y-83900000D03*
D11*
%TO.P,J3,2,Pin_2*%
%TO.N,Net-(J3-Pin_2)*%
X54000000Y-83900000D03*
%TO.P,J3,3,Pin_3*%
%TO.N,Net-(J3-Pin_3)*%
X56000000Y-83900000D03*
%TD*%
D10*
%TO.P,J5,1,Pin_1*%
%TO.N,GND*%
X74000000Y-61900000D03*
%TD*%
%TO.P,J2,1,Pin_1*%
%TO.N,Net-(J2-Pin_1)*%
X70000000Y-83900000D03*
D11*
%TO.P,J2,2,Pin_2*%
%TO.N,Net-(J2-Pin_2)*%
X72000000Y-83900000D03*
%TO.P,J2,3,Pin_3*%
%TO.N,Net-(J2-Pin_3)*%
X74000000Y-83900000D03*
%TD*%
D10*
%TO.P,J4,1,Pin_1*%
%TO.N,GND*%
X52000000Y-61900000D03*
%TD*%
D12*
%TO.P,J8,1,Pin_1*%
%TO.N,GND*%
X64500000Y-83500000D03*
%TD*%
D13*
%TO.P,C1,1*%
%TO.N,+5V*%
X52700000Y-70149999D03*
%TO.P,C1,2*%
%TO.N,GND*%
X52700000Y-68250001D03*
%TD*%
D14*
%TO.P,U2,1,QB*%
%TO.N,Net-(J3-Pin_3)*%
X60275000Y-69955000D03*
%TO.P,U2,2,QC*%
%TO.N,unconnected-(U2-QC-Pad2)*%
X60275000Y-71225000D03*
%TO.P,U2,3,QD*%
%TO.N,unconnected-(U2-QD-Pad3)*%
X60275000Y-72495000D03*
%TO.P,U2,4,QE*%
%TO.N,unconnected-(U2-QE-Pad4)*%
X60275000Y-73765000D03*
%TO.P,U2,5,QF*%
%TO.N,unconnected-(U2-QF-Pad5)*%
X60275000Y-75035000D03*
%TO.P,U2,6,QG*%
%TO.N,unconnected-(U2-QG-Pad6)*%
X60275000Y-76305000D03*
%TO.P,U2,7,QH*%
%TO.N,unconnected-(U2-QH-Pad7)*%
X60275000Y-77575000D03*
%TO.P,U2,8,GND*%
%TO.N,GND*%
X60275000Y-78845000D03*
%TO.P,U2,9,QH'*%
%TO.N,DATA_OUT*%
X55125000Y-78845000D03*
%TO.P,U2,10,~{SRCLR}*%
%TO.N,SR_CLR*%
X55125000Y-77575000D03*
%TO.P,U2,11,SRCLK*%
%TO.N,SR_CLK*%
X55125000Y-76305000D03*
%TO.P,U2,12,RCLK*%
%TO.N,LOAD*%
X55125000Y-75035000D03*
%TO.P,U2,13,~{OE}*%
%TO.N,OE*%
X55125000Y-73765000D03*
%TO.P,U2,14,SER*%
%TO.N,Net-(U1-QH')*%
X55125000Y-72495000D03*
%TO.P,U2,15,QA*%
%TO.N,Net-(J3-Pin_2)*%
X55125000Y-71225000D03*
%TO.P,U2,16,VCC*%
%TO.N,+5V*%
X55125000Y-69955000D03*
%TD*%
D12*
%TO.P,J7,1,Pin_1*%
%TO.N,+5V*%
X59400000Y-83500000D03*
%TD*%
D13*
%TO.P,C2,1*%
%TO.N,+5V*%
X63200000Y-70149999D03*
%TO.P,C2,2*%
%TO.N,GND*%
X63200000Y-68250001D03*
%TD*%
D12*
%TO.P,J6,1,Pin_1*%
%TO.N,DATA*%
X56900000Y-65600000D03*
D15*
%TO.P,J6,2,Pin_2*%
%TO.N,SR_CLK*%
X59440000Y-65600000D03*
%TO.P,J6,3,Pin_3*%
%TO.N,SR_CLR*%
X61979999Y-65600000D03*
%TO.P,J6,4,Pin_4*%
%TO.N,LOAD*%
X64520000Y-65600000D03*
%TO.P,J6,5,Pin_5*%
%TO.N,OE*%
X67060000Y-65600000D03*
%TO.P,J6,6,Pin_6*%
%TO.N,DATA_OUT*%
X69600000Y-65600000D03*
%TD*%
D14*
%TO.P,U1,1,QB*%
%TO.N,Net-(J1-Pin_2)*%
X70875000Y-69955000D03*
%TO.P,U1,2,QC*%
%TO.N,Net-(J1-Pin_3)*%
X70875000Y-71225000D03*
%TO.P,U1,3,QD*%
%TO.N,Net-(J1-Pin_4)*%
X70875000Y-72495000D03*
%TO.P,U1,4,QE*%
%TO.N,Net-(J2-Pin_1)*%
X70875000Y-73765000D03*
%TO.P,U1,5,QF*%
%TO.N,Net-(J2-Pin_2)*%
X70875000Y-75035000D03*
%TO.P,U1,6,QG*%
%TO.N,Net-(J2-Pin_3)*%
X70875000Y-76305000D03*
%TO.P,U1,7,QH*%
%TO.N,Net-(J3-Pin_1)*%
X70875000Y-77575000D03*
%TO.P,U1,8,GND*%
%TO.N,GND*%
X70875000Y-78845000D03*
%TO.P,U1,9,QH'*%
%TO.N,Net-(U1-QH')*%
X65725000Y-78845000D03*
%TO.P,U1,10,~{SRCLR}*%
%TO.N,SR_CLR*%
X65725000Y-77575000D03*
%TO.P,U1,11,SRCLK*%
%TO.N,SR_CLK*%
X65725000Y-76305000D03*
%TO.P,U1,12,RCLK*%
%TO.N,LOAD*%
X65725000Y-75035000D03*
%TO.P,U1,13,~{OE}*%
%TO.N,OE*%
X65725000Y-73765000D03*
%TO.P,U1,14,SER*%
%TO.N,DATA*%
X65725000Y-72495000D03*
%TO.P,U1,15,QA*%
%TO.N,Net-(J1-Pin_1)*%
X65725000Y-71225000D03*
%TO.P,U1,16,VCC*%
%TO.N,+5V*%
X65725000Y-69955000D03*
%TD*%
D16*
%TO.N,GND*%
X72800000Y-79400000D03*
X54500000Y-68400000D03*
X62400000Y-79400000D03*
X65900000Y-68300000D03*
%TO.N,Net-(J2-Pin_3)*%
X72900000Y-76500000D03*
X74400000Y-76500000D03*
%TO.N,Net-(J3-Pin_3)*%
X53400000Y-81400000D03*
%TO.N,Net-(J3-Pin_2)*%
X52400000Y-81400000D03*
%TO.N,SR_CLK*%
X61800000Y-75700000D03*
%TO.N,+5V*%
X67100000Y-70000000D03*
X57400000Y-70000000D03*
%TO.N,LOAD*%
X63400000Y-74500000D03*
%TO.N,OE*%
X64200000Y-73200000D03*
%TO.N,SR_CLR*%
X62400000Y-76900000D03*
%TD*%
D17*
%TO.N,Net-(J1-Pin_2)*%
X63399999Y-63300000D02*
X61999999Y-61900000D01*
X70955000Y-69955000D02*
X71000000Y-70000000D01*
X71000000Y-65373654D02*
X68926346Y-63300000D01*
X71000000Y-70000000D02*
X71000000Y-65373654D01*
X70875000Y-69955000D02*
X70955000Y-69955000D01*
X68926346Y-63300000D02*
X63399999Y-63300000D01*
%TO.N,GND*%
X60275000Y-78845000D02*
X61645000Y-78845000D01*
X70875000Y-78845000D02*
X72245000Y-78845000D01*
X52700000Y-68250001D02*
X54350001Y-68250001D01*
X65900000Y-68300000D02*
X65850001Y-68250001D01*
X54350001Y-68250001D02*
X54500000Y-68400000D01*
X61645000Y-78845000D02*
X62400000Y-79400000D01*
X54500000Y-68400000D02*
X54400000Y-68300000D01*
X72245000Y-78845000D02*
X72800000Y-79400000D01*
X62400000Y-79400000D02*
X62200000Y-79400000D01*
X65850001Y-68250001D02*
X63200000Y-68250001D01*
%TO.N,Net-(J1-Pin_4)*%
X71749999Y-72495000D02*
X74100000Y-70144999D01*
X71100000Y-61900000D02*
X65999999Y-61900000D01*
X70875000Y-72495000D02*
X71749999Y-72495000D01*
X74100000Y-70144999D02*
X74100000Y-64900000D01*
X74100000Y-64900000D02*
X71100000Y-61900000D01*
%TO.N,Net-(J1-Pin_1)*%
X60590000Y-62490001D02*
X60590000Y-68188762D01*
X61850000Y-69448762D02*
X61850000Y-70750000D01*
X62325000Y-71225000D02*
X65725000Y-71225000D01*
X59999999Y-61900000D02*
X60590000Y-62490001D01*
X61850000Y-70750000D02*
X62325000Y-71225000D01*
X60590000Y-68188762D02*
X61850000Y-69448762D01*
%TO.N,Net-(J1-Pin_3)*%
X64974999Y-62875000D02*
X63999999Y-61900000D01*
X70875000Y-71225000D02*
X72075000Y-71225000D01*
X71175000Y-62875000D02*
X64974999Y-62875000D01*
X72075000Y-71225000D02*
X73700000Y-69600000D01*
X73700000Y-65400000D02*
X71175000Y-62875000D01*
X73700000Y-69600000D02*
X73700000Y-65400000D01*
%TO.N,Net-(J2-Pin_3)*%
X72705000Y-76305000D02*
X72900000Y-76500000D01*
X74400000Y-76500000D02*
X74400000Y-83500000D01*
X72900000Y-76500000D02*
X72900000Y-76410000D01*
X74400000Y-83500000D02*
X74000000Y-83900000D01*
X70875000Y-76305000D02*
X72705000Y-76305000D01*
%TO.N,Net-(J2-Pin_2)*%
X73800000Y-82100000D02*
X72000000Y-83900000D01*
X72935000Y-75035000D02*
X73800000Y-75900000D01*
X70875000Y-75035000D02*
X72935000Y-75035000D01*
X73800000Y-75900000D02*
X73800000Y-82100000D01*
%TO.N,Net-(J2-Pin_1)*%
X73400000Y-80500000D02*
X73400000Y-78584448D01*
X73400000Y-78584448D02*
X71790552Y-76975000D01*
X68535000Y-73765000D02*
X70875000Y-73765000D01*
X67800000Y-76400000D02*
X67800000Y-74500000D01*
X70000000Y-83900000D02*
X73400000Y-80500000D01*
X71790552Y-76975000D02*
X68375000Y-76975000D01*
X68375000Y-76975000D02*
X67800000Y-76400000D01*
X67800000Y-74500000D02*
X68535000Y-73765000D01*
%TO.N,Net-(J3-Pin_3)*%
X60029448Y-69955000D02*
X60275000Y-69955000D01*
X58159448Y-71825000D02*
X60029448Y-69955000D01*
X54279448Y-71825000D02*
X58159448Y-71825000D01*
X53400000Y-81400000D02*
X52900000Y-80900000D01*
X52900000Y-80900000D02*
X52900000Y-73204448D01*
X52900000Y-73204448D02*
X54279448Y-71825000D01*
%TO.N,Net-(J3-Pin_1)*%
X65585552Y-80500000D02*
X55400000Y-80500000D01*
X55400000Y-80500000D02*
X52000000Y-83900000D01*
X70875000Y-77575000D02*
X68510552Y-77575000D01*
X68510552Y-77575000D02*
X65585552Y-80500000D01*
%TO.N,Net-(J3-Pin_2)*%
X54250001Y-71225000D02*
X55125000Y-71225000D01*
X52400000Y-73075001D02*
X54250001Y-71225000D01*
X52400000Y-81400000D02*
X52400000Y-73075001D01*
%TO.N,DATA_OUT*%
X69600000Y-66000000D02*
X69600000Y-65600000D01*
X67400000Y-68200000D02*
X69600000Y-66000000D01*
X55125000Y-78845000D02*
X55725000Y-78245000D01*
X66570552Y-78245000D02*
X67400000Y-77415552D01*
X55725000Y-78245000D02*
X66570552Y-78245000D01*
X67400000Y-69451471D02*
X67400000Y-68200000D01*
X67400000Y-70548529D02*
X67700000Y-70248529D01*
X67700000Y-69751471D02*
X67400000Y-69451471D01*
X67700000Y-70248529D02*
X67700000Y-69751471D01*
X67400000Y-77415552D02*
X67400000Y-70548529D01*
%TO.N,SR_CLK*%
X65125000Y-75705000D02*
X55725000Y-75705000D01*
X55725000Y-75705000D02*
X55125000Y-76305000D01*
X65725000Y-76305000D02*
X65125000Y-75705000D01*
%TO.N,+5V*%
X52894999Y-69955000D02*
X52700000Y-70149999D01*
X55125000Y-69955000D02*
X52894999Y-69955000D01*
X65725000Y-69955000D02*
X65545000Y-69955000D01*
X55125000Y-69955000D02*
X57355000Y-69955000D01*
X65725000Y-69955000D02*
X67055000Y-69955000D01*
X67055000Y-69955000D02*
X67100000Y-70000000D01*
X65545000Y-69955000D02*
X65350001Y-70149999D01*
X65350001Y-70149999D02*
X63200000Y-70149999D01*
%TO.N,Net-(U1-QH')*%
X54764448Y-80000000D02*
X53950000Y-79185552D01*
X53950000Y-79185552D02*
X53950000Y-73424448D01*
X54879448Y-72495000D02*
X55125000Y-72495000D01*
X65725000Y-78845000D02*
X64570000Y-80000000D01*
X64570000Y-80000000D02*
X54764448Y-80000000D01*
X53950000Y-73424448D02*
X54879448Y-72495000D01*
%TO.N,LOAD*%
X65125000Y-74435000D02*
X55725000Y-74435000D01*
X55725000Y-74435000D02*
X55125000Y-75035000D01*
X65725000Y-75035000D02*
X65125000Y-74435000D01*
%TO.N,OE*%
X55725000Y-73165000D02*
X55125000Y-73765000D01*
X65725000Y-73765000D02*
X65125000Y-73165000D01*
X65125000Y-73165000D02*
X55725000Y-73165000D01*
%TO.N,DATA*%
X62295000Y-72495000D02*
X65725000Y-72495000D01*
X56900000Y-65600000D02*
X57435552Y-65600000D01*
X61450000Y-71650000D02*
X62295000Y-72495000D01*
X61450000Y-69614448D02*
X61450000Y-71650000D01*
X57435552Y-65600000D02*
X61450000Y-69614448D01*
%TO.N,SR_CLR*%
X55795000Y-76905000D02*
X55125000Y-77575000D01*
X65055000Y-76905000D02*
X55795000Y-76905000D01*
X65725000Y-77575000D02*
X65055000Y-76905000D01*
%TD*%
M02*
