%TF.GenerationSoftware,KiCad,Pcbnew,8.0.3*%
%TF.CreationDate,2024-07-13T20:35:24+02:00*%
%TF.ProjectId,Shift Register Board,53686966-7420-4526-9567-697374657220,rev?*%
%TF.SameCoordinates,Original*%
%TF.FileFunction,Drillmap*%
%TF.FilePolarity,Positive*%
%FSLAX45Y45*%
G04 Gerber Fmt 4.5, Leading zero omitted, Abs format (unit mm)*
G04 Created by KiCad (PCBNEW 8.0.3) date 2024-07-13 20:35:24*
%MOMM*%
%LPD*%
G01*
G04 APERTURE LIST*
%ADD10C,0.050000*%
%ADD11C,0.200000*%
G04 APERTURE END LIST*
D10*
X5050000Y-6040000D02*
X7550000Y-6040000D01*
X7550000Y-8540000D01*
X5050000Y-8540000D01*
X5050000Y-6040000D01*
D11*
X5308277Y-8853984D02*
X5308277Y-8653984D01*
X5308277Y-8653984D02*
X5355896Y-8653984D01*
X5355896Y-8653984D02*
X5384467Y-8663508D01*
X5384467Y-8663508D02*
X5403515Y-8682555D01*
X5403515Y-8682555D02*
X5413039Y-8701603D01*
X5413039Y-8701603D02*
X5422563Y-8739698D01*
X5422563Y-8739698D02*
X5422563Y-8768270D01*
X5422563Y-8768270D02*
X5413039Y-8806365D01*
X5413039Y-8806365D02*
X5403515Y-8825412D01*
X5403515Y-8825412D02*
X5384467Y-8844460D01*
X5384467Y-8844460D02*
X5355896Y-8853984D01*
X5355896Y-8853984D02*
X5308277Y-8853984D01*
X5508277Y-8853984D02*
X5508277Y-8720650D01*
X5508277Y-8758746D02*
X5517801Y-8739698D01*
X5517801Y-8739698D02*
X5527324Y-8730174D01*
X5527324Y-8730174D02*
X5546372Y-8720650D01*
X5546372Y-8720650D02*
X5565420Y-8720650D01*
X5632086Y-8853984D02*
X5632086Y-8720650D01*
X5632086Y-8653984D02*
X5622562Y-8663508D01*
X5622562Y-8663508D02*
X5632086Y-8673031D01*
X5632086Y-8673031D02*
X5641610Y-8663508D01*
X5641610Y-8663508D02*
X5632086Y-8653984D01*
X5632086Y-8653984D02*
X5632086Y-8673031D01*
X5755896Y-8853984D02*
X5736848Y-8844460D01*
X5736848Y-8844460D02*
X5727324Y-8825412D01*
X5727324Y-8825412D02*
X5727324Y-8653984D01*
X5860658Y-8853984D02*
X5841610Y-8844460D01*
X5841610Y-8844460D02*
X5832086Y-8825412D01*
X5832086Y-8825412D02*
X5832086Y-8653984D01*
X6089229Y-8853984D02*
X6089229Y-8653984D01*
X6089229Y-8653984D02*
X6155896Y-8796841D01*
X6155896Y-8796841D02*
X6222562Y-8653984D01*
X6222562Y-8653984D02*
X6222562Y-8853984D01*
X6403515Y-8853984D02*
X6403515Y-8749222D01*
X6403515Y-8749222D02*
X6393991Y-8730174D01*
X6393991Y-8730174D02*
X6374943Y-8720650D01*
X6374943Y-8720650D02*
X6336848Y-8720650D01*
X6336848Y-8720650D02*
X6317801Y-8730174D01*
X6403515Y-8844460D02*
X6384467Y-8853984D01*
X6384467Y-8853984D02*
X6336848Y-8853984D01*
X6336848Y-8853984D02*
X6317801Y-8844460D01*
X6317801Y-8844460D02*
X6308277Y-8825412D01*
X6308277Y-8825412D02*
X6308277Y-8806365D01*
X6308277Y-8806365D02*
X6317801Y-8787317D01*
X6317801Y-8787317D02*
X6336848Y-8777793D01*
X6336848Y-8777793D02*
X6384467Y-8777793D01*
X6384467Y-8777793D02*
X6403515Y-8768270D01*
X6498753Y-8720650D02*
X6498753Y-8920650D01*
X6498753Y-8730174D02*
X6517801Y-8720650D01*
X6517801Y-8720650D02*
X6555896Y-8720650D01*
X6555896Y-8720650D02*
X6574943Y-8730174D01*
X6574943Y-8730174D02*
X6584467Y-8739698D01*
X6584467Y-8739698D02*
X6593991Y-8758746D01*
X6593991Y-8758746D02*
X6593991Y-8815889D01*
X6593991Y-8815889D02*
X6584467Y-8834936D01*
X6584467Y-8834936D02*
X6574943Y-8844460D01*
X6574943Y-8844460D02*
X6555896Y-8853984D01*
X6555896Y-8853984D02*
X6517801Y-8853984D01*
X6517801Y-8853984D02*
X6498753Y-8844460D01*
X6679705Y-8834936D02*
X6689229Y-8844460D01*
X6689229Y-8844460D02*
X6679705Y-8853984D01*
X6679705Y-8853984D02*
X6670182Y-8844460D01*
X6670182Y-8844460D02*
X6679705Y-8834936D01*
X6679705Y-8834936D02*
X6679705Y-8853984D01*
X6679705Y-8730174D02*
X6689229Y-8739698D01*
X6689229Y-8739698D02*
X6679705Y-8749222D01*
X6679705Y-8749222D02*
X6670182Y-8739698D01*
X6670182Y-8739698D02*
X6679705Y-8730174D01*
X6679705Y-8730174D02*
X6679705Y-8749222D01*
M02*
