%TF.GenerationSoftware,KiCad,Pcbnew,8.0.3*%
%TF.CreationDate,2024-07-13T19:45:59+02:00*%
%TF.ProjectId,Shift Register Board,53686966-7420-4526-9567-697374657220,rev?*%
%TF.SameCoordinates,Original*%
%TF.FileFunction,Legend,Top*%
%TF.FilePolarity,Positive*%
%FSLAX46Y46*%
G04 Gerber Fmt 4.6, Leading zero omitted, Abs format (unit mm)*
G04 Created by KiCad (PCBNEW 8.0.3) date 2024-07-13 19:45:59*
%MOMM*%
%LPD*%
G01*
G04 APERTURE LIST*
%ADD10C,0.100000*%
%ADD11C,0.300000*%
%ADD12C,0.150000*%
%ADD13C,0.120000*%
G04 APERTURE END LIST*
D10*
X64146741Y-84864895D02*
X64099122Y-84845847D01*
X64099122Y-84845847D02*
X64027693Y-84845847D01*
X64027693Y-84845847D02*
X63956265Y-84864895D01*
X63956265Y-84864895D02*
X63908646Y-84902990D01*
X63908646Y-84902990D02*
X63884836Y-84941085D01*
X63884836Y-84941085D02*
X63861027Y-85017276D01*
X63861027Y-85017276D02*
X63861027Y-85074419D01*
X63861027Y-85074419D02*
X63884836Y-85150609D01*
X63884836Y-85150609D02*
X63908646Y-85188704D01*
X63908646Y-85188704D02*
X63956265Y-85226800D01*
X63956265Y-85226800D02*
X64027693Y-85245847D01*
X64027693Y-85245847D02*
X64075312Y-85245847D01*
X64075312Y-85245847D02*
X64146741Y-85226800D01*
X64146741Y-85226800D02*
X64170550Y-85207752D01*
X64170550Y-85207752D02*
X64170550Y-85074419D01*
X64170550Y-85074419D02*
X64075312Y-85074419D01*
X64384836Y-85245847D02*
X64384836Y-84845847D01*
X64384836Y-84845847D02*
X64670550Y-85245847D01*
X64670550Y-85245847D02*
X64670550Y-84845847D01*
X64908646Y-85245847D02*
X64908646Y-84845847D01*
X64908646Y-84845847D02*
X65027694Y-84845847D01*
X65027694Y-84845847D02*
X65099122Y-84864895D01*
X65099122Y-84864895D02*
X65146741Y-84902990D01*
X65146741Y-84902990D02*
X65170551Y-84941085D01*
X65170551Y-84941085D02*
X65194360Y-85017276D01*
X65194360Y-85017276D02*
X65194360Y-85074419D01*
X65194360Y-85074419D02*
X65170551Y-85150609D01*
X65170551Y-85150609D02*
X65146741Y-85188704D01*
X65146741Y-85188704D02*
X65099122Y-85226800D01*
X65099122Y-85226800D02*
X65027694Y-85245847D01*
X65027694Y-85245847D02*
X64908646Y-85245847D01*
X58684836Y-85093466D02*
X59065789Y-85093466D01*
X58875312Y-85245847D02*
X58875312Y-84941085D01*
X59541979Y-84845847D02*
X59303884Y-84845847D01*
X59303884Y-84845847D02*
X59280075Y-85036323D01*
X59280075Y-85036323D02*
X59303884Y-85017276D01*
X59303884Y-85017276D02*
X59351503Y-84998228D01*
X59351503Y-84998228D02*
X59470551Y-84998228D01*
X59470551Y-84998228D02*
X59518170Y-85017276D01*
X59518170Y-85017276D02*
X59541979Y-85036323D01*
X59541979Y-85036323D02*
X59565789Y-85074419D01*
X59565789Y-85074419D02*
X59565789Y-85169657D01*
X59565789Y-85169657D02*
X59541979Y-85207752D01*
X59541979Y-85207752D02*
X59518170Y-85226800D01*
X59518170Y-85226800D02*
X59470551Y-85245847D01*
X59470551Y-85245847D02*
X59351503Y-85245847D01*
X59351503Y-85245847D02*
X59303884Y-85226800D01*
X59303884Y-85226800D02*
X59280075Y-85207752D01*
X59708646Y-84845847D02*
X59875312Y-85245847D01*
X59875312Y-85245847D02*
X60041979Y-84845847D01*
X55784836Y-67645847D02*
X55784836Y-67245847D01*
X55784836Y-67245847D02*
X55903884Y-67245847D01*
X55903884Y-67245847D02*
X55975312Y-67264895D01*
X55975312Y-67264895D02*
X56022931Y-67302990D01*
X56022931Y-67302990D02*
X56046741Y-67341085D01*
X56046741Y-67341085D02*
X56070550Y-67417276D01*
X56070550Y-67417276D02*
X56070550Y-67474419D01*
X56070550Y-67474419D02*
X56046741Y-67550609D01*
X56046741Y-67550609D02*
X56022931Y-67588704D01*
X56022931Y-67588704D02*
X55975312Y-67626800D01*
X55975312Y-67626800D02*
X55903884Y-67645847D01*
X55903884Y-67645847D02*
X55784836Y-67645847D01*
X56165789Y-67683942D02*
X56546741Y-67683942D01*
X56665788Y-67645847D02*
X56665788Y-67245847D01*
X56903883Y-67645847D02*
X56903883Y-67245847D01*
X56903883Y-67245847D02*
X57189597Y-67645847D01*
X57189597Y-67645847D02*
X57189597Y-67245847D01*
X57927693Y-67779180D02*
X57927693Y-67207752D01*
X58951501Y-67607752D02*
X58927692Y-67626800D01*
X58927692Y-67626800D02*
X58856263Y-67645847D01*
X58856263Y-67645847D02*
X58808644Y-67645847D01*
X58808644Y-67645847D02*
X58737216Y-67626800D01*
X58737216Y-67626800D02*
X58689597Y-67588704D01*
X58689597Y-67588704D02*
X58665787Y-67550609D01*
X58665787Y-67550609D02*
X58641978Y-67474419D01*
X58641978Y-67474419D02*
X58641978Y-67417276D01*
X58641978Y-67417276D02*
X58665787Y-67341085D01*
X58665787Y-67341085D02*
X58689597Y-67302990D01*
X58689597Y-67302990D02*
X58737216Y-67264895D01*
X58737216Y-67264895D02*
X58808644Y-67245847D01*
X58808644Y-67245847D02*
X58856263Y-67245847D01*
X58856263Y-67245847D02*
X58927692Y-67264895D01*
X58927692Y-67264895D02*
X58951501Y-67283942D01*
X59403882Y-67645847D02*
X59165787Y-67645847D01*
X59165787Y-67645847D02*
X59165787Y-67245847D01*
X59570549Y-67645847D02*
X59570549Y-67245847D01*
X59856263Y-67645847D02*
X59641978Y-67417276D01*
X59856263Y-67245847D02*
X59570549Y-67474419D01*
X60570549Y-67779180D02*
X60570549Y-67207752D01*
X61594357Y-67607752D02*
X61570548Y-67626800D01*
X61570548Y-67626800D02*
X61499119Y-67645847D01*
X61499119Y-67645847D02*
X61451500Y-67645847D01*
X61451500Y-67645847D02*
X61380072Y-67626800D01*
X61380072Y-67626800D02*
X61332453Y-67588704D01*
X61332453Y-67588704D02*
X61308643Y-67550609D01*
X61308643Y-67550609D02*
X61284834Y-67474419D01*
X61284834Y-67474419D02*
X61284834Y-67417276D01*
X61284834Y-67417276D02*
X61308643Y-67341085D01*
X61308643Y-67341085D02*
X61332453Y-67302990D01*
X61332453Y-67302990D02*
X61380072Y-67264895D01*
X61380072Y-67264895D02*
X61451500Y-67245847D01*
X61451500Y-67245847D02*
X61499119Y-67245847D01*
X61499119Y-67245847D02*
X61570548Y-67264895D01*
X61570548Y-67264895D02*
X61594357Y-67283942D01*
X62046738Y-67645847D02*
X61808643Y-67645847D01*
X61808643Y-67645847D02*
X61808643Y-67245847D01*
X62499119Y-67645847D02*
X62332453Y-67455371D01*
X62213405Y-67645847D02*
X62213405Y-67245847D01*
X62213405Y-67245847D02*
X62403881Y-67245847D01*
X62403881Y-67245847D02*
X62451500Y-67264895D01*
X62451500Y-67264895D02*
X62475310Y-67283942D01*
X62475310Y-67283942D02*
X62499119Y-67322038D01*
X62499119Y-67322038D02*
X62499119Y-67379180D01*
X62499119Y-67379180D02*
X62475310Y-67417276D01*
X62475310Y-67417276D02*
X62451500Y-67436323D01*
X62451500Y-67436323D02*
X62403881Y-67455371D01*
X62403881Y-67455371D02*
X62213405Y-67455371D01*
X63213405Y-67779180D02*
X63213405Y-67207752D01*
X64189594Y-67645847D02*
X63951499Y-67645847D01*
X63951499Y-67645847D02*
X63951499Y-67245847D01*
X64451499Y-67245847D02*
X64546737Y-67245847D01*
X64546737Y-67245847D02*
X64594356Y-67264895D01*
X64594356Y-67264895D02*
X64641975Y-67302990D01*
X64641975Y-67302990D02*
X64665785Y-67379180D01*
X64665785Y-67379180D02*
X64665785Y-67512514D01*
X64665785Y-67512514D02*
X64641975Y-67588704D01*
X64641975Y-67588704D02*
X64594356Y-67626800D01*
X64594356Y-67626800D02*
X64546737Y-67645847D01*
X64546737Y-67645847D02*
X64451499Y-67645847D01*
X64451499Y-67645847D02*
X64403880Y-67626800D01*
X64403880Y-67626800D02*
X64356261Y-67588704D01*
X64356261Y-67588704D02*
X64332452Y-67512514D01*
X64332452Y-67512514D02*
X64332452Y-67379180D01*
X64332452Y-67379180D02*
X64356261Y-67302990D01*
X64356261Y-67302990D02*
X64403880Y-67264895D01*
X64403880Y-67264895D02*
X64451499Y-67245847D01*
X64856262Y-67531561D02*
X65094357Y-67531561D01*
X64808643Y-67645847D02*
X64975309Y-67245847D01*
X64975309Y-67245847D02*
X65141976Y-67645847D01*
X65308642Y-67645847D02*
X65308642Y-67245847D01*
X65308642Y-67245847D02*
X65427690Y-67245847D01*
X65427690Y-67245847D02*
X65499118Y-67264895D01*
X65499118Y-67264895D02*
X65546737Y-67302990D01*
X65546737Y-67302990D02*
X65570547Y-67341085D01*
X65570547Y-67341085D02*
X65594356Y-67417276D01*
X65594356Y-67417276D02*
X65594356Y-67474419D01*
X65594356Y-67474419D02*
X65570547Y-67550609D01*
X65570547Y-67550609D02*
X65546737Y-67588704D01*
X65546737Y-67588704D02*
X65499118Y-67626800D01*
X65499118Y-67626800D02*
X65427690Y-67645847D01*
X65427690Y-67645847D02*
X65308642Y-67645847D01*
X66308642Y-67779180D02*
X66308642Y-67207752D01*
X67141974Y-67245847D02*
X67237212Y-67245847D01*
X67237212Y-67245847D02*
X67284831Y-67264895D01*
X67284831Y-67264895D02*
X67332450Y-67302990D01*
X67332450Y-67302990D02*
X67356260Y-67379180D01*
X67356260Y-67379180D02*
X67356260Y-67512514D01*
X67356260Y-67512514D02*
X67332450Y-67588704D01*
X67332450Y-67588704D02*
X67284831Y-67626800D01*
X67284831Y-67626800D02*
X67237212Y-67645847D01*
X67237212Y-67645847D02*
X67141974Y-67645847D01*
X67141974Y-67645847D02*
X67094355Y-67626800D01*
X67094355Y-67626800D02*
X67046736Y-67588704D01*
X67046736Y-67588704D02*
X67022927Y-67512514D01*
X67022927Y-67512514D02*
X67022927Y-67379180D01*
X67022927Y-67379180D02*
X67046736Y-67302990D01*
X67046736Y-67302990D02*
X67094355Y-67264895D01*
X67094355Y-67264895D02*
X67141974Y-67245847D01*
X67570546Y-67436323D02*
X67737213Y-67436323D01*
X67808641Y-67645847D02*
X67570546Y-67645847D01*
X67570546Y-67645847D02*
X67570546Y-67245847D01*
X67570546Y-67245847D02*
X67808641Y-67245847D01*
X68522927Y-67779180D02*
X68522927Y-67207752D01*
X69261021Y-67645847D02*
X69261021Y-67245847D01*
X69261021Y-67245847D02*
X69380069Y-67245847D01*
X69380069Y-67245847D02*
X69451497Y-67264895D01*
X69451497Y-67264895D02*
X69499116Y-67302990D01*
X69499116Y-67302990D02*
X69522926Y-67341085D01*
X69522926Y-67341085D02*
X69546735Y-67417276D01*
X69546735Y-67417276D02*
X69546735Y-67474419D01*
X69546735Y-67474419D02*
X69522926Y-67550609D01*
X69522926Y-67550609D02*
X69499116Y-67588704D01*
X69499116Y-67588704D02*
X69451497Y-67626800D01*
X69451497Y-67626800D02*
X69380069Y-67645847D01*
X69380069Y-67645847D02*
X69261021Y-67645847D01*
X69641974Y-67683942D02*
X70022926Y-67683942D01*
X70237211Y-67245847D02*
X70332449Y-67245847D01*
X70332449Y-67245847D02*
X70380068Y-67264895D01*
X70380068Y-67264895D02*
X70427687Y-67302990D01*
X70427687Y-67302990D02*
X70451497Y-67379180D01*
X70451497Y-67379180D02*
X70451497Y-67512514D01*
X70451497Y-67512514D02*
X70427687Y-67588704D01*
X70427687Y-67588704D02*
X70380068Y-67626800D01*
X70380068Y-67626800D02*
X70332449Y-67645847D01*
X70332449Y-67645847D02*
X70237211Y-67645847D01*
X70237211Y-67645847D02*
X70189592Y-67626800D01*
X70189592Y-67626800D02*
X70141973Y-67588704D01*
X70141973Y-67588704D02*
X70118164Y-67512514D01*
X70118164Y-67512514D02*
X70118164Y-67379180D01*
X70118164Y-67379180D02*
X70141973Y-67302990D01*
X70141973Y-67302990D02*
X70189592Y-67264895D01*
X70189592Y-67264895D02*
X70237211Y-67245847D01*
X70665783Y-67245847D02*
X70665783Y-67569657D01*
X70665783Y-67569657D02*
X70689593Y-67607752D01*
X70689593Y-67607752D02*
X70713402Y-67626800D01*
X70713402Y-67626800D02*
X70761021Y-67645847D01*
X70761021Y-67645847D02*
X70856259Y-67645847D01*
X70856259Y-67645847D02*
X70903878Y-67626800D01*
X70903878Y-67626800D02*
X70927688Y-67607752D01*
X70927688Y-67607752D02*
X70951497Y-67569657D01*
X70951497Y-67569657D02*
X70951497Y-67245847D01*
X71118165Y-67245847D02*
X71403879Y-67245847D01*
X71261022Y-67645847D02*
X71261022Y-67245847D01*
D11*
X53268796Y-73100828D02*
X52554510Y-73100828D01*
X52554510Y-73100828D02*
X52554510Y-71600828D01*
X53768796Y-72315114D02*
X54268796Y-72315114D01*
X54483082Y-73100828D02*
X53768796Y-73100828D01*
X53768796Y-73100828D02*
X53768796Y-71600828D01*
X53768796Y-71600828D02*
X54483082Y-71600828D01*
X55125939Y-73100828D02*
X55125939Y-71600828D01*
X55125939Y-71600828D02*
X55483082Y-71600828D01*
X55483082Y-71600828D02*
X55697368Y-71672257D01*
X55697368Y-71672257D02*
X55840225Y-71815114D01*
X55840225Y-71815114D02*
X55911654Y-71957971D01*
X55911654Y-71957971D02*
X55983082Y-72243685D01*
X55983082Y-72243685D02*
X55983082Y-72457971D01*
X55983082Y-72457971D02*
X55911654Y-72743685D01*
X55911654Y-72743685D02*
X55840225Y-72886542D01*
X55840225Y-72886542D02*
X55697368Y-73029400D01*
X55697368Y-73029400D02*
X55483082Y-73100828D01*
X55483082Y-73100828D02*
X55125939Y-73100828D01*
X56625939Y-72529400D02*
X57768797Y-72529400D01*
X58483082Y-73100828D02*
X58483082Y-71600828D01*
X58483082Y-71600828D02*
X59340225Y-73100828D01*
X59340225Y-73100828D02*
X59340225Y-71600828D01*
X60054511Y-73100828D02*
X60054511Y-72100828D01*
X60054511Y-71600828D02*
X59983083Y-71672257D01*
X59983083Y-71672257D02*
X60054511Y-71743685D01*
X60054511Y-71743685D02*
X60125940Y-71672257D01*
X60125940Y-71672257D02*
X60054511Y-71600828D01*
X60054511Y-71600828D02*
X60054511Y-71743685D01*
X60625940Y-73100828D02*
X61411655Y-72100828D01*
X60625940Y-72100828D02*
X61411655Y-73100828D01*
X61983083Y-73100828D02*
X61983083Y-72100828D01*
X61983083Y-71600828D02*
X61911655Y-71672257D01*
X61911655Y-71672257D02*
X61983083Y-71743685D01*
X61983083Y-71743685D02*
X62054512Y-71672257D01*
X62054512Y-71672257D02*
X61983083Y-71600828D01*
X61983083Y-71600828D02*
X61983083Y-71743685D01*
X63268798Y-73029400D02*
X63125941Y-73100828D01*
X63125941Y-73100828D02*
X62840227Y-73100828D01*
X62840227Y-73100828D02*
X62697369Y-73029400D01*
X62697369Y-73029400D02*
X62625941Y-72886542D01*
X62625941Y-72886542D02*
X62625941Y-72315114D01*
X62625941Y-72315114D02*
X62697369Y-72172257D01*
X62697369Y-72172257D02*
X62840227Y-72100828D01*
X62840227Y-72100828D02*
X63125941Y-72100828D01*
X63125941Y-72100828D02*
X63268798Y-72172257D01*
X63268798Y-72172257D02*
X63340227Y-72315114D01*
X63340227Y-72315114D02*
X63340227Y-72457971D01*
X63340227Y-72457971D02*
X62625941Y-72600828D01*
X65054512Y-73029400D02*
X65268798Y-73100828D01*
X65268798Y-73100828D02*
X65625940Y-73100828D01*
X65625940Y-73100828D02*
X65768798Y-73029400D01*
X65768798Y-73029400D02*
X65840226Y-72957971D01*
X65840226Y-72957971D02*
X65911655Y-72815114D01*
X65911655Y-72815114D02*
X65911655Y-72672257D01*
X65911655Y-72672257D02*
X65840226Y-72529400D01*
X65840226Y-72529400D02*
X65768798Y-72457971D01*
X65768798Y-72457971D02*
X65625940Y-72386542D01*
X65625940Y-72386542D02*
X65340226Y-72315114D01*
X65340226Y-72315114D02*
X65197369Y-72243685D01*
X65197369Y-72243685D02*
X65125940Y-72172257D01*
X65125940Y-72172257D02*
X65054512Y-72029400D01*
X65054512Y-72029400D02*
X65054512Y-71886542D01*
X65054512Y-71886542D02*
X65125940Y-71743685D01*
X65125940Y-71743685D02*
X65197369Y-71672257D01*
X65197369Y-71672257D02*
X65340226Y-71600828D01*
X65340226Y-71600828D02*
X65697369Y-71600828D01*
X65697369Y-71600828D02*
X65911655Y-71672257D01*
X67411654Y-73100828D02*
X66911654Y-72386542D01*
X66554511Y-73100828D02*
X66554511Y-71600828D01*
X66554511Y-71600828D02*
X67125940Y-71600828D01*
X67125940Y-71600828D02*
X67268797Y-71672257D01*
X67268797Y-71672257D02*
X67340226Y-71743685D01*
X67340226Y-71743685D02*
X67411654Y-71886542D01*
X67411654Y-71886542D02*
X67411654Y-72100828D01*
X67411654Y-72100828D02*
X67340226Y-72243685D01*
X67340226Y-72243685D02*
X67268797Y-72315114D01*
X67268797Y-72315114D02*
X67125940Y-72386542D01*
X67125940Y-72386542D02*
X66554511Y-72386542D01*
X68554511Y-72315114D02*
X68768797Y-72386542D01*
X68768797Y-72386542D02*
X68840226Y-72457971D01*
X68840226Y-72457971D02*
X68911654Y-72600828D01*
X68911654Y-72600828D02*
X68911654Y-72815114D01*
X68911654Y-72815114D02*
X68840226Y-72957971D01*
X68840226Y-72957971D02*
X68768797Y-73029400D01*
X68768797Y-73029400D02*
X68625940Y-73100828D01*
X68625940Y-73100828D02*
X68054511Y-73100828D01*
X68054511Y-73100828D02*
X68054511Y-71600828D01*
X68054511Y-71600828D02*
X68554511Y-71600828D01*
X68554511Y-71600828D02*
X68697369Y-71672257D01*
X68697369Y-71672257D02*
X68768797Y-71743685D01*
X68768797Y-71743685D02*
X68840226Y-71886542D01*
X68840226Y-71886542D02*
X68840226Y-72029400D01*
X68840226Y-72029400D02*
X68768797Y-72172257D01*
X68768797Y-72172257D02*
X68697369Y-72243685D01*
X68697369Y-72243685D02*
X68554511Y-72315114D01*
X68554511Y-72315114D02*
X68054511Y-72315114D01*
D10*
X53075312Y-74472419D02*
X52741979Y-73996228D01*
X52503884Y-74472419D02*
X52503884Y-73472419D01*
X52503884Y-73472419D02*
X52884836Y-73472419D01*
X52884836Y-73472419D02*
X52980074Y-73520038D01*
X52980074Y-73520038D02*
X53027693Y-73567657D01*
X53027693Y-73567657D02*
X53075312Y-73662895D01*
X53075312Y-73662895D02*
X53075312Y-73805752D01*
X53075312Y-73805752D02*
X53027693Y-73900990D01*
X53027693Y-73900990D02*
X52980074Y-73948609D01*
X52980074Y-73948609D02*
X52884836Y-73996228D01*
X52884836Y-73996228D02*
X52503884Y-73996228D01*
X53884836Y-74424800D02*
X53789598Y-74472419D01*
X53789598Y-74472419D02*
X53599122Y-74472419D01*
X53599122Y-74472419D02*
X53503884Y-74424800D01*
X53503884Y-74424800D02*
X53456265Y-74329561D01*
X53456265Y-74329561D02*
X53456265Y-73948609D01*
X53456265Y-73948609D02*
X53503884Y-73853371D01*
X53503884Y-73853371D02*
X53599122Y-73805752D01*
X53599122Y-73805752D02*
X53789598Y-73805752D01*
X53789598Y-73805752D02*
X53884836Y-73853371D01*
X53884836Y-73853371D02*
X53932455Y-73948609D01*
X53932455Y-73948609D02*
X53932455Y-74043847D01*
X53932455Y-74043847D02*
X53456265Y-74139085D01*
X54265789Y-73805752D02*
X54503884Y-74472419D01*
X54503884Y-74472419D02*
X54741979Y-73805752D01*
X55122932Y-74377180D02*
X55170551Y-74424800D01*
X55170551Y-74424800D02*
X55122932Y-74472419D01*
X55122932Y-74472419D02*
X55075313Y-74424800D01*
X55075313Y-74424800D02*
X55122932Y-74377180D01*
X55122932Y-74377180D02*
X55122932Y-74472419D01*
X55551503Y-74186704D02*
X56027693Y-74186704D01*
X55456265Y-74472419D02*
X55789598Y-73472419D01*
X55789598Y-73472419D02*
X56122931Y-74472419D01*
X57218170Y-74091466D02*
X57980075Y-74091466D01*
X59408646Y-73472419D02*
X59503884Y-73472419D01*
X59503884Y-73472419D02*
X59599122Y-73520038D01*
X59599122Y-73520038D02*
X59646741Y-73567657D01*
X59646741Y-73567657D02*
X59694360Y-73662895D01*
X59694360Y-73662895D02*
X59741979Y-73853371D01*
X59741979Y-73853371D02*
X59741979Y-74091466D01*
X59741979Y-74091466D02*
X59694360Y-74281942D01*
X59694360Y-74281942D02*
X59646741Y-74377180D01*
X59646741Y-74377180D02*
X59599122Y-74424800D01*
X59599122Y-74424800D02*
X59503884Y-74472419D01*
X59503884Y-74472419D02*
X59408646Y-74472419D01*
X59408646Y-74472419D02*
X59313408Y-74424800D01*
X59313408Y-74424800D02*
X59265789Y-74377180D01*
X59265789Y-74377180D02*
X59218170Y-74281942D01*
X59218170Y-74281942D02*
X59170551Y-74091466D01*
X59170551Y-74091466D02*
X59170551Y-73853371D01*
X59170551Y-73853371D02*
X59218170Y-73662895D01*
X59218170Y-73662895D02*
X59265789Y-73567657D01*
X59265789Y-73567657D02*
X59313408Y-73520038D01*
X59313408Y-73520038D02*
X59408646Y-73472419D01*
X60599122Y-73472419D02*
X60408646Y-73472419D01*
X60408646Y-73472419D02*
X60313408Y-73520038D01*
X60313408Y-73520038D02*
X60265789Y-73567657D01*
X60265789Y-73567657D02*
X60170551Y-73710514D01*
X60170551Y-73710514D02*
X60122932Y-73900990D01*
X60122932Y-73900990D02*
X60122932Y-74281942D01*
X60122932Y-74281942D02*
X60170551Y-74377180D01*
X60170551Y-74377180D02*
X60218170Y-74424800D01*
X60218170Y-74424800D02*
X60313408Y-74472419D01*
X60313408Y-74472419D02*
X60503884Y-74472419D01*
X60503884Y-74472419D02*
X60599122Y-74424800D01*
X60599122Y-74424800D02*
X60646741Y-74377180D01*
X60646741Y-74377180D02*
X60694360Y-74281942D01*
X60694360Y-74281942D02*
X60694360Y-74043847D01*
X60694360Y-74043847D02*
X60646741Y-73948609D01*
X60646741Y-73948609D02*
X60599122Y-73900990D01*
X60599122Y-73900990D02*
X60503884Y-73853371D01*
X60503884Y-73853371D02*
X60313408Y-73853371D01*
X60313408Y-73853371D02*
X60218170Y-73900990D01*
X60218170Y-73900990D02*
X60170551Y-73948609D01*
X60170551Y-73948609D02*
X60122932Y-74043847D01*
X61837217Y-73424800D02*
X60980075Y-74710514D01*
X62122932Y-73567657D02*
X62170551Y-73520038D01*
X62170551Y-73520038D02*
X62265789Y-73472419D01*
X62265789Y-73472419D02*
X62503884Y-73472419D01*
X62503884Y-73472419D02*
X62599122Y-73520038D01*
X62599122Y-73520038D02*
X62646741Y-73567657D01*
X62646741Y-73567657D02*
X62694360Y-73662895D01*
X62694360Y-73662895D02*
X62694360Y-73758133D01*
X62694360Y-73758133D02*
X62646741Y-73900990D01*
X62646741Y-73900990D02*
X62075313Y-74472419D01*
X62075313Y-74472419D02*
X62694360Y-74472419D01*
X63551503Y-73805752D02*
X63551503Y-74472419D01*
X63313408Y-73424800D02*
X63075313Y-74139085D01*
X63075313Y-74139085D02*
X63694360Y-74139085D01*
X52799122Y-75000276D02*
X52799122Y-75405038D01*
X52799122Y-75405038D02*
X52775312Y-75452657D01*
X52775312Y-75452657D02*
X52751503Y-75476466D01*
X52751503Y-75476466D02*
X52703884Y-75500276D01*
X52703884Y-75500276D02*
X52632455Y-75500276D01*
X52632455Y-75500276D02*
X52584836Y-75476466D01*
X52799122Y-75309800D02*
X52751503Y-75333609D01*
X52751503Y-75333609D02*
X52656265Y-75333609D01*
X52656265Y-75333609D02*
X52608646Y-75309800D01*
X52608646Y-75309800D02*
X52584836Y-75285990D01*
X52584836Y-75285990D02*
X52561027Y-75238371D01*
X52561027Y-75238371D02*
X52561027Y-75095514D01*
X52561027Y-75095514D02*
X52584836Y-75047895D01*
X52584836Y-75047895D02*
X52608646Y-75024085D01*
X52608646Y-75024085D02*
X52656265Y-75000276D01*
X52656265Y-75000276D02*
X52751503Y-75000276D01*
X52751503Y-75000276D02*
X52799122Y-75024085D01*
X53037217Y-75333609D02*
X53037217Y-75000276D01*
X53037217Y-74833609D02*
X53013408Y-74857419D01*
X53013408Y-74857419D02*
X53037217Y-74881228D01*
X53037217Y-74881228D02*
X53061027Y-74857419D01*
X53061027Y-74857419D02*
X53037217Y-74833609D01*
X53037217Y-74833609D02*
X53037217Y-74881228D01*
X53203884Y-75000276D02*
X53394360Y-75000276D01*
X53275312Y-74833609D02*
X53275312Y-75262180D01*
X53275312Y-75262180D02*
X53299122Y-75309800D01*
X53299122Y-75309800D02*
X53346741Y-75333609D01*
X53346741Y-75333609D02*
X53394360Y-75333609D01*
X53561026Y-75333609D02*
X53561026Y-74833609D01*
X53775312Y-75333609D02*
X53775312Y-75071704D01*
X53775312Y-75071704D02*
X53751502Y-75024085D01*
X53751502Y-75024085D02*
X53703883Y-75000276D01*
X53703883Y-75000276D02*
X53632455Y-75000276D01*
X53632455Y-75000276D02*
X53584836Y-75024085D01*
X53584836Y-75024085D02*
X53561026Y-75047895D01*
X54227693Y-75000276D02*
X54227693Y-75333609D01*
X54013407Y-75000276D02*
X54013407Y-75262180D01*
X54013407Y-75262180D02*
X54037217Y-75309800D01*
X54037217Y-75309800D02*
X54084836Y-75333609D01*
X54084836Y-75333609D02*
X54156264Y-75333609D01*
X54156264Y-75333609D02*
X54203883Y-75309800D01*
X54203883Y-75309800D02*
X54227693Y-75285990D01*
X54465788Y-75333609D02*
X54465788Y-74833609D01*
X54465788Y-75024085D02*
X54513407Y-75000276D01*
X54513407Y-75000276D02*
X54608645Y-75000276D01*
X54608645Y-75000276D02*
X54656264Y-75024085D01*
X54656264Y-75024085D02*
X54680074Y-75047895D01*
X54680074Y-75047895D02*
X54703883Y-75095514D01*
X54703883Y-75095514D02*
X54703883Y-75238371D01*
X54703883Y-75238371D02*
X54680074Y-75285990D01*
X54680074Y-75285990D02*
X54656264Y-75309800D01*
X54656264Y-75309800D02*
X54608645Y-75333609D01*
X54608645Y-75333609D02*
X54513407Y-75333609D01*
X54513407Y-75333609D02*
X54465788Y-75309800D01*
X54918169Y-75285990D02*
X54941979Y-75309800D01*
X54941979Y-75309800D02*
X54918169Y-75333609D01*
X54918169Y-75333609D02*
X54894360Y-75309800D01*
X54894360Y-75309800D02*
X54918169Y-75285990D01*
X54918169Y-75285990D02*
X54918169Y-75333609D01*
X55370550Y-75309800D02*
X55322931Y-75333609D01*
X55322931Y-75333609D02*
X55227693Y-75333609D01*
X55227693Y-75333609D02*
X55180074Y-75309800D01*
X55180074Y-75309800D02*
X55156264Y-75285990D01*
X55156264Y-75285990D02*
X55132455Y-75238371D01*
X55132455Y-75238371D02*
X55132455Y-75095514D01*
X55132455Y-75095514D02*
X55156264Y-75047895D01*
X55156264Y-75047895D02*
X55180074Y-75024085D01*
X55180074Y-75024085D02*
X55227693Y-75000276D01*
X55227693Y-75000276D02*
X55322931Y-75000276D01*
X55322931Y-75000276D02*
X55370550Y-75024085D01*
X55656264Y-75333609D02*
X55608645Y-75309800D01*
X55608645Y-75309800D02*
X55584835Y-75285990D01*
X55584835Y-75285990D02*
X55561026Y-75238371D01*
X55561026Y-75238371D02*
X55561026Y-75095514D01*
X55561026Y-75095514D02*
X55584835Y-75047895D01*
X55584835Y-75047895D02*
X55608645Y-75024085D01*
X55608645Y-75024085D02*
X55656264Y-75000276D01*
X55656264Y-75000276D02*
X55727692Y-75000276D01*
X55727692Y-75000276D02*
X55775311Y-75024085D01*
X55775311Y-75024085D02*
X55799121Y-75047895D01*
X55799121Y-75047895D02*
X55822930Y-75095514D01*
X55822930Y-75095514D02*
X55822930Y-75238371D01*
X55822930Y-75238371D02*
X55799121Y-75285990D01*
X55799121Y-75285990D02*
X55775311Y-75309800D01*
X55775311Y-75309800D02*
X55727692Y-75333609D01*
X55727692Y-75333609D02*
X55656264Y-75333609D01*
X56037216Y-75333609D02*
X56037216Y-75000276D01*
X56037216Y-75047895D02*
X56061026Y-75024085D01*
X56061026Y-75024085D02*
X56108645Y-75000276D01*
X56108645Y-75000276D02*
X56180073Y-75000276D01*
X56180073Y-75000276D02*
X56227692Y-75024085D01*
X56227692Y-75024085D02*
X56251502Y-75071704D01*
X56251502Y-75071704D02*
X56251502Y-75333609D01*
X56251502Y-75071704D02*
X56275311Y-75024085D01*
X56275311Y-75024085D02*
X56322930Y-75000276D01*
X56322930Y-75000276D02*
X56394359Y-75000276D01*
X56394359Y-75000276D02*
X56441978Y-75024085D01*
X56441978Y-75024085D02*
X56465788Y-75071704D01*
X56465788Y-75071704D02*
X56465788Y-75333609D01*
X57061026Y-74809800D02*
X56632455Y-75452657D01*
X57441979Y-75333609D02*
X57441979Y-74833609D01*
X57441979Y-75309800D02*
X57394360Y-75333609D01*
X57394360Y-75333609D02*
X57299122Y-75333609D01*
X57299122Y-75333609D02*
X57251503Y-75309800D01*
X57251503Y-75309800D02*
X57227693Y-75285990D01*
X57227693Y-75285990D02*
X57203884Y-75238371D01*
X57203884Y-75238371D02*
X57203884Y-75095514D01*
X57203884Y-75095514D02*
X57227693Y-75047895D01*
X57227693Y-75047895D02*
X57251503Y-75024085D01*
X57251503Y-75024085D02*
X57299122Y-75000276D01*
X57299122Y-75000276D02*
X57394360Y-75000276D01*
X57394360Y-75000276D02*
X57441979Y-75024085D01*
X57632455Y-74833609D02*
X57941979Y-74833609D01*
X57941979Y-74833609D02*
X57775312Y-75024085D01*
X57775312Y-75024085D02*
X57846741Y-75024085D01*
X57846741Y-75024085D02*
X57894360Y-75047895D01*
X57894360Y-75047895D02*
X57918169Y-75071704D01*
X57918169Y-75071704D02*
X57941979Y-75119323D01*
X57941979Y-75119323D02*
X57941979Y-75238371D01*
X57941979Y-75238371D02*
X57918169Y-75285990D01*
X57918169Y-75285990D02*
X57894360Y-75309800D01*
X57894360Y-75309800D02*
X57846741Y-75333609D01*
X57846741Y-75333609D02*
X57703884Y-75333609D01*
X57703884Y-75333609D02*
X57656265Y-75309800D01*
X57656265Y-75309800D02*
X57632455Y-75285990D01*
X58156264Y-75333609D02*
X58156264Y-75000276D01*
X58156264Y-75047895D02*
X58180074Y-75024085D01*
X58180074Y-75024085D02*
X58227693Y-75000276D01*
X58227693Y-75000276D02*
X58299121Y-75000276D01*
X58299121Y-75000276D02*
X58346740Y-75024085D01*
X58346740Y-75024085D02*
X58370550Y-75071704D01*
X58370550Y-75071704D02*
X58370550Y-75333609D01*
X58370550Y-75071704D02*
X58394359Y-75024085D01*
X58394359Y-75024085D02*
X58441978Y-75000276D01*
X58441978Y-75000276D02*
X58513407Y-75000276D01*
X58513407Y-75000276D02*
X58561026Y-75024085D01*
X58561026Y-75024085D02*
X58584836Y-75071704D01*
X58584836Y-75071704D02*
X58584836Y-75333609D01*
X58894360Y-75333609D02*
X58846741Y-75309800D01*
X58846741Y-75309800D02*
X58822931Y-75285990D01*
X58822931Y-75285990D02*
X58799122Y-75238371D01*
X58799122Y-75238371D02*
X58799122Y-75095514D01*
X58799122Y-75095514D02*
X58822931Y-75047895D01*
X58822931Y-75047895D02*
X58846741Y-75024085D01*
X58846741Y-75024085D02*
X58894360Y-75000276D01*
X58894360Y-75000276D02*
X58965788Y-75000276D01*
X58965788Y-75000276D02*
X59013407Y-75024085D01*
X59013407Y-75024085D02*
X59037217Y-75047895D01*
X59037217Y-75047895D02*
X59061026Y-75095514D01*
X59061026Y-75095514D02*
X59061026Y-75238371D01*
X59061026Y-75238371D02*
X59037217Y-75285990D01*
X59037217Y-75285990D02*
X59013407Y-75309800D01*
X59013407Y-75309800D02*
X58965788Y-75333609D01*
X58965788Y-75333609D02*
X58894360Y-75333609D01*
X59346741Y-75333609D02*
X59299122Y-75309800D01*
X59299122Y-75309800D02*
X59275312Y-75262180D01*
X59275312Y-75262180D02*
X59275312Y-74833609D01*
X59537217Y-75333609D02*
X59537217Y-75000276D01*
X59537217Y-74833609D02*
X59513408Y-74857419D01*
X59513408Y-74857419D02*
X59537217Y-74881228D01*
X59537217Y-74881228D02*
X59561027Y-74857419D01*
X59561027Y-74857419D02*
X59537217Y-74833609D01*
X59537217Y-74833609D02*
X59537217Y-74881228D01*
X59703884Y-75000276D02*
X59894360Y-75000276D01*
X59775312Y-74833609D02*
X59775312Y-75262180D01*
X59775312Y-75262180D02*
X59799122Y-75309800D01*
X59799122Y-75309800D02*
X59846741Y-75333609D01*
X59846741Y-75333609D02*
X59894360Y-75333609D01*
X60251502Y-75309800D02*
X60203883Y-75333609D01*
X60203883Y-75333609D02*
X60108645Y-75333609D01*
X60108645Y-75333609D02*
X60061026Y-75309800D01*
X60061026Y-75309800D02*
X60037217Y-75262180D01*
X60037217Y-75262180D02*
X60037217Y-75071704D01*
X60037217Y-75071704D02*
X60061026Y-75024085D01*
X60061026Y-75024085D02*
X60108645Y-75000276D01*
X60108645Y-75000276D02*
X60203883Y-75000276D01*
X60203883Y-75000276D02*
X60251502Y-75024085D01*
X60251502Y-75024085D02*
X60275312Y-75071704D01*
X60275312Y-75071704D02*
X60275312Y-75119323D01*
X60275312Y-75119323D02*
X60037217Y-75166942D01*
X60846740Y-74809800D02*
X60418169Y-75452657D01*
X61251502Y-75333609D02*
X61013407Y-75333609D01*
X61013407Y-75333609D02*
X61013407Y-74833609D01*
X61418169Y-75071704D02*
X61584836Y-75071704D01*
X61656264Y-75333609D02*
X61418169Y-75333609D01*
X61418169Y-75333609D02*
X61418169Y-74833609D01*
X61418169Y-74833609D02*
X61656264Y-74833609D01*
X61870550Y-75333609D02*
X61870550Y-74833609D01*
X61870550Y-74833609D02*
X61989598Y-74833609D01*
X61989598Y-74833609D02*
X62061026Y-74857419D01*
X62061026Y-74857419D02*
X62108645Y-74905038D01*
X62108645Y-74905038D02*
X62132455Y-74952657D01*
X62132455Y-74952657D02*
X62156264Y-75047895D01*
X62156264Y-75047895D02*
X62156264Y-75119323D01*
X62156264Y-75119323D02*
X62132455Y-75214561D01*
X62132455Y-75214561D02*
X62108645Y-75262180D01*
X62108645Y-75262180D02*
X62061026Y-75309800D01*
X62061026Y-75309800D02*
X61989598Y-75333609D01*
X61989598Y-75333609D02*
X61870550Y-75333609D01*
X62370550Y-75143133D02*
X62751503Y-75143133D01*
X62989598Y-75333609D02*
X62989598Y-74833609D01*
X62989598Y-74833609D02*
X63275312Y-75333609D01*
X63275312Y-75333609D02*
X63275312Y-74833609D01*
X63513408Y-75333609D02*
X63513408Y-75000276D01*
X63513408Y-74833609D02*
X63489599Y-74857419D01*
X63489599Y-74857419D02*
X63513408Y-74881228D01*
X63513408Y-74881228D02*
X63537218Y-74857419D01*
X63537218Y-74857419D02*
X63513408Y-74833609D01*
X63513408Y-74833609D02*
X63513408Y-74881228D01*
X63703884Y-75333609D02*
X63965789Y-75000276D01*
X63703884Y-75000276D02*
X63965789Y-75333609D01*
X64156265Y-75333609D02*
X64156265Y-75000276D01*
X64156265Y-74833609D02*
X64132456Y-74857419D01*
X64132456Y-74857419D02*
X64156265Y-74881228D01*
X64156265Y-74881228D02*
X64180075Y-74857419D01*
X64180075Y-74857419D02*
X64156265Y-74833609D01*
X64156265Y-74833609D02*
X64156265Y-74881228D01*
X64584836Y-75309800D02*
X64537217Y-75333609D01*
X64537217Y-75333609D02*
X64441979Y-75333609D01*
X64441979Y-75333609D02*
X64394360Y-75309800D01*
X64394360Y-75309800D02*
X64370551Y-75262180D01*
X64370551Y-75262180D02*
X64370551Y-75071704D01*
X64370551Y-75071704D02*
X64394360Y-75024085D01*
X64394360Y-75024085D02*
X64441979Y-75000276D01*
X64441979Y-75000276D02*
X64537217Y-75000276D01*
X64537217Y-75000276D02*
X64584836Y-75024085D01*
X64584836Y-75024085D02*
X64608646Y-75071704D01*
X64608646Y-75071704D02*
X64608646Y-75119323D01*
X64608646Y-75119323D02*
X64370551Y-75166942D01*
D12*
X71266666Y-61354819D02*
X71266666Y-62069104D01*
X71266666Y-62069104D02*
X71219047Y-62211961D01*
X71219047Y-62211961D02*
X71123809Y-62307200D01*
X71123809Y-62307200D02*
X70980952Y-62354819D01*
X70980952Y-62354819D02*
X70885714Y-62354819D01*
X72219047Y-61354819D02*
X71742857Y-61354819D01*
X71742857Y-61354819D02*
X71695238Y-61831009D01*
X71695238Y-61831009D02*
X71742857Y-61783390D01*
X71742857Y-61783390D02*
X71838095Y-61735771D01*
X71838095Y-61735771D02*
X72076190Y-61735771D01*
X72076190Y-61735771D02*
X72171428Y-61783390D01*
X72171428Y-61783390D02*
X72219047Y-61831009D01*
X72219047Y-61831009D02*
X72266666Y-61926247D01*
X72266666Y-61926247D02*
X72266666Y-62164342D01*
X72266666Y-62164342D02*
X72219047Y-62259580D01*
X72219047Y-62259580D02*
X72171428Y-62307200D01*
X72171428Y-62307200D02*
X72076190Y-62354819D01*
X72076190Y-62354819D02*
X71838095Y-62354819D01*
X71838095Y-62354819D02*
X71742857Y-62307200D01*
X71742857Y-62307200D02*
X71695238Y-62259580D01*
X53766666Y-61454819D02*
X53766666Y-62169104D01*
X53766666Y-62169104D02*
X53719047Y-62311961D01*
X53719047Y-62311961D02*
X53623809Y-62407200D01*
X53623809Y-62407200D02*
X53480952Y-62454819D01*
X53480952Y-62454819D02*
X53385714Y-62454819D01*
X54671428Y-61788152D02*
X54671428Y-62454819D01*
X54433333Y-61407200D02*
X54195238Y-62121485D01*
X54195238Y-62121485D02*
X54814285Y-62121485D01*
X66954819Y-84233333D02*
X67669104Y-84233333D01*
X67669104Y-84233333D02*
X67811961Y-84280952D01*
X67811961Y-84280952D02*
X67907200Y-84376190D01*
X67907200Y-84376190D02*
X67954819Y-84519047D01*
X67954819Y-84519047D02*
X67954819Y-84614285D01*
X67050057Y-83804761D02*
X67002438Y-83757142D01*
X67002438Y-83757142D02*
X66954819Y-83661904D01*
X66954819Y-83661904D02*
X66954819Y-83423809D01*
X66954819Y-83423809D02*
X67002438Y-83328571D01*
X67002438Y-83328571D02*
X67050057Y-83280952D01*
X67050057Y-83280952D02*
X67145295Y-83233333D01*
X67145295Y-83233333D02*
X67240533Y-83233333D01*
X67240533Y-83233333D02*
X67383390Y-83280952D01*
X67383390Y-83280952D02*
X67954819Y-83852380D01*
X67954819Y-83852380D02*
X67954819Y-83233333D01*
X56954818Y-62233333D02*
X57669103Y-62233333D01*
X57669103Y-62233333D02*
X57811960Y-62280952D01*
X57811960Y-62280952D02*
X57907199Y-62376190D01*
X57907199Y-62376190D02*
X57954818Y-62519047D01*
X57954818Y-62519047D02*
X57954818Y-62614285D01*
X57954818Y-61233333D02*
X57954818Y-61804761D01*
X57954818Y-61519047D02*
X56954818Y-61519047D01*
X56954818Y-61519047D02*
X57097675Y-61614285D01*
X57097675Y-61614285D02*
X57192913Y-61709523D01*
X57192913Y-61709523D02*
X57240532Y-61804761D01*
X57454819Y-84333333D02*
X58169104Y-84333333D01*
X58169104Y-84333333D02*
X58311961Y-84380952D01*
X58311961Y-84380952D02*
X58407200Y-84476190D01*
X58407200Y-84476190D02*
X58454819Y-84619047D01*
X58454819Y-84619047D02*
X58454819Y-84714285D01*
X57454819Y-83952380D02*
X57454819Y-83333333D01*
X57454819Y-83333333D02*
X57835771Y-83666666D01*
X57835771Y-83666666D02*
X57835771Y-83523809D01*
X57835771Y-83523809D02*
X57883390Y-83428571D01*
X57883390Y-83428571D02*
X57931009Y-83380952D01*
X57931009Y-83380952D02*
X58026247Y-83333333D01*
X58026247Y-83333333D02*
X58264342Y-83333333D01*
X58264342Y-83333333D02*
X58359580Y-83380952D01*
X58359580Y-83380952D02*
X58407200Y-83428571D01*
X58407200Y-83428571D02*
X58454819Y-83523809D01*
X58454819Y-83523809D02*
X58454819Y-83809523D01*
X58454819Y-83809523D02*
X58407200Y-83904761D01*
X58407200Y-83904761D02*
X58359580Y-83952380D01*
D13*
%TO.C,J5*%
X72940000Y-62840000D02*
X72940000Y-62960000D01*
X72940000Y-62960000D02*
X75060000Y-62960000D01*
X74000000Y-60840000D02*
X75060000Y-60840000D01*
X75060000Y-60840000D02*
X75060000Y-61900000D01*
X75060000Y-62840000D02*
X75060000Y-62960000D01*
%TO.C,J4*%
X50940000Y-62840000D02*
X50940000Y-62960000D01*
X50940000Y-62960000D02*
X53060000Y-62960000D01*
X52000000Y-60840000D02*
X53060000Y-60840000D01*
X53060000Y-60840000D02*
X53060000Y-61900000D01*
X53060000Y-62840000D02*
X53060000Y-62960000D01*
%TO.C,J2*%
X71000000Y-84960000D02*
X75060000Y-84960000D01*
X71000000Y-84960000D02*
X71000000Y-82840000D01*
X75060000Y-84960000D02*
X75060000Y-82840000D01*
X68940000Y-83900000D02*
X68940000Y-82840000D01*
X68940000Y-82840000D02*
X70000000Y-82840000D01*
X71000000Y-82840000D02*
X75060000Y-82840000D01*
%TO.C,J1*%
X60999999Y-62960000D02*
X67059999Y-62960000D01*
X60999999Y-62960000D02*
X60999999Y-60840000D01*
X67059999Y-62960000D02*
X67059999Y-60840000D01*
X58939999Y-61900000D02*
X58939999Y-60840000D01*
X58939999Y-60840000D02*
X59999999Y-60840000D01*
X60999999Y-60840000D02*
X67059999Y-60840000D01*
%TO.C,J3*%
X53000000Y-84960000D02*
X57060000Y-84960000D01*
X53000000Y-84960000D02*
X53000000Y-82840000D01*
X57060000Y-84960000D02*
X57060000Y-82840000D01*
X50940000Y-83900000D02*
X50940000Y-82840000D01*
X50940000Y-82840000D02*
X52000000Y-82840000D01*
X53000000Y-82840000D02*
X57060000Y-82840000D01*
%TD*%
M02*
