%TF.GenerationSoftware,KiCad,Pcbnew,8.0.3*%
%TF.CreationDate,2024-07-13T00:09:23+02:00*%
%TF.ProjectId,Led Nixie,4c656420-4e69-4786-9965-2e6b69636164,rev?*%
%TF.SameCoordinates,Original*%
%TF.FileFunction,Copper,L2,Bot*%
%TF.FilePolarity,Positive*%
%FSLAX46Y46*%
G04 Gerber Fmt 4.6, Leading zero omitted, Abs format (unit mm)*
G04 Created by KiCad (PCBNEW 8.0.3) date 2024-07-13 00:09:23*
%MOMM*%
%LPD*%
G01*
G04 APERTURE LIST*
%TA.AperFunction,ComponentPad*%
%ADD10R,1.350000X1.350000*%
%TD*%
%TA.AperFunction,ComponentPad*%
%ADD11O,1.350000X1.350000*%
%TD*%
%TA.AperFunction,ViaPad*%
%ADD12C,0.600000*%
%TD*%
G04 APERTURE END LIST*
D10*
%TO.P,J1,1,Pin_1*%
%TO.N,Net-(D1-A)*%
X103000000Y-29000000D03*
D11*
%TO.P,J1,2,Pin_2*%
%TO.N,Net-(D3-A)*%
X101000000Y-29000000D03*
%TO.P,J1,3,Pin_3*%
%TO.N,Net-(D5-A)*%
X99000000Y-29000000D03*
%TO.P,J1,4,Pin_4*%
%TO.N,Net-(D7-A)*%
X97000000Y-29000000D03*
%TD*%
D10*
%TO.P,J5,1,Pin_1*%
%TO.N,GND*%
X111000000Y-29000000D03*
%TD*%
%TO.P,J4,1,Pin_1*%
%TO.N,GND*%
X89000000Y-29000000D03*
%TD*%
%TO.P,J3,1,Pin_1*%
%TO.N,Net-(D19-A)*%
X93000000Y-51000000D03*
D11*
%TO.P,J3,2,Pin_2*%
%TO.N,Net-(D17-A)*%
X91000000Y-51000000D03*
%TO.P,J3,3,Pin_3*%
%TO.N,Net-(D15-A)*%
X89000000Y-51000000D03*
%TD*%
D10*
%TO.P,J2,1,Pin_1*%
%TO.N,Net-(D13-A)*%
X111000000Y-51000000D03*
D11*
%TO.P,J2,2,Pin_2*%
%TO.N,Net-(D11-A)*%
X109000000Y-51000000D03*
%TO.P,J2,3,Pin_3*%
%TO.N,Net-(D9-A)*%
X107000000Y-51000000D03*
%TD*%
D12*
%TO.N,GND*%
X94400000Y-45000000D03*
X94400000Y-49000000D03*
X94400000Y-41000000D03*
X94400000Y-33000000D03*
X94400000Y-37000000D03*
%TD*%
%TA.AperFunction,Conductor*%
%TO.N,GND*%
G36*
X96099912Y-28020185D02*
G01*
X96145667Y-28072989D01*
X96155611Y-28142147D01*
X96129626Y-28199044D01*
X96131028Y-28200103D01*
X96127573Y-28204677D01*
X96127573Y-28204678D01*
X96117877Y-28217518D01*
X95996288Y-28378527D01*
X95899184Y-28573537D01*
X95839564Y-28783081D01*
X95819464Y-28999999D01*
X95819464Y-29000000D01*
X95839564Y-29216918D01*
X95839564Y-29216920D01*
X95839565Y-29216923D01*
X95899183Y-29426459D01*
X95996288Y-29621472D01*
X96127573Y-29795322D01*
X96288568Y-29942088D01*
X96288575Y-29942092D01*
X96288576Y-29942093D01*
X96473786Y-30056770D01*
X96473792Y-30056773D01*
X96496664Y-30065633D01*
X96676931Y-30135470D01*
X96891074Y-30175500D01*
X96891076Y-30175500D01*
X97108924Y-30175500D01*
X97108926Y-30175500D01*
X97323069Y-30135470D01*
X97526210Y-30056772D01*
X97711432Y-29942088D01*
X97872427Y-29795322D01*
X97901047Y-29757422D01*
X97957153Y-29715787D01*
X98026865Y-29711094D01*
X98088048Y-29744836D01*
X98098946Y-29757414D01*
X98127573Y-29795322D01*
X98288568Y-29942088D01*
X98288575Y-29942092D01*
X98288576Y-29942093D01*
X98473786Y-30056770D01*
X98473792Y-30056773D01*
X98496664Y-30065633D01*
X98676931Y-30135470D01*
X98891074Y-30175500D01*
X98891076Y-30175500D01*
X99108924Y-30175500D01*
X99108926Y-30175500D01*
X99323069Y-30135470D01*
X99526210Y-30056772D01*
X99711432Y-29942088D01*
X99872427Y-29795322D01*
X99901047Y-29757422D01*
X99957153Y-29715787D01*
X100026865Y-29711094D01*
X100088048Y-29744836D01*
X100098946Y-29757414D01*
X100127573Y-29795322D01*
X100288568Y-29942088D01*
X100288575Y-29942092D01*
X100288576Y-29942093D01*
X100473786Y-30056770D01*
X100473792Y-30056773D01*
X100496664Y-30065633D01*
X100676931Y-30135470D01*
X100891074Y-30175500D01*
X100891076Y-30175500D01*
X101108924Y-30175500D01*
X101108926Y-30175500D01*
X101323069Y-30135470D01*
X101526210Y-30056772D01*
X101711432Y-29942088D01*
X101722407Y-29932082D01*
X101785207Y-29901463D01*
X101854594Y-29909657D01*
X101905214Y-29949405D01*
X101967452Y-30032544D01*
X101967455Y-30032547D01*
X102082664Y-30118793D01*
X102082671Y-30118797D01*
X102217517Y-30169091D01*
X102217516Y-30169091D01*
X102224444Y-30169835D01*
X102277127Y-30175500D01*
X103722872Y-30175499D01*
X103782483Y-30169091D01*
X103917331Y-30118796D01*
X104032546Y-30032546D01*
X104118796Y-29917331D01*
X104169091Y-29782483D01*
X104175500Y-29722873D01*
X104175499Y-28277128D01*
X104169091Y-28217517D01*
X104150559Y-28167832D01*
X104145576Y-28098142D01*
X104179061Y-28036819D01*
X104240384Y-28003334D01*
X104266742Y-28000500D01*
X109733791Y-28000500D01*
X109800830Y-28020185D01*
X109846585Y-28072989D01*
X109856529Y-28142147D01*
X109849973Y-28167834D01*
X109831402Y-28217623D01*
X109831401Y-28217627D01*
X109825000Y-28277155D01*
X109825000Y-28750000D01*
X110684314Y-28750000D01*
X110679920Y-28754394D01*
X110627259Y-28845606D01*
X110600000Y-28947339D01*
X110600000Y-29052661D01*
X110627259Y-29154394D01*
X110679920Y-29245606D01*
X110684314Y-29250000D01*
X109825000Y-29250000D01*
X109825000Y-29722844D01*
X109831401Y-29782372D01*
X109831403Y-29782379D01*
X109881645Y-29917086D01*
X109881649Y-29917093D01*
X109967809Y-30032187D01*
X109967812Y-30032190D01*
X110082906Y-30118350D01*
X110082913Y-30118354D01*
X110217620Y-30168596D01*
X110217627Y-30168598D01*
X110277155Y-30174999D01*
X110277172Y-30175000D01*
X110750000Y-30175000D01*
X110750000Y-29315686D01*
X110754394Y-29320080D01*
X110845606Y-29372741D01*
X110947339Y-29400000D01*
X111052661Y-29400000D01*
X111154394Y-29372741D01*
X111245606Y-29320080D01*
X111250000Y-29315686D01*
X111250000Y-30175000D01*
X111722828Y-30175000D01*
X111722844Y-30174999D01*
X111782372Y-30168598D01*
X111782376Y-30168597D01*
X111832166Y-30150027D01*
X111901858Y-30145043D01*
X111963181Y-30178528D01*
X111996666Y-30239851D01*
X111999500Y-30266209D01*
X111999500Y-49733257D01*
X111979815Y-49800296D01*
X111927011Y-49846051D01*
X111857853Y-49855995D01*
X111832168Y-49849439D01*
X111782485Y-49830909D01*
X111782483Y-49830908D01*
X111722883Y-49824501D01*
X111722881Y-49824500D01*
X111722873Y-49824500D01*
X111722864Y-49824500D01*
X110277129Y-49824500D01*
X110277123Y-49824501D01*
X110217516Y-49830908D01*
X110082671Y-49881202D01*
X110082664Y-49881206D01*
X109967455Y-49967452D01*
X109905214Y-50050594D01*
X109849279Y-50092465D01*
X109779588Y-50097448D01*
X109722411Y-50067920D01*
X109711434Y-50057913D01*
X109711429Y-50057910D01*
X109526213Y-49943229D01*
X109526207Y-49943226D01*
X109441113Y-49910260D01*
X109323069Y-49864530D01*
X109108926Y-49824500D01*
X108891074Y-49824500D01*
X108676931Y-49864530D01*
X108633896Y-49881202D01*
X108473792Y-49943226D01*
X108473786Y-49943229D01*
X108288576Y-50057906D01*
X108288566Y-50057913D01*
X108127573Y-50204676D01*
X108098953Y-50242576D01*
X108042844Y-50284211D01*
X107973132Y-50288902D01*
X107911950Y-50255159D01*
X107901047Y-50242576D01*
X107872426Y-50204676D01*
X107711433Y-50057913D01*
X107711423Y-50057906D01*
X107526213Y-49943229D01*
X107526207Y-49943226D01*
X107441113Y-49910260D01*
X107323069Y-49864530D01*
X107108926Y-49824500D01*
X106891074Y-49824500D01*
X106676931Y-49864530D01*
X106633896Y-49881202D01*
X106473792Y-49943226D01*
X106473786Y-49943229D01*
X106288576Y-50057906D01*
X106288566Y-50057913D01*
X106127574Y-50204676D01*
X105996288Y-50378527D01*
X105899184Y-50573537D01*
X105839564Y-50783081D01*
X105819464Y-50999999D01*
X105819464Y-51000000D01*
X105839564Y-51216918D01*
X105839564Y-51216920D01*
X105839565Y-51216923D01*
X105899183Y-51426459D01*
X105996288Y-51621472D01*
X106117877Y-51782483D01*
X106131028Y-51799897D01*
X106129086Y-51801363D01*
X106155122Y-51854734D01*
X106146942Y-51924123D01*
X106102547Y-51978075D01*
X106036030Y-51999460D01*
X106032873Y-51999500D01*
X94266742Y-51999500D01*
X94199703Y-51979815D01*
X94153948Y-51927011D01*
X94144004Y-51857853D01*
X94150560Y-51832166D01*
X94169091Y-51782483D01*
X94175500Y-51722873D01*
X94175499Y-50277128D01*
X94169091Y-50217517D01*
X94164302Y-50204678D01*
X94118797Y-50082671D01*
X94118793Y-50082664D01*
X94032547Y-49967455D01*
X94032544Y-49967452D01*
X93917335Y-49881206D01*
X93917328Y-49881202D01*
X93782482Y-49830908D01*
X93782483Y-49830908D01*
X93722883Y-49824501D01*
X93722881Y-49824500D01*
X93722873Y-49824500D01*
X93722864Y-49824500D01*
X92277129Y-49824500D01*
X92277123Y-49824501D01*
X92217516Y-49830908D01*
X92082671Y-49881202D01*
X92082664Y-49881206D01*
X91967455Y-49967452D01*
X91905214Y-50050594D01*
X91849279Y-50092465D01*
X91779588Y-50097448D01*
X91722411Y-50067920D01*
X91711434Y-50057913D01*
X91711429Y-50057910D01*
X91526213Y-49943229D01*
X91526207Y-49943226D01*
X91441113Y-49910260D01*
X91323069Y-49864530D01*
X91108926Y-49824500D01*
X90891074Y-49824500D01*
X90676931Y-49864530D01*
X90633896Y-49881202D01*
X90473792Y-49943226D01*
X90473786Y-49943229D01*
X90288576Y-50057906D01*
X90288566Y-50057913D01*
X90127573Y-50204676D01*
X90098953Y-50242576D01*
X90042844Y-50284211D01*
X89973132Y-50288902D01*
X89911950Y-50255159D01*
X89901047Y-50242576D01*
X89872426Y-50204676D01*
X89711433Y-50057913D01*
X89711423Y-50057906D01*
X89526213Y-49943229D01*
X89526207Y-49943226D01*
X89441113Y-49910260D01*
X89323069Y-49864530D01*
X89108926Y-49824500D01*
X88891074Y-49824500D01*
X88676931Y-49864530D01*
X88633896Y-49881202D01*
X88473792Y-49943226D01*
X88473786Y-49943229D01*
X88288576Y-50057906D01*
X88288567Y-50057913D01*
X88208037Y-50131325D01*
X88145233Y-50161941D01*
X88075846Y-50153743D01*
X88021906Y-50109333D01*
X88000539Y-50042810D01*
X88000500Y-50039687D01*
X88000500Y-30266209D01*
X88020185Y-30199170D01*
X88072989Y-30153415D01*
X88142147Y-30143471D01*
X88167834Y-30150027D01*
X88217623Y-30168597D01*
X88217627Y-30168598D01*
X88277155Y-30174999D01*
X88277172Y-30175000D01*
X88750000Y-30175000D01*
X88750000Y-29315686D01*
X88754394Y-29320080D01*
X88845606Y-29372741D01*
X88947339Y-29400000D01*
X89052661Y-29400000D01*
X89154394Y-29372741D01*
X89245606Y-29320080D01*
X89250000Y-29315686D01*
X89250000Y-30175000D01*
X89722828Y-30175000D01*
X89722844Y-30174999D01*
X89782372Y-30168598D01*
X89782379Y-30168596D01*
X89917086Y-30118354D01*
X89917093Y-30118350D01*
X90032187Y-30032190D01*
X90032190Y-30032187D01*
X90118350Y-29917093D01*
X90118354Y-29917086D01*
X90168596Y-29782379D01*
X90168598Y-29782372D01*
X90174999Y-29722844D01*
X90175000Y-29722827D01*
X90175000Y-29250000D01*
X89315686Y-29250000D01*
X89320080Y-29245606D01*
X89372741Y-29154394D01*
X89400000Y-29052661D01*
X89400000Y-28947339D01*
X89372741Y-28845606D01*
X89320080Y-28754394D01*
X89315686Y-28750000D01*
X90175000Y-28750000D01*
X90175000Y-28277172D01*
X90174999Y-28277155D01*
X90168598Y-28217627D01*
X90168597Y-28217623D01*
X90150027Y-28167834D01*
X90145043Y-28098142D01*
X90178528Y-28036819D01*
X90239851Y-28003334D01*
X90266209Y-28000500D01*
X96032873Y-28000500D01*
X96099912Y-28020185D01*
G37*
%TD.AperFunction*%
%TD*%
M02*
