%TF.GenerationSoftware,KiCad,Pcbnew,8.0.3*%
%TF.CreationDate,2024-07-13T19:45:59+02:00*%
%TF.ProjectId,Shift Register Board,53686966-7420-4526-9567-697374657220,rev?*%
%TF.SameCoordinates,Original*%
%TF.FileFunction,Legend,Bot*%
%TF.FilePolarity,Positive*%
%FSLAX46Y46*%
G04 Gerber Fmt 4.6, Leading zero omitted, Abs format (unit mm)*
G04 Created by KiCad (PCBNEW 8.0.3) date 2024-07-13 19:45:59*
%MOMM*%
%LPD*%
G01*
G04 APERTURE LIST*
%ADD10C,0.100000*%
%ADD11C,0.150000*%
%ADD12C,0.120000*%
G04 APERTURE END LIST*
D10*
X64853258Y-81664895D02*
X64900877Y-81645847D01*
X64900877Y-81645847D02*
X64972306Y-81645847D01*
X64972306Y-81645847D02*
X65043734Y-81664895D01*
X65043734Y-81664895D02*
X65091353Y-81702990D01*
X65091353Y-81702990D02*
X65115163Y-81741085D01*
X65115163Y-81741085D02*
X65138972Y-81817276D01*
X65138972Y-81817276D02*
X65138972Y-81874419D01*
X65138972Y-81874419D02*
X65115163Y-81950609D01*
X65115163Y-81950609D02*
X65091353Y-81988704D01*
X65091353Y-81988704D02*
X65043734Y-82026800D01*
X65043734Y-82026800D02*
X64972306Y-82045847D01*
X64972306Y-82045847D02*
X64924687Y-82045847D01*
X64924687Y-82045847D02*
X64853258Y-82026800D01*
X64853258Y-82026800D02*
X64829449Y-82007752D01*
X64829449Y-82007752D02*
X64829449Y-81874419D01*
X64829449Y-81874419D02*
X64924687Y-81874419D01*
X64615163Y-82045847D02*
X64615163Y-81645847D01*
X64615163Y-81645847D02*
X64329449Y-82045847D01*
X64329449Y-82045847D02*
X64329449Y-81645847D01*
X64091353Y-82045847D02*
X64091353Y-81645847D01*
X64091353Y-81645847D02*
X63972305Y-81645847D01*
X63972305Y-81645847D02*
X63900877Y-81664895D01*
X63900877Y-81664895D02*
X63853258Y-81702990D01*
X63853258Y-81702990D02*
X63829448Y-81741085D01*
X63829448Y-81741085D02*
X63805639Y-81817276D01*
X63805639Y-81817276D02*
X63805639Y-81874419D01*
X63805639Y-81874419D02*
X63829448Y-81950609D01*
X63829448Y-81950609D02*
X63853258Y-81988704D01*
X63853258Y-81988704D02*
X63900877Y-82026800D01*
X63900877Y-82026800D02*
X63972305Y-82045847D01*
X63972305Y-82045847D02*
X64091353Y-82045847D01*
X60115163Y-81793466D02*
X59734211Y-81793466D01*
X59924687Y-81945847D02*
X59924687Y-81641085D01*
X59258020Y-81545847D02*
X59496115Y-81545847D01*
X59496115Y-81545847D02*
X59519924Y-81736323D01*
X59519924Y-81736323D02*
X59496115Y-81717276D01*
X59496115Y-81717276D02*
X59448496Y-81698228D01*
X59448496Y-81698228D02*
X59329448Y-81698228D01*
X59329448Y-81698228D02*
X59281829Y-81717276D01*
X59281829Y-81717276D02*
X59258020Y-81736323D01*
X59258020Y-81736323D02*
X59234210Y-81774419D01*
X59234210Y-81774419D02*
X59234210Y-81869657D01*
X59234210Y-81869657D02*
X59258020Y-81907752D01*
X59258020Y-81907752D02*
X59281829Y-81926800D01*
X59281829Y-81926800D02*
X59329448Y-81945847D01*
X59329448Y-81945847D02*
X59448496Y-81945847D01*
X59448496Y-81945847D02*
X59496115Y-81926800D01*
X59496115Y-81926800D02*
X59519924Y-81907752D01*
X59091353Y-81545847D02*
X58924687Y-81945847D01*
X58924687Y-81945847D02*
X58758020Y-81545847D01*
X71315163Y-64045847D02*
X71315163Y-63645847D01*
X71315163Y-63645847D02*
X71196115Y-63645847D01*
X71196115Y-63645847D02*
X71124687Y-63664895D01*
X71124687Y-63664895D02*
X71077068Y-63702990D01*
X71077068Y-63702990D02*
X71053258Y-63741085D01*
X71053258Y-63741085D02*
X71029449Y-63817276D01*
X71029449Y-63817276D02*
X71029449Y-63874419D01*
X71029449Y-63874419D02*
X71053258Y-63950609D01*
X71053258Y-63950609D02*
X71077068Y-63988704D01*
X71077068Y-63988704D02*
X71124687Y-64026800D01*
X71124687Y-64026800D02*
X71196115Y-64045847D01*
X71196115Y-64045847D02*
X71315163Y-64045847D01*
X70934211Y-64083942D02*
X70553258Y-64083942D01*
X70338973Y-63645847D02*
X70243735Y-63645847D01*
X70243735Y-63645847D02*
X70196116Y-63664895D01*
X70196116Y-63664895D02*
X70148497Y-63702990D01*
X70148497Y-63702990D02*
X70124687Y-63779180D01*
X70124687Y-63779180D02*
X70124687Y-63912514D01*
X70124687Y-63912514D02*
X70148497Y-63988704D01*
X70148497Y-63988704D02*
X70196116Y-64026800D01*
X70196116Y-64026800D02*
X70243735Y-64045847D01*
X70243735Y-64045847D02*
X70338973Y-64045847D01*
X70338973Y-64045847D02*
X70386592Y-64026800D01*
X70386592Y-64026800D02*
X70434211Y-63988704D01*
X70434211Y-63988704D02*
X70458020Y-63912514D01*
X70458020Y-63912514D02*
X70458020Y-63779180D01*
X70458020Y-63779180D02*
X70434211Y-63702990D01*
X70434211Y-63702990D02*
X70386592Y-63664895D01*
X70386592Y-63664895D02*
X70338973Y-63645847D01*
X69910401Y-63645847D02*
X69910401Y-63969657D01*
X69910401Y-63969657D02*
X69886591Y-64007752D01*
X69886591Y-64007752D02*
X69862782Y-64026800D01*
X69862782Y-64026800D02*
X69815163Y-64045847D01*
X69815163Y-64045847D02*
X69719925Y-64045847D01*
X69719925Y-64045847D02*
X69672306Y-64026800D01*
X69672306Y-64026800D02*
X69648496Y-64007752D01*
X69648496Y-64007752D02*
X69624687Y-63969657D01*
X69624687Y-63969657D02*
X69624687Y-63645847D01*
X69458019Y-63645847D02*
X69172305Y-63645847D01*
X69315162Y-64045847D02*
X69315162Y-63645847D01*
X68505639Y-64179180D02*
X68505639Y-63607752D01*
X67672307Y-63645847D02*
X67577069Y-63645847D01*
X67577069Y-63645847D02*
X67529450Y-63664895D01*
X67529450Y-63664895D02*
X67481831Y-63702990D01*
X67481831Y-63702990D02*
X67458021Y-63779180D01*
X67458021Y-63779180D02*
X67458021Y-63912514D01*
X67458021Y-63912514D02*
X67481831Y-63988704D01*
X67481831Y-63988704D02*
X67529450Y-64026800D01*
X67529450Y-64026800D02*
X67577069Y-64045847D01*
X67577069Y-64045847D02*
X67672307Y-64045847D01*
X67672307Y-64045847D02*
X67719926Y-64026800D01*
X67719926Y-64026800D02*
X67767545Y-63988704D01*
X67767545Y-63988704D02*
X67791354Y-63912514D01*
X67791354Y-63912514D02*
X67791354Y-63779180D01*
X67791354Y-63779180D02*
X67767545Y-63702990D01*
X67767545Y-63702990D02*
X67719926Y-63664895D01*
X67719926Y-63664895D02*
X67672307Y-63645847D01*
X67243735Y-63836323D02*
X67077068Y-63836323D01*
X67005640Y-64045847D02*
X67243735Y-64045847D01*
X67243735Y-64045847D02*
X67243735Y-63645847D01*
X67243735Y-63645847D02*
X67005640Y-63645847D01*
X66291354Y-64179180D02*
X66291354Y-63607752D01*
X65315165Y-64045847D02*
X65553260Y-64045847D01*
X65553260Y-64045847D02*
X65553260Y-63645847D01*
X65053260Y-63645847D02*
X64958022Y-63645847D01*
X64958022Y-63645847D02*
X64910403Y-63664895D01*
X64910403Y-63664895D02*
X64862784Y-63702990D01*
X64862784Y-63702990D02*
X64838974Y-63779180D01*
X64838974Y-63779180D02*
X64838974Y-63912514D01*
X64838974Y-63912514D02*
X64862784Y-63988704D01*
X64862784Y-63988704D02*
X64910403Y-64026800D01*
X64910403Y-64026800D02*
X64958022Y-64045847D01*
X64958022Y-64045847D02*
X65053260Y-64045847D01*
X65053260Y-64045847D02*
X65100879Y-64026800D01*
X65100879Y-64026800D02*
X65148498Y-63988704D01*
X65148498Y-63988704D02*
X65172307Y-63912514D01*
X65172307Y-63912514D02*
X65172307Y-63779180D01*
X65172307Y-63779180D02*
X65148498Y-63702990D01*
X65148498Y-63702990D02*
X65100879Y-63664895D01*
X65100879Y-63664895D02*
X65053260Y-63645847D01*
X64648497Y-63931561D02*
X64410402Y-63931561D01*
X64696116Y-64045847D02*
X64529450Y-63645847D01*
X64529450Y-63645847D02*
X64362783Y-64045847D01*
X64196117Y-64045847D02*
X64196117Y-63645847D01*
X64196117Y-63645847D02*
X64077069Y-63645847D01*
X64077069Y-63645847D02*
X64005641Y-63664895D01*
X64005641Y-63664895D02*
X63958022Y-63702990D01*
X63958022Y-63702990D02*
X63934212Y-63741085D01*
X63934212Y-63741085D02*
X63910403Y-63817276D01*
X63910403Y-63817276D02*
X63910403Y-63874419D01*
X63910403Y-63874419D02*
X63934212Y-63950609D01*
X63934212Y-63950609D02*
X63958022Y-63988704D01*
X63958022Y-63988704D02*
X64005641Y-64026800D01*
X64005641Y-64026800D02*
X64077069Y-64045847D01*
X64077069Y-64045847D02*
X64196117Y-64045847D01*
X63196117Y-64179180D02*
X63196117Y-63607752D01*
X62172309Y-64007752D02*
X62196118Y-64026800D01*
X62196118Y-64026800D02*
X62267547Y-64045847D01*
X62267547Y-64045847D02*
X62315166Y-64045847D01*
X62315166Y-64045847D02*
X62386594Y-64026800D01*
X62386594Y-64026800D02*
X62434213Y-63988704D01*
X62434213Y-63988704D02*
X62458023Y-63950609D01*
X62458023Y-63950609D02*
X62481832Y-63874419D01*
X62481832Y-63874419D02*
X62481832Y-63817276D01*
X62481832Y-63817276D02*
X62458023Y-63741085D01*
X62458023Y-63741085D02*
X62434213Y-63702990D01*
X62434213Y-63702990D02*
X62386594Y-63664895D01*
X62386594Y-63664895D02*
X62315166Y-63645847D01*
X62315166Y-63645847D02*
X62267547Y-63645847D01*
X62267547Y-63645847D02*
X62196118Y-63664895D01*
X62196118Y-63664895D02*
X62172309Y-63683942D01*
X61719928Y-64045847D02*
X61958023Y-64045847D01*
X61958023Y-64045847D02*
X61958023Y-63645847D01*
X61267547Y-64045847D02*
X61434213Y-63855371D01*
X61553261Y-64045847D02*
X61553261Y-63645847D01*
X61553261Y-63645847D02*
X61362785Y-63645847D01*
X61362785Y-63645847D02*
X61315166Y-63664895D01*
X61315166Y-63664895D02*
X61291356Y-63683942D01*
X61291356Y-63683942D02*
X61267547Y-63722038D01*
X61267547Y-63722038D02*
X61267547Y-63779180D01*
X61267547Y-63779180D02*
X61291356Y-63817276D01*
X61291356Y-63817276D02*
X61315166Y-63836323D01*
X61315166Y-63836323D02*
X61362785Y-63855371D01*
X61362785Y-63855371D02*
X61553261Y-63855371D01*
X60553261Y-64179180D02*
X60553261Y-63607752D01*
X59529453Y-64007752D02*
X59553262Y-64026800D01*
X59553262Y-64026800D02*
X59624691Y-64045847D01*
X59624691Y-64045847D02*
X59672310Y-64045847D01*
X59672310Y-64045847D02*
X59743738Y-64026800D01*
X59743738Y-64026800D02*
X59791357Y-63988704D01*
X59791357Y-63988704D02*
X59815167Y-63950609D01*
X59815167Y-63950609D02*
X59838976Y-63874419D01*
X59838976Y-63874419D02*
X59838976Y-63817276D01*
X59838976Y-63817276D02*
X59815167Y-63741085D01*
X59815167Y-63741085D02*
X59791357Y-63702990D01*
X59791357Y-63702990D02*
X59743738Y-63664895D01*
X59743738Y-63664895D02*
X59672310Y-63645847D01*
X59672310Y-63645847D02*
X59624691Y-63645847D01*
X59624691Y-63645847D02*
X59553262Y-63664895D01*
X59553262Y-63664895D02*
X59529453Y-63683942D01*
X59077072Y-64045847D02*
X59315167Y-64045847D01*
X59315167Y-64045847D02*
X59315167Y-63645847D01*
X58910405Y-64045847D02*
X58910405Y-63645847D01*
X58624691Y-64045847D02*
X58838976Y-63817276D01*
X58624691Y-63645847D02*
X58910405Y-63874419D01*
X57910405Y-64179180D02*
X57910405Y-63607752D01*
X57172311Y-64045847D02*
X57172311Y-63645847D01*
X57172311Y-63645847D02*
X57053263Y-63645847D01*
X57053263Y-63645847D02*
X56981835Y-63664895D01*
X56981835Y-63664895D02*
X56934216Y-63702990D01*
X56934216Y-63702990D02*
X56910406Y-63741085D01*
X56910406Y-63741085D02*
X56886597Y-63817276D01*
X56886597Y-63817276D02*
X56886597Y-63874419D01*
X56886597Y-63874419D02*
X56910406Y-63950609D01*
X56910406Y-63950609D02*
X56934216Y-63988704D01*
X56934216Y-63988704D02*
X56981835Y-64026800D01*
X56981835Y-64026800D02*
X57053263Y-64045847D01*
X57053263Y-64045847D02*
X57172311Y-64045847D01*
X56791359Y-64083942D02*
X56410406Y-64083942D01*
X56291359Y-64045847D02*
X56291359Y-63645847D01*
X56053264Y-64045847D02*
X56053264Y-63645847D01*
X56053264Y-63645847D02*
X55767550Y-64045847D01*
X55767550Y-64045847D02*
X55767550Y-63645847D01*
D11*
X54024819Y-65266666D02*
X54739104Y-65266666D01*
X54739104Y-65266666D02*
X54881961Y-65219047D01*
X54881961Y-65219047D02*
X54977200Y-65123809D01*
X54977200Y-65123809D02*
X55024819Y-64980952D01*
X55024819Y-64980952D02*
X55024819Y-64885714D01*
X54024819Y-66171428D02*
X54024819Y-65980952D01*
X54024819Y-65980952D02*
X54072438Y-65885714D01*
X54072438Y-65885714D02*
X54120057Y-65838095D01*
X54120057Y-65838095D02*
X54262914Y-65742857D01*
X54262914Y-65742857D02*
X54453390Y-65695238D01*
X54453390Y-65695238D02*
X54834342Y-65695238D01*
X54834342Y-65695238D02*
X54929580Y-65742857D01*
X54929580Y-65742857D02*
X54977200Y-65790476D01*
X54977200Y-65790476D02*
X55024819Y-65885714D01*
X55024819Y-65885714D02*
X55024819Y-66076190D01*
X55024819Y-66076190D02*
X54977200Y-66171428D01*
X54977200Y-66171428D02*
X54929580Y-66219047D01*
X54929580Y-66219047D02*
X54834342Y-66266666D01*
X54834342Y-66266666D02*
X54596247Y-66266666D01*
X54596247Y-66266666D02*
X54501009Y-66219047D01*
X54501009Y-66219047D02*
X54453390Y-66171428D01*
X54453390Y-66171428D02*
X54405771Y-66076190D01*
X54405771Y-66076190D02*
X54405771Y-65885714D01*
X54405771Y-65885714D02*
X54453390Y-65790476D01*
X54453390Y-65790476D02*
X54501009Y-65742857D01*
X54501009Y-65742857D02*
X54596247Y-65695238D01*
X64833333Y-80624819D02*
X64833333Y-81339104D01*
X64833333Y-81339104D02*
X64880952Y-81481961D01*
X64880952Y-81481961D02*
X64976190Y-81577200D01*
X64976190Y-81577200D02*
X65119047Y-81624819D01*
X65119047Y-81624819D02*
X65214285Y-81624819D01*
X64214285Y-81053390D02*
X64309523Y-81005771D01*
X64309523Y-81005771D02*
X64357142Y-80958152D01*
X64357142Y-80958152D02*
X64404761Y-80862914D01*
X64404761Y-80862914D02*
X64404761Y-80815295D01*
X64404761Y-80815295D02*
X64357142Y-80720057D01*
X64357142Y-80720057D02*
X64309523Y-80672438D01*
X64309523Y-80672438D02*
X64214285Y-80624819D01*
X64214285Y-80624819D02*
X64023809Y-80624819D01*
X64023809Y-80624819D02*
X63928571Y-80672438D01*
X63928571Y-80672438D02*
X63880952Y-80720057D01*
X63880952Y-80720057D02*
X63833333Y-80815295D01*
X63833333Y-80815295D02*
X63833333Y-80862914D01*
X63833333Y-80862914D02*
X63880952Y-80958152D01*
X63880952Y-80958152D02*
X63928571Y-81005771D01*
X63928571Y-81005771D02*
X64023809Y-81053390D01*
X64023809Y-81053390D02*
X64214285Y-81053390D01*
X64214285Y-81053390D02*
X64309523Y-81101009D01*
X64309523Y-81101009D02*
X64357142Y-81148628D01*
X64357142Y-81148628D02*
X64404761Y-81243866D01*
X64404761Y-81243866D02*
X64404761Y-81434342D01*
X64404761Y-81434342D02*
X64357142Y-81529580D01*
X64357142Y-81529580D02*
X64309523Y-81577200D01*
X64309523Y-81577200D02*
X64214285Y-81624819D01*
X64214285Y-81624819D02*
X64023809Y-81624819D01*
X64023809Y-81624819D02*
X63928571Y-81577200D01*
X63928571Y-81577200D02*
X63880952Y-81529580D01*
X63880952Y-81529580D02*
X63833333Y-81434342D01*
X63833333Y-81434342D02*
X63833333Y-81243866D01*
X63833333Y-81243866D02*
X63880952Y-81148628D01*
X63880952Y-81148628D02*
X63928571Y-81101009D01*
X63928571Y-81101009D02*
X64023809Y-81053390D01*
X59733333Y-80624819D02*
X59733333Y-81339104D01*
X59733333Y-81339104D02*
X59780952Y-81481961D01*
X59780952Y-81481961D02*
X59876190Y-81577200D01*
X59876190Y-81577200D02*
X60019047Y-81624819D01*
X60019047Y-81624819D02*
X60114285Y-81624819D01*
X59352380Y-80624819D02*
X58685714Y-80624819D01*
X58685714Y-80624819D02*
X59114285Y-81624819D01*
X58461904Y-67954819D02*
X58461904Y-68764342D01*
X58461904Y-68764342D02*
X58414285Y-68859580D01*
X58414285Y-68859580D02*
X58366666Y-68907200D01*
X58366666Y-68907200D02*
X58271428Y-68954819D01*
X58271428Y-68954819D02*
X58080952Y-68954819D01*
X58080952Y-68954819D02*
X57985714Y-68907200D01*
X57985714Y-68907200D02*
X57938095Y-68859580D01*
X57938095Y-68859580D02*
X57890476Y-68764342D01*
X57890476Y-68764342D02*
X57890476Y-67954819D01*
X57461904Y-68050057D02*
X57414285Y-68002438D01*
X57414285Y-68002438D02*
X57319047Y-67954819D01*
X57319047Y-67954819D02*
X57080952Y-67954819D01*
X57080952Y-67954819D02*
X56985714Y-68002438D01*
X56985714Y-68002438D02*
X56938095Y-68050057D01*
X56938095Y-68050057D02*
X56890476Y-68145295D01*
X56890476Y-68145295D02*
X56890476Y-68240533D01*
X56890476Y-68240533D02*
X56938095Y-68383390D01*
X56938095Y-68383390D02*
X57509523Y-68954819D01*
X57509523Y-68954819D02*
X56890476Y-68954819D01*
X69061904Y-67954819D02*
X69061904Y-68764342D01*
X69061904Y-68764342D02*
X69014285Y-68859580D01*
X69014285Y-68859580D02*
X68966666Y-68907200D01*
X68966666Y-68907200D02*
X68871428Y-68954819D01*
X68871428Y-68954819D02*
X68680952Y-68954819D01*
X68680952Y-68954819D02*
X68585714Y-68907200D01*
X68585714Y-68907200D02*
X68538095Y-68859580D01*
X68538095Y-68859580D02*
X68490476Y-68764342D01*
X68490476Y-68764342D02*
X68490476Y-67954819D01*
X67490476Y-68954819D02*
X68061904Y-68954819D01*
X67776190Y-68954819D02*
X67776190Y-67954819D01*
X67776190Y-67954819D02*
X67871428Y-68097676D01*
X67871428Y-68097676D02*
X67966666Y-68192914D01*
X67966666Y-68192914D02*
X68061904Y-68240533D01*
D12*
%TO.C,C2*%
X63935000Y-68938747D02*
X63935000Y-69461253D01*
X62465000Y-68938747D02*
X62465000Y-69461253D01*
%TO.C,C1*%
X53435000Y-68938747D02*
X53435000Y-69461253D01*
X51965000Y-68938747D02*
X51965000Y-69461253D01*
%TO.C,J6*%
X55570000Y-65600000D02*
X55570000Y-64270000D01*
X55570000Y-64270000D02*
X56900000Y-64270000D01*
X70930000Y-64270000D02*
X58170001Y-64270000D01*
X58170001Y-66930000D02*
X58170001Y-64270000D01*
X70930000Y-66930000D02*
X70930000Y-64270000D01*
X70930000Y-66930000D02*
X58170001Y-66930000D01*
%TO.C,J8*%
X64500000Y-82170000D02*
X65830000Y-82170000D01*
X65830000Y-82170000D02*
X65830000Y-83500000D01*
X65830000Y-84830000D02*
X65830000Y-84770000D01*
X63170000Y-84770000D02*
X65830000Y-84770000D01*
X63170000Y-84830000D02*
X65830000Y-84830000D01*
X63170000Y-84830000D02*
X63170000Y-84770000D01*
%TO.C,J7*%
X59400000Y-82170000D02*
X60730000Y-82170000D01*
X60730000Y-82170000D02*
X60730000Y-83500000D01*
X60730000Y-84830000D02*
X60730000Y-84770001D01*
X58070000Y-84770001D02*
X60730000Y-84770001D01*
X58070000Y-84830000D02*
X60730000Y-84830000D01*
X58070000Y-84830000D02*
X58070000Y-84770001D01*
%TO.C,U2*%
X55750000Y-69340000D02*
X57700000Y-69340000D01*
X55750000Y-79460000D02*
X57700000Y-79460000D01*
X59650000Y-69340000D02*
X57700000Y-69340000D01*
X59650000Y-79460000D02*
X57700000Y-79460000D01*
X60400000Y-69395000D02*
X60160000Y-69065000D01*
X60640000Y-69065000D01*
X60400000Y-69395000D01*
G36*
X60400000Y-69395000D02*
G01*
X60160000Y-69065000D01*
X60640000Y-69065000D01*
X60400000Y-69395000D01*
G37*
%TO.C,U1*%
X66350000Y-69340000D02*
X68300000Y-69340000D01*
X66350000Y-79460000D02*
X68300000Y-79460000D01*
X70250000Y-69340000D02*
X68300000Y-69340000D01*
X70250000Y-79460000D02*
X68300000Y-79460000D01*
X71000000Y-69395000D02*
X70760000Y-69065000D01*
X71240000Y-69065000D01*
X71000000Y-69395000D01*
G36*
X71000000Y-69395000D02*
G01*
X70760000Y-69065000D01*
X71240000Y-69065000D01*
X71000000Y-69395000D01*
G37*
%TD*%
M02*
